<?xml version="1.0" encoding="UTF-8"?>
<svg version="1.1" xmlns="http://www.w3.org/2000/svg" width="600" height="360">
<path d="M0 0 C0.66 0 1.32 0 2 0 C3.24243164 1.74291992 3.24243164 1.74291992 4.66015625 4.23046875 C5.46658569 5.63051147 5.46658569 5.63051147 6.28930664 7.05883789 C6.87446045 8.09129639 7.45961426 9.12375488 8.0625 10.1875 C9.33269584 12.39880381 10.60355818 14.60972487 11.875 16.8203125 C12.20794571 17.40150345 12.54089142 17.9826944 12.88392639 18.58149719 C15.31198922 22.8179984 17.77135682 27.03509957 20.25 31.2421875 C20.60438141 31.84376678 20.95876282 32.44534607 21.32388306 33.06515503 C22.042477 34.28477537 22.76111518 35.50436965 23.47979736 36.72393799 C29.49991661 46.94683962 35.43198629 57.21442715 41.22949219 67.56567383 C44.07065448 72.62756117 46.96117983 77.65465835 49.9140625 82.65234375 C50.56415283 83.75408936 51.21424316 84.85583496 51.8840332 85.9909668 C53.14509791 88.12211666 54.4116453 90.25003422 55.68432617 92.37426758 C56.24869385 93.32841553 56.81306152 94.28256348 57.39453125 95.265625 C58.15020386 96.53067871 58.15020386 96.53067871 58.92114258 97.82128906 C60 100 60 100 60 103 C55.42786761 105.28606619 49.08233247 104.23016856 44.0625 104.25 C42.76119141 104.270625 41.45988281 104.29125 40.11914062 104.3125 C38.87455078 104.31765625 37.62996094 104.3228125 36.34765625 104.328125 C35.20304932 104.3374707 34.05844238 104.34681641 32.87915039 104.35644531 C30 104 30 104 28.25610352 102.70776367 C25.96221645 99.58905813 23.91767757 96.35021016 21.875 93.0625 C21.41996094 92.34642578 20.96492188 91.63035156 20.49609375 90.89257812 C19.84447266 89.8494043 19.84447266 89.8494043 19.1796875 88.78515625 C18.78507324 88.15488525 18.39045898 87.52461426 17.98388672 86.87524414 C16.96269671 84.9289016 16.44267328 83.14592558 16 81 C15.34 81 14.68 81 14 81 C13.48050781 80.0821875 12.96101563 79.164375 12.42578125 78.21875 C7.04249694 66.67982167 7.04249694 66.67982167 -1 58 C-1.226875 58.64710937 -1.45375 59.29421875 -1.6875 59.9609375 C-3.45716833 64.05856239 -5.71385119 67.79733371 -8 71.625 C-8.45117188 72.388125 -8.90234375 73.15125 -9.3671875 73.9375 C-11.1873106 77.00693836 -13.01982839 80.02974259 -15 83 C-14.65623576 86.70706899 -13.40885162 89.43119388 -11.55859375 92.625 C-11.06166016 93.48931641 -10.56472656 94.35363281 -10.05273438 95.24414062 C-9.51970703 96.15357422 -8.98667969 97.06300781 -8.4375 98 C-7.89029297 98.94552734 -7.34308594 99.89105469 -6.77929688 100.86523438 C-3.32295922 106.81306632 0.23976708 112.68070578 3.8828125 118.515625 C7.21484332 123.93139411 10.30616966 129.49061121 13.44848633 135.01757812 C17.71321888 142.51466225 22.06869169 149.95358415 26.45507812 157.37988281 C29.79209471 163.03931107 33.11433429 168.70743145 36.4375 174.375 C36.80742065 175.00579468 37.17734131 175.63658936 37.55847168 176.28649902 C42.03936684 183.92876494 46.50638029 191.57873026 50.9375 199.25 C54.39793388 205.24023801 57.87299098 211.22145361 61.375 217.1875 C61.7680835 217.8587793 62.16116699 218.53005859 62.56616211 219.22167969 C64.97660916 223.31979952 67.47489653 227.34439942 70.06884766 231.3293457 C71 233 71 233 71 235 C82.22 235 93.44 235 105 235 C102.09086308 229.95510708 102.09086308 229.95510708 99.16625977 224.91918945 C97.10817749 221.30601016 95.45678262 218.2107052 95 214 C94.34 214 93.68 214 93 214 C92.48050781 212.96101562 91.96101562 211.92203125 91.42578125 210.8515625 C91.0898999 210.1802832 90.75401855 209.50900391 90.40795898 208.81738281 C89.67544001 207.35136535 88.94449157 205.88456213 88.21508789 204.41699219 C86.6179181 201.20773574 85.0078111 198.01464127 83.3203125 194.8515625 C82.86398437 193.99304688 82.40765625 193.13453125 81.9375 192.25 C81.53402344 191.51265625 81.13054687 190.7753125 80.71484375 190.015625 C79.84971594 187.57624822 80.29236608 186.43469204 81 184 C84.93268867 183.97526132 88.86534713 183.95712165 92.7980957 183.94506836 C94.79314768 183.93757271 96.78817786 183.92486655 98.78320312 183.91210938 C100.03681641 183.90888672 101.29042969 183.90566406 102.58203125 183.90234375 C103.73936768 183.89710693 104.8967041 183.89187012 106.08911133 183.88647461 C109 184 109 184 112 185 C113.34350586 187.05932617 113.34350586 187.05932617 114.71484375 189.79296875 C115.22950195 190.80367432 115.74416016 191.81437988 116.27441406 192.85571289 C116.82323242 193.95520264 117.37205078 195.05469238 117.9375 196.1875 C119.11662898 198.50355236 120.29765218 200.81864123 121.48046875 203.1328125 C122.37064697 204.87933105 122.37064697 204.87933105 123.27880859 206.66113281 C125.69036282 211.33920596 128.20853129 215.95408149 130.75 220.5625 C135.58124859 229.36236318 140.3497171 238.19477168 145.07580566 247.05148315 C145.85611979 248.51251366 146.63793068 249.97274579 147.42126465 251.43215942 C148.51927756 253.4786772 149.6118935 255.52798513 150.703125 257.578125 C151.03687134 258.19789719 151.37061768 258.81766937 151.71447754 259.45622253 C154 263.77144529 154 263.77144529 154 266 C132.82895797 266.82474159 111.67845556 267.21511895 90.49169922 267.24023438 C86.46498358 267.24586192 82.43858238 267.2702921 78.41196823 267.29820633 C75.26878868 267.3167432 72.12568964 267.32203205 68.98246002 267.32357025 C67.49448042 267.32658498 66.00650184 267.33457345 64.51857758 267.34775543 C62.46752206 267.36473086 60.41730729 267.36296514 58.36621094 267.35644531 C57.20506775 267.36009094 56.04392456 267.36373657 54.84759521 267.36749268 C52 267 52 267 50.17835999 265.59370422 C48.84529034 263.79075881 47.68459329 261.97673789 46.57421875 260.02734375 C45.88404663 258.82029785 45.88404663 258.82029785 45.17993164 257.58886719 C44.6874292 256.71391602 44.19492676 255.83896484 43.6875 254.9375 C43.16986084 254.02516602 42.65222168 253.11283203 42.11889648 252.17285156 C36.64471443 242.46954447 31.3799104 232.65344571 26.12890625 222.828125 C21.41994241 213.81402956 21.41994241 213.81402956 16.0625 205.1875 C13.51267702 201.24686449 11.51206228 197.12167743 9.46484375 192.90234375 C8.08015627 190.07054484 8.08015627 190.07054484 6.63671875 187.73022461 C4.7981531 184.66329745 3.07055225 181.54744308 1.34765625 178.4140625 C0.83554848 177.48404922 0.83554848 177.48404922 0.31309509 176.5352478 C-0.77132834 174.56565436 -1.85451333 172.59538377 -2.9375 170.625 C-4.01704926 168.66183133 -5.09688713 166.69882315 -6.17738342 164.73617554 C-7.16049489 162.95029068 -8.14265332 161.16388129 -9.12475586 159.37744141 C-10.10392759 157.61388696 -11.08838921 155.85250487 -12.12527466 154.12225342 C-15 149.30307222 -15 149.30307222 -15 146 C-15.66 146 -16.32 146 -17 146 C-17.28407715 145.41444336 -17.5681543 144.82888672 -17.86083984 144.22558594 C-21.20683206 137.42157945 -24.85837127 130.82870086 -28.625 124.25 C-38 107.84375 -38 107.84375 -38 104 C-38.66 104 -39.32 104 -40 104 C-41.32621385 101.65269212 -42.63580199 99.29835742 -43.9375 96.9375 C-44.31068359 96.28072266 -44.68386719 95.62394531 -45.06835938 94.94726562 C-47.42909911 90.62987674 -49.20568984 87.02621575 -49 82 C-47.24788764 77.93349838 -44.96542305 74.25138734 -42.625 70.5 C-41.66013672 68.90357666 -41.66013672 68.90357666 -40.67578125 67.27490234 C-39.38845948 65.14817713 -38.09334455 63.0261474 -36.79003906 60.90917969 C-34.86038879 57.77310322 -32.96961364 54.61582849 -31.08740234 51.45117188 C-29.40512002 48.62596492 -27.70024675 45.8144236 -26 43 C-25.06225827 41.43504066 -24.12478138 39.8699226 -23.1875 38.3046875 C-19.22919946 31.70461917 -15.21799847 25.13693636 -11.2109375 18.56640625 C-10.62570312 17.60605469 -10.04046875 16.64570312 -9.4375 15.65625 C-8.57898438 14.25246094 -8.57898438 14.25246094 -7.703125 12.8203125 C-6.54921674 10.90948277 -5.41428423 8.98708786 -4.296875 7.0546875 C-3.76578125 6.13945313 -3.2346875 5.22421875 -2.6875 4.28125 C-2.21699219 3.45689453 -1.74648438 2.63253906 -1.26171875 1.78320312 C-0.63716797 0.90051758 -0.63716797 0.90051758 0 0 Z " fill="#08090B" transform="translate(300,47)"/>
<path d="M0 0 C0.99 0 1.98 0 3 0 C4.77416992 2.45581055 4.77416992 2.45581055 6.73046875 5.88671875 C7.08458328 6.4995723 7.43869781 7.11242584 7.80354309 7.74385071 C8.94215855 9.71918228 10.06521822 11.70285101 11.1875 13.6875 C12.65661236 16.25594374 14.13137277 18.82113294 15.60546875 21.38671875 C15.96981018 22.0232991 16.33415161 22.65987946 16.70953369 23.31575012 C21.09978994 30.9642914 25.74820102 38.44866243 30.4609375 45.90234375 C31.09257812 46.90394531 31.72421875 47.90554687 32.375 48.9375 C33.02210938 49.95714844 33.66921875 50.97679687 34.3359375 52.02734375 C35.98273059 54.96915019 37.04793484 57.77355695 38 61 C38.66 61 39.32 61 40 61 C40.28842773 61.5978833 40.57685547 62.1957666 40.87402344 62.81176758 C44.0485858 69.28825124 47.54615745 75.50106705 51.25 81.6875 C51.82500244 82.65445801 52.40000488 83.62141602 52.99243164 84.61767578 C56.46732668 90.45565494 59.96719366 96.27854421 63.47558594 102.09643555 C67.04186039 108.03031105 70.51785168 114.01649925 74 120 C78.03635359 126.93228055 82.07365782 133.86333041 86.1875 140.75 C86.86167969 141.87921875 87.53585937 143.0084375 88.23046875 144.171875 C89.88935929 146.96974937 89.88935929 146.96974937 91.80078125 149.140625 C93 151 93 151 92.57495117 153.11621094 C92.29035034 154.04868652 92.29035034 154.04868652 92 155 C86.66151328 155.09894543 81.32356131 155.17150414 75.984375 155.21972656 C74.1685252 155.23983061 72.35274005 155.26711835 70.53710938 155.30175781 C67.92561895 155.35033039 65.31498502 155.37298027 62.703125 155.390625 C61.89256653 155.41127014 61.08200806 155.43191528 60.24688721 155.45318604 C56.65104606 155.45461458 54.49094011 155.36798332 51.56787109 153.17700195 C49.46830018 150.26173041 47.9018357 147.17467768 46.375 143.9375 C45.67106775 142.49001017 44.96525876 141.04343189 44.2578125 139.59765625 C43.88946289 138.84242676 43.52111328 138.08719727 43.14160156 137.30908203 C41.24086212 133.46451538 39.25046593 129.66841135 37.25 125.875 C36.83685547 125.0907666 36.42371094 124.3065332 35.99804688 123.49853516 C32.68410123 117.23648537 29.28386361 111.0232427 25.875 104.8125 C22.11905027 97.96550116 18.47043911 91.08943582 15.02490234 84.08129883 C10.53138919 74.96169628 5.7424811 65.99182811 1 57 C-6.74943731 68.73966248 -13.93560006 80.80713872 -21.13964844 92.88623047 C-22.87063893 95.78348148 -24.60895167 98.67613341 -26.3515625 101.56640625 C-30.77054616 108.8979487 -35.1681524 116.23175944 -39.375 123.6875 C-41.87050706 128.09435025 -44.48402068 132.32735233 -47.35546875 136.49609375 C-50.03748405 140.57963724 -52.48161216 144.80953017 -54.92944336 149.03686523 C-57.78385962 153.89192981 -57.78385962 153.89192981 -60 155 C-62.25120742 155.08573394 -64.50499303 155.10712188 -66.7578125 155.09765625 C-67.75238968 155.09553383 -67.75238968 155.09553383 -68.76705933 155.09336853 C-70.88641863 155.08776754 -73.00567259 155.075215 -75.125 155.0625 C-76.56119639 155.05748512 -77.99739444 155.05292219 -79.43359375 155.04882812 C-82.95576345 155.03779782 -86.47787145 155.02053259 -90 155 C-90 150.85186629 -89.59397205 149.77723811 -87.625 146.3125 C-87.07457031 145.34183594 -86.52414063 144.37117187 -85.95703125 143.37109375 C-85.31121094 142.25863281 -84.66539062 141.14617187 -84 140 C-83.64083496 139.37367676 -83.28166992 138.74735352 -82.91162109 138.10205078 C-77.76210759 129.12593489 -72.38701875 120.3337078 -66.66723633 111.70849609 C-64.15700046 107.90111151 -62.02583346 104.09301046 -60 100 C-58.19286222 96.86740571 -56.31383312 93.77901619 -54.4375 90.6875 C-53.36006142 88.90271527 -52.28324903 87.11755238 -51.20703125 85.33203125 C-50.66900879 84.4395166 -50.13098633 83.54700195 -49.57666016 82.62744141 C-46.84389667 78.0733998 -44.15697189 73.49264686 -41.47436523 68.90893555 C-36.38749236 60.22508277 -31.16797257 51.62248197 -25.93457031 43.02636719 C-19.93192598 33.16637907 -13.93223019 23.30691182 -8.13183594 13.32592773 C-7.44685232 12.1491081 -6.75793258 10.97456767 -6.06445312 9.80273438 C-5.27571693 8.46694812 -4.50040865 7.12321333 -3.73242188 5.77539062 C-3.29994141 5.03998047 -2.86746094 4.30457031 -2.421875 3.546875 C-2.0309668 2.86979492 -1.64005859 2.19271484 -1.23730469 1.49511719 C-0.62483887 0.75503418 -0.62483887 0.75503418 0 0 Z " fill="#08080B" transform="translate(237,159)"/>
<path d="M0 0 C0.99 0.33 1.98 0.66 3 1 C3.495 2.98 3.495 2.98 4 5 C-8.54 5.33 -21.08 5.66 -34 6 C-34 5.34 -34 4.68 -34 4 C-35.13965714 4.02545395 -35.13965714 4.02545395 -36.30233765 4.05142212 C-43.45358667 4.20934373 -50.60493907 4.35754994 -57.75661278 4.49477577 C-61.4335834 4.56567392 -65.11039652 4.64036071 -68.78710938 4.72363281 C-72.3336514 4.80381853 -75.8802631 4.87414775 -79.4271431 4.93757248 C-80.78203183 4.96354715 -82.13685663 4.99310612 -83.49158859 5.02626419 C-85.38530166 5.07200894 -87.27933275 5.10396646 -89.17333984 5.13525391 C-90.25255707 5.15746002 -91.33177429 5.17966614 -92.44369507 5.20254517 C-95 5 -95 5 -97 3 C-64.99 3 -32.98 3 0 3 C0 2.01 0 1.02 0 0 Z " fill="#030104" transform="translate(450,308)"/>
<path d="M0 0 C0.99 0 1.98 0 3 0 C4.71476218 2.43442921 6.21480731 4.80072379 7.6875 7.375 C8.10322266 8.07367188 8.51894531 8.77234375 8.94726562 9.4921875 C12 14.70539563 12 14.70539563 12 17 C10.35 16.67 8.7 16.34 7 16 C6.67 14.35 6.34 12.7 6 11 C4.68 10.67 3.36 10.34 2 10 C1.855625 10.61875 1.71125 11.2375 1.5625 11.875 C1 14 1 14 0 16 C-0.66 16 -1.32 16 -2 16 C-2.33 15.01 -2.66 14.02 -3 13 C-3.66 12.67 -4.32 12.34 -5 12 C-4.42365861 7.24518354 -2.44931479 4.02951788 0 0 Z " fill="#060607" transform="translate(237,159)"/>
<path d="M0 0 C0.33 0.66 0.66 1.32 1 2 C0.0625 4.125 0.0625 4.125 -1 6 C-1.042721 4.33388095 -1.04063832 2.66617115 -1 1 C-0.67 0.67 -0.34 0.34 0 0 Z M-9 2 C-7.68 2.33 -6.36 2.66 -5 3 C-5 4.32 -5 5.64 -5 7 C-4.01 7.33 -3.02 7.66 -2 8 C-1.67 7.34 -1.34 6.68 -1 6 C-0.34 7.65 0.32 9.3 1 11 C0.34 11.66 -0.32 12.32 -1 13 C-0.67 13.99 -0.34 14.98 0 16 C3.51190809 17.22969878 3.51190809 17.22969878 7 18 C7 18.66 7 19.32 7 20 C6.34 20 5.68 20 5 20 C4.67 20.66 4.34 21.32 4 22 C4.33 22.99 4.66 23.98 5 25 C5.99 25 6.98 25 8 25 C8.66 27.64 9.32 30.28 10 33 C9.01 33 8.02 33 7 33 C6.62190186 32.29915283 6.24380371 31.59830566 5.85424805 30.8762207 C4.13319413 27.68766688 2.41036529 24.50007542 0.6875 21.3125 C0.09259766 20.20970703 -0.50230469 19.10691406 -1.11523438 17.97070312 C-1.69208984 16.90400391 -2.26894531 15.83730469 -2.86328125 14.73828125 C-3.39219971 13.75899658 -3.92111816 12.77971191 -4.46606445 11.77075195 C-5.49644607 9.90957083 -6.57448526 8.0740591 -7.69604492 6.26635742 C-9 4 -9 4 -9 2 Z " fill="#171317" transform="translate(294,192)"/>
<path d="M0 0 C2.0625 1.75 2.0625 1.75 4 4 C3.67 5.32 3.34 6.64 3 8 C-8.88 8 -20.76 8 -33 8 C-33 7.67 -33 7.34 -33 7 C-24.09 6.67 -15.18 6.34 -6 6 C-5.67 5.01 -5.34 4.02 -5 3 C-2.4375 1.3125 -2.4375 1.3125 0 0 Z " fill="#231F24" transform="translate(326,306)"/>
<path d="M0 0 C1.32 0 2.64 0 4 0 C4 0.66 4 1.32 4 2 C4.66 2 5.32 2 6 2 C6 2.66 6 3.32 6 4 C6.66 4 7.32 4 8 4 C8.33 3.01 8.66 2.02 9 1 C9.66 1.99 10.32 2.98 11 4 C13.98326091 4.51168511 13.98326091 4.51168511 17.375 4.5625 C21.55872762 4.71832733 24.33754376 5.00703242 28 7 C24.22931168 7.086985 20.45888068 7.14038579 16.6875 7.1875 C15.61564453 7.21263672 14.54378906 7.23777344 13.43945312 7.26367188 C12.41142578 7.27333984 11.38339844 7.28300781 10.32421875 7.29296875 C9.37635498 7.3086792 8.42849121 7.32438965 7.4519043 7.34057617 C4.55782727 6.93858101 3.75164674 6.28351352 2 4 C0.8125 1.8125 0.8125 1.8125 0 0 Z " fill="#231D23" transform="translate(325,144)"/>
<path d="M0 0 C2.475 0.495 2.475 0.495 5 1 C5 1.66 5 2.32 5 3 C6.65 3.33 8.3 3.66 10 4 C10.33 3.34 10.66 2.68 11 2 C11 2.99 11 3.98 11 5 C10.34 5 9.68 5 9 5 C9 5.66 9 6.32 9 7 C9.66 7.33 10.32 7.66 11 8 C10.67 9.32 10.34 10.64 10 12 C9.34 12 8.68 12 8 12 C7.67 12.66 7.34 13.32 7 14 C4.69 9.38 2.38 4.76 0 0 Z " fill="#0F0E11" transform="translate(332,280)"/>
<path d="M0 0 C0.99 0.495 0.99 0.495 2 1 C2 1.66 2 2.32 2 3 C2.66 3 3.32 3 4 3 C4.33 2.01 4.66 1.02 5 0 C5.99 0 6.98 0 8 0 C9.2063366 5.22745859 8.75612577 9.76528314 8 15 C5.84821844 12.23612808 4.01629579 9.43466931 2.3125 6.375 C1.87550781 5.59898437 1.43851562 4.82296875 0.98828125 4.0234375 C0 2 0 2 0 0 Z M5 2 C6 4 6 4 6 4 Z " fill="#151516" transform="translate(396,264)"/>
<path d="M0 0 C0.33 0.66 0.66 1.32 1 2 C2.94603274 2.59070014 2.94603274 2.59070014 5 3 C5.66 3.33 6.32 3.66 7 4 C8.59262066 4.15175549 10.19064856 4.24900325 11.7890625 4.31640625 C12.73007813 4.35830078 13.67109375 4.40019531 14.640625 4.44335938 C15.62546875 4.48267578 16.6103125 4.52199219 17.625 4.5625 C18.61757812 4.60568359 19.61015625 4.64886719 20.6328125 4.69335938 C23.08839838 4.79961069 25.54408703 4.90164964 28 5 C28 5.33 28 5.66 28 6 C18.43 6 8.86 6 -1 6 C-1 2 -1 2 0 0 Z " fill="#292528" transform="translate(148,308)"/>
<path d="M0 0 C2.09350689 3.4019487 2.17942163 6.05272412 2 10 C1.34 9.67 0.68 9.34 0 9 C-1.34187818 9.6492959 -2.67479497 10.31731862 -4 11 C-4.99 11 -5.98 11 -7 11 C-3.57894737 1.78947368 -3.57894737 1.78947368 0 0 Z " fill="#131012" transform="translate(221,188)"/>
<path d="M0 0 C0.99 0 1.98 0 3 0 C3.66 0.66 4.32 1.32 5 2 C4.5 4.875 4.5 4.875 3 8 C0.31689039 9.18275852 -2.0681289 9.52711756 -5 10 C-3.86059291 6.14354522 -2.82205934 2.93494171 0 0 Z " fill="#141013" transform="translate(154,298)"/>
<path d="M0 0 C0.33 0.66 0.66 1.32 1 2 C-0.43359375 4.6015625 -0.43359375 4.6015625 -2.4375 7.625 C-3.09621094 8.62789062 -3.75492188 9.63078125 -4.43359375 10.6640625 C-4.95050781 11.43492187 -5.46742188 12.20578125 -6 13 C-6.33 11.68 -6.66 10.36 -7 9 C-6.01 8.67 -5.02 8.34 -4 8 C-4.66 7.67 -5.32 7.34 -6 7 C-6 6.34 -6 5.68 -6 5 C-6.66 4.67 -7.32 4.34 -8 4 C-8 3.01 -8 2.02 -8 1 C-7.01 1.33 -6.02 1.66 -5 2 C-2.3430809 1.12085312 -2.3430809 1.12085312 0 0 Z " fill="#121118" transform="translate(236,215)"/>
<path d="M0 0 C7 8.44827586 7 8.44827586 7 12 C5.35 11.67 3.7 11.34 2 11 C1.67 9.35 1.34 7.7 1 6 C0.34 6 -0.32 6 -1 6 C-0.67 4.02 -0.34 2.04 0 0 Z " fill="#161417" transform="translate(242,164)"/>
<path d="M0 0 C4 4.625 4 4.625 4 8 C2.02 8.33 0.04 8.66 -2 9 C-2.66 7.35 -3.32 5.7 -4 4 C-2.68 2.68 -1.36 1.36 0 0 Z " fill="#191218" transform="translate(356,142)"/>
<path d="M0 0 C0.99 0 1.98 0 3 0 C4.0625 2.375 4.0625 2.375 5 5 C4.67 5.66 4.34 6.32 4 7 C2.88625 6.9071875 2.88625 6.9071875 1.75 6.8125 C-1.45383006 7.03094296 -2.64031256 7.90250005 -5 10 C-3.66786942 6.4134946 -2.23083941 3.12317517 0 0 Z " fill="#1C181B" transform="translate(237,159)"/>
<path d="M0 0 C8 9.42857143 8 9.42857143 8 14 C3.99352249 12.6645075 3.24255364 10.47234113 1 7 C0.34 6.67 -0.32 6.34 -1 6 C-1.625 3.9375 -1.625 3.9375 -2 2 C-1.34 2 -0.68 2 0 2 C0 1.34 0 0.68 0 0 Z " fill="#141116" transform="translate(307,57)"/>
<path d="M0 0 C0.33 0.66 0.66 1.32 1 2 C0.0625 4.625 0.0625 4.625 -1 7 C-0.34 7 0.32 7 1 7 C0.67 8.32 0.34 9.64 0 11 C-1.32 10.67 -2.64 10.34 -4 10 C-5.32 12.31 -6.64 14.62 -8 17 C-8.33 16.01 -8.66 15.02 -9 14 C-7.60050651 11.49026115 -6.17371593 9.17830602 -4.5625 6.8125 C-4.12873047 6.15830078 -3.69496094 5.50410156 -3.24804688 4.83007812 C-2.17454017 3.21391967 -1.0884403 1.60613901 0 0 Z " fill="#262225" transform="translate(164,281)"/>
<path d="M0 0 C2.1519437 3.22791555 2.20086443 4.28400809 2 8 C0.576875 8.433125 0.576875 8.433125 -0.875 8.875 C-4.05211578 9.76825109 -4.05211578 9.76825109 -6 12 C-5.36934243 8.78147169 -4.21979305 6.49198931 -2.4375 3.75 C-1.98246094 3.04359375 -1.52742187 2.3371875 -1.05859375 1.609375 C-0.53458984 0.81273437 -0.53458984 0.81273437 0 0 Z " fill="#181417" transform="translate(185,246)"/>
<path d="M0 0 C0 0.66 0 1.32 0 2 C-0.66 2 -1.32 2 -2 2 C-2 2.99 -2 3.98 -2 5 C-2.66 5 -3.32 5 -4 5 C-4.33 5.66 -4.66 6.32 -5 7 C-8 2.25 -8 2.25 -8 0 C-4.94736336 -0.98120464 -3.05263664 -0.98120464 0 0 Z " fill="#110F11" transform="translate(311,107)"/>
<path d="M0 0 C-1.33488128 3.59391114 -2.96022723 6.75490696 -5 10 C-5.99 9.67 -6.98 9.34 -8 9 C-8 7.68 -8 6.36 -8 5 C-7.34 5 -6.68 5 -6 5 C-6 4.34 -6 3.68 -6 3 C-2.53846154 0 -2.53846154 0 0 0 Z " fill="#131116" transform="translate(214,253)"/>
<path d="M0 0 C0.68707555 2.49064888 1 4.37886292 1 7 C0.01 8.485 0.01 8.485 -1 10 C-3.0625 7.1875 -3.0625 7.1875 -5 4 C-4.67 3.01 -4.34 2.02 -4 1 C-1.9375 0.3125 -1.9375 0.3125 0 0 Z " fill="#171517" transform="translate(325,133)"/>
<path d="M0 0 C1.32 0.33 2.64 0.66 4 1 C2.43358249 5.30764815 0.31663844 9.06171464 -2 13 C-3.2818632 10.4362736 -3.27122178 8.84782869 -3 6 C-1.5 3.8125 -1.5 3.8125 0 2 C0 1.34 0 0.68 0 0 Z " fill="#1F1B1F" transform="translate(200,269)"/>
<path d="M0 0 C2.97246802 2.54782974 4.41535288 5.45340883 6 9 C6 9.66 6 10.32 6 11 C5.01 10.67 4.02 10.34 3 10 C3 9.34 3 8.68 3 8 C2.01 7.67 1.02 7.34 0 7 C-1.1875 4.4375 -1.1875 4.4375 -2 2 C-1.34 1.34 -0.68 0.68 0 0 Z " fill="#151215" transform="translate(418,246)"/>
<path d="M0 0 C2.61500768 2.36595933 4.38999603 4.86049226 6 8 C5.67 8.66 5.34 9.32 5 10 C3.68 9.67 2.36 9.34 1 9 C1 8.34 1 7.68 1 7 C0.34 7 -0.32 7 -1 7 C-1.33 5.68 -1.66 4.36 -2 3 C-1.34 2.67 -0.68 2.34 0 2 C0 1.34 0 0.68 0 0 Z " fill="#161517" transform="translate(262,198)"/>
<path d="M0 0 C1.485 0.99 1.485 0.99 3 2 C3.99 1.67 4.98 1.34 6 1 C6.66 1.33 7.32 1.66 8 2 C7.34 3.98 6.68 5.96 6 8 C5.01 8 4.02 8 3 8 C0 2.25 0 2.25 0 0 Z " fill="#171517" transform="translate(262,152)"/>
<path d="M0 0 C2.375 1.0625 2.375 1.0625 5 3 C6.1875 6.3125 6.1875 6.3125 7 10 C7.65572791 12.00361307 8.31875294 14.00491933 9 16 C6.18368359 13.50506504 4.59044019 10.73437182 2.8125 7.4375 C2.28269531 6.46683594 1.75289062 5.49617187 1.20703125 4.49609375 C0 2 0 2 0 0 Z " fill="#282426" transform="translate(252,134)"/>
<path d="M0 0 C2.49124265 2.16629796 3.59924482 3.69376977 4 7 C3.75 9.1875 3.75 9.1875 3 11 C2.01 11.33 1.02 11.66 0 12 C-0.19573608 10.56359829 -0.38127816 9.12580496 -0.5625 7.6875 C-0.66691406 6.88699219 -0.77132813 6.08648437 -0.87890625 5.26171875 C-1 3 -1 3 0 0 Z " fill="#100D10" transform="translate(320,195)"/>
<path d="M0 0 C0.12375 0.639375 0.2475 1.27875 0.375 1.9375 C0.684375 2.9584375 0.684375 2.9584375 1 4 C1.66 4.33 2.32 4.66 3 5 C2.34 5.66 1.68 6.32 1 7 C0.34 6.67 -0.32 6.34 -1 6 C-1.28875 6.804375 -1.5775 7.60875 -1.875 8.4375 C-3 11 -3 11 -5 12 C-4.42365861 7.24518354 -2.44931479 4.02951788 0 0 Z " fill="#1D181A" transform="translate(256,121)"/>
<path d="M0 0 C0.66 0 1.32 0 2 0 C2.66 2.31 3.32 4.62 4 7 C3.34 7.66 2.68 8.32 2 9 C2 9.99 2 10.98 2 12 C0 11 0 11 -1 9 C-0.0625 6.375 -0.0625 6.375 1 4 C0.34 3.67 -0.32 3.34 -1 3 C-0.67 2.01 -0.34 1.02 0 0 Z " fill="#19181B" transform="translate(275,220)"/>
<path d="M0 0 C1.134375 0.020625 2.26875 0.04125 3.4375 0.0625 C2.2516763 3.43753669 1.16176311 5.70972731 -1.5625 8.0625 C-1.8925 7.4025 -2.2225 6.7425 -2.5625 6.0625 C-1.9025 6.0625 -1.2425 6.0625 -0.5625 6.0625 C-1.8825 4.4125 -3.2025 2.7625 -4.5625 1.0625 C-3.5625 0.0625 -3.5625 0.0625 0 0 Z " fill="#121114" transform="translate(182.5625,299.9375)"/>
<path d="M0 0 C2 2 2 2 2.1953125 4.1640625 C2.17210937 4.97617188 2.14890625 5.78828125 2.125 6.625 C2.10695313 7.44226563 2.08890625 8.25953125 2.0703125 9.1015625 C2.03550781 10.04128906 2.03550781 10.04128906 2 11 C-1.86107457 8.42595029 -1.94319692 6.38979741 -3 2 C-2.34 2 -1.68 2 -1 2 C-0.67 1.34 -0.34 0.68 0 0 Z " fill="#1B181B" transform="translate(307,226)"/>
<path d="M0 0 C2.74277578 3.19990508 4.6302836 6.00499382 6 10 C4.35 9.67 2.7 9.34 1 9 C1 8.01 1 7.02 1 6 C0.34 6 -0.32 6 -1 6 C-0.67 4.02 -0.34 2.04 0 0 Z " fill="#100E11" transform="translate(324,202)"/>
<path d="M0 0 C3.29078593 2.79716804 5.06305458 6.19528578 7 10 C6.67 10.66 6.34 11.32 6 12 C5.34 12 4.68 12 4 12 C1.09891706 8.17057052 0.46319911 4.72463088 0 0 Z " fill="#161318" transform="translate(284,235)"/>
<path d="M0 0 C2.31 0.33 4.62 0.66 7 1 C7 1.66 7 2.32 7 3 C6.34 3 5.68 3 5 3 C5 3.66 5 4.32 5 5 C5.99 5.66 6.98 6.32 8 7 C7.01 7.33 6.02 7.66 5 8 C2.20127563 5.47211993 0.54226981 3.79588866 0 0 Z " fill="#131115" transform="translate(286,306)"/>
<path d="M0 0 C0.99 0.99 1.98 1.98 3 3 C2.2575 3.8971875 2.2575 3.8971875 1.5 4.8125 C-0.28276418 6.97029994 -0.28276418 6.97029994 0 10 C-0.99 9.01 -1.98 8.02 -3 7 C-1.125 1.125 -1.125 1.125 0 0 Z " fill="#050203" transform="translate(197,228)"/>
<path d="M0 0 C0.66 0 1.32 0 2 0 C2.66 1.65 3.32 3.3 4 5 C2.68 5 1.36 5 0 5 C-1.7511573 6.4166747 -1.7511573 6.4166747 -3 8 C-3 4.40142046 -2.04169485 2.90548882 0 0 Z " fill="#19141A" transform="translate(300,47)"/>
<path d="M0 0 C0.66 0.66 1.32 1.32 2 2 C1.01 3.98 0.02 5.96 -1 8 C-1.99 8 -2.98 8 -4 8 C-2.87548273 5.0280615 -1.77706209 2.66559313 0 0 Z " fill="#050104" transform="translate(166,280)"/>
<path d="M0 0 C0.66 0 1.32 0 2 0 C3.98 3.63 5.96 7.26 8 11 C7.01 11.495 7.01 11.495 6 12 C2.44992282 8.0949151 1.18180084 5.02265357 0 0 Z " fill="#050204" transform="translate(258,143)"/>
<path d="M0 0 C0.99 0 1.98 0 3 0 C3 0.66 3 1.32 3 2 C2.34 2 1.68 2 1 2 C0.566875 3.2065625 0.566875 3.2065625 0.125 4.4375 C-1 7 -1 7 -3 8 C-3.33 6.68 -3.66 5.36 -4 4 C-2.68 3.67 -1.36 3.34 0 3 C0 2.01 0 1.02 0 0 Z " fill="#1F1E20" transform="translate(298,103)"/>
<path d="M0 0 C2 2 2 2 2.125 5.625 C2.08375 6.73875 2.0425 7.8525 2 9 C0.68 7.68 -0.64 6.36 -2 5 C-1.34 3.35 -0.68 1.7 0 0 Z " fill="#1A171A" transform="translate(282,77)"/>
<path d="M0 0 C0.99 0.33 1.98 0.66 3 1 C2.1875 3.4375 2.1875 3.4375 1 6 C0.01 6.33 -0.98 6.66 -2 7 C-2.66 6.34 -3.32 5.68 -4 5 C-3.01 4.34 -2.02 3.68 -1 3 C-0.67 2.01 -0.34 1.02 0 0 Z " fill="#150E14" transform="translate(178,307)"/>
<path d="M0 0 C0.33 0.66 0.66 1.32 1 2 C-0.32 3.65 -1.64 5.3 -3 7 C-3.66 6.34 -4.32 5.68 -5 5 C-4.625 2.875 -4.625 2.875 -4 1 C-2.68 0.67 -1.36 0.34 0 0 Z " fill="#111016" transform="translate(207,263)"/>
<path d="M0 0 C0.33 0.66 0.66 1.32 1 2 C1.66 2.33 2.32 2.66 3 3 C1 6 1 6 -1.125 6.6875 C-1.74375 6.790625 -2.3625 6.89375 -3 7 C-1.125 1.125 -1.125 1.125 0 0 Z " fill="#1B1819" transform="translate(231,169)"/>
<path d="M0 0 C1.26041675 2.5208335 0.66225891 3.35096436 0 6 C0.33 6.66 0.66 7.32 1 8 C-0.98 8.66 -2.96 9.32 -5 10 C-3.66511872 6.40608886 -2.03977277 3.24509304 0 0 Z " fill="#272327" transform="translate(276,87)"/>
<path d="M0 0 C2.15377564 2.62198774 3.40072174 4.64404172 4 8 C2.35 7.01 0.7 6.02 -1 5 C-0.67 3.35 -0.34 1.7 0 0 Z " fill="#191319" transform="translate(443,292)"/>
<path d="M0 0 C0.99 0.33 1.98 0.66 3 1 C3 2.32 3 3.64 3 5 C1.35 5 -0.3 5 -2 5 C-1.34 3.35 -0.68 1.7 0 0 Z M3 0 C5 1 5 1 5 1 Z " fill="#171315" transform="translate(170,271)"/>
<path d="M0 0 C4 4.75 4 4.75 4 7 C3.01 7.33 2.02 7.66 1 8 C0.26919734 6.02253397 -0.39421747 4.01927511 -1 2 C-0.67 1.34 -0.34 0.68 0 0 Z " fill="#141215" transform="translate(252,181)"/>
<path d="M0 0 C0.625 1.8125 0.625 1.8125 1 4 C0.01 5.485 0.01 5.485 -1 7 C-1.66 7 -2.32 7 -3 7 C-3.33 7.99 -3.66 8.98 -4 10 C-4.33 9.34 -4.66 8.68 -5 8 C-4.00390625 6.0546875 -4.00390625 6.0546875 -2.5625 3.875 C-2.08941406 3.15054688 -1.61632812 2.42609375 -1.12890625 1.6796875 C-0.75636719 1.12539063 -0.38382812 0.57109375 0 0 Z " fill="#241F22" transform="translate(294,57)"/>
<path d="M0 0 C1.32 0.99 2.64 1.98 4 3 C4 2.01 4 1.02 4 0 C4.66 0.33 5.32 0.66 6 1 C6 2.32 6 3.64 6 5 C4.68 5.33 3.36 5.66 2 6 C0 3 0 3 0 0 Z " fill="#111012" transform="translate(257,250)"/>
<path d="M0 0 C0.6875 1.75 0.6875 1.75 1 4 C-0.3125 6.25 -0.3125 6.25 -2 8 C-2.66 8 -3.32 8 -4 8 C-2.87548273 5.0280615 -1.77706209 2.66559313 0 0 Z " fill="#20191C" transform="translate(190,238)"/>
<path d="M0 0 C0.5534764 2.07553648 1 3.84365964 1 6 C-0.65 6.66 -2.3 7.32 -4 8 C-2.87548273 5.0280615 -1.77706209 2.66559313 0 0 Z " fill="#1D1A1D" transform="translate(227,176)"/>
<path d="M0 0 C0.99 0.99 1.98 1.98 3 3 C2.34 4.32 1.68 5.64 1 7 C0.01 6.01 -0.98 5.02 -2 4 C-1.34 2.68 -0.68 1.36 0 0 Z " fill="#161417" transform="translate(291,247)"/>
<path d="M0 0 C0.33 0 0.66 0 1 0 C0.67 2.31 0.34 4.62 0 7 C-0.99 7 -1.98 7 -3 7 C-1.125 1.125 -1.125 1.125 0 0 Z " fill="#252223" transform="translate(267,102)"/>
<path d="" fill="#FFFFFF" transform="translate(0,0)"/>
<path d="" fill="#FFFFFF" transform="translate(0,0)"/>
<path d="" fill="#FFFFFF" transform="translate(0,0)"/>
<path d="" fill="#FFFFFF" transform="translate(0,0)"/>
<path d="" fill="#FFFFFF" transform="translate(0,0)"/>
<path d="" fill="#FFFFFF" transform="translate(0,0)"/>
<path d="" fill="#FFFFFF" transform="translate(0,0)"/>
<path d="" fill="#FFFFFF" transform="translate(0,0)"/>
<path d="" fill="#FFFFFF" transform="translate(0,0)"/>
<path d="" fill="#FFFFFF" transform="translate(0,0)"/>
<path d="" fill="#FFFFFF" transform="translate(0,0)"/>
<path d="" fill="#FFFFFF" transform="translate(0,0)"/>
<path d="" fill="#FFFFFF" transform="translate(0,0)"/>
<path d="" fill="#FFFFFF" transform="translate(0,0)"/>
<path d="" fill="#FFFFFF" transform="translate(0,0)"/>
<path d="" fill="#FFFFFF" transform="translate(0,0)"/>
<path d="" fill="#FFFFFF" transform="translate(0,0)"/>
<path d="" fill="#FFFFFF" transform="translate(0,0)"/>
<path d="" fill="#FFFFFF" transform="translate(0,0)"/>
<path d="" fill="#FFFFFF" transform="translate(0,0)"/>
<path d="" fill="#FFFFFF" transform="translate(0,0)"/>
<path d="" fill="#FFFFFF" transform="translate(0,0)"/>
<path d="" fill="#FFFFFF" transform="translate(0,0)"/>
<path d="" fill="#FFFFFF" transform="translate(0,0)"/>
<path d="" fill="#FFFFFF" transform="translate(0,0)"/>
<path d="" fill="#FFFFFF" transform="translate(0,0)"/>
<path d="" fill="#FFFFFF" transform="translate(0,0)"/>
<path d="" fill="#FFFFFF" transform="translate(0,0)"/>
<path d="" fill="#FFFFFF" transform="translate(0,0)"/>
<path d="" fill="#FFFFFF" transform="translate(0,0)"/>
<path d="" fill="#FFFFFF" transform="translate(0,0)"/>
<path d="" fill="#FFFFFF" transform="translate(0,0)"/>
<path d="" fill="#FFFFFF" transform="translate(0,0)"/>
<path d="" fill="#FFFFFF" transform="translate(0,0)"/>
<path d="" fill="#FFFFFF" transform="translate(0,0)"/>
<path d="" fill="#FFFFFF" transform="translate(0,0)"/>
<path d="" fill="#FFFFFF" transform="translate(0,0)"/>
<path d="" fill="#FFFFFF" transform="translate(0,0)"/>
<path d="" fill="#FFFFFF" transform="translate(0,0)"/>
<path d="" fill="#FFFFFF" transform="translate(0,0)"/>
<path d="" fill="#FFFFFF" transform="translate(0,0)"/>
<path d="" fill="#FFFFFF" transform="translate(0,0)"/>
<path d="" fill="#FFFFFF" transform="translate(0,0)"/>
<path d="" fill="#FFFFFF" transform="translate(0,0)"/>
<path d="" fill="#FFFFFF" transform="translate(0,0)"/>
<path d="" fill="#FFFFFF" transform="translate(0,0)"/>
<path d="" fill="#FFFFFF" transform="translate(0,0)"/>
<path d="" fill="#FFFFFF" transform="translate(0,0)"/>
<path d="" fill="#FFFFFF" transform="translate(0,0)"/>
<path d="" fill="#FFFFFF" transform="translate(0,0)"/>
<path d="" fill="#FFFFFF" transform="translate(0,0)"/>
<path d="" fill="#FFFFFF" transform="translate(0,0)"/>
<path d="" fill="#FFFFFF" transform="translate(0,0)"/>
<path d="" fill="#FFFFFF" transform="translate(0,0)"/>
<path d="" fill="#FFFFFF" transform="translate(0,0)"/>
<path d="" fill="#FFFFFF" transform="translate(0,0)"/>
<path d="" fill="#FFFFFF" transform="translate(0,0)"/>
<path d="" fill="#FFFFFF" transform="translate(0,0)"/>
<path d="" fill="#FFFFFF" transform="translate(0,0)"/>
<path d="" fill="#FFFFFF" transform="translate(0,0)"/>
<path d="" fill="#FFFFFF" transform="translate(0,0)"/>
<path d="" fill="#FFFFFF" transform="translate(0,0)"/>
<path d="" fill="#FFFFFF" transform="translate(0,0)"/>
<path d="" fill="#FFFFFF" transform="translate(0,0)"/>
<path d="" fill="#FFFFFF" transform="translate(0,0)"/>
<path d="" fill="#FFFFFF" transform="translate(0,0)"/>
<path d="" fill="#FFFFFF" transform="translate(0,0)"/>
<path d="" fill="#FFFFFF" transform="translate(0,0)"/>
<path d="" fill="#FFFFFF" transform="translate(0,0)"/>
</svg>
