<?xml version="1.0" encoding="UTF-8"?>
<svg version="1.1" xmlns="http://www.w3.org/2000/svg" width="512" height="512">
<path d="M0 0 C1.19533222 -0.00724325 1.19533222 -0.00724325 2.41481256 -0.01463282 C5.088194 -0.02591511 7.7606213 -0.00857647 10.43395996 0.00863647 C12.34922037 0.00649089 14.26447951 0.0026136 16.17973328 -0.00286865 C21.38427239 -0.01257268 26.58846913 0.00275461 31.79296684 0.02303743 C37.23502089 0.04058814 42.67706405 0.03708374 48.11914062 0.03631592 C57.25880674 0.03818974 66.39834016 0.05556466 75.53796387 0.08285522 C86.11031069 0.11430687 96.68251214 0.12485145 107.25490236 0.12338412 C117.41785484 0.12216401 127.58075989 0.13237077 137.74369812 0.14896774 C142.07216258 0.15603535 146.40061025 0.15969452 150.7290802 0.16075516 C155.82457627 0.16276217 160.91994996 0.17495663 166.01540565 0.19508743 C167.88751285 0.20093606 169.75963413 0.20338844 171.63175011 0.20223236 C174.18326032 0.20125287 176.73442635 0.21254314 179.28588867 0.22705078 C180.03024374 0.22395358 180.77459882 0.22085637 181.54151011 0.21766531 C185.23338787 0.25243449 188.00586549 0.45022166 191.14294434 2.49447632 C191.14294434 3.48447632 191.14294434 4.47447632 191.14294434 5.49447632 C194.44294434 5.49447632 197.74294434 5.49447632 201.14294434 5.49447632 C201.47294434 4.17447632 201.80294434 2.85447632 202.14294434 1.49447632 C204.39294434 0.80697632 204.39294434 0.80697632 207.14294434 0.49447632 C209.45544434 1.80697632 209.45544434 1.80697632 211.14294434 3.49447632 C211.14294434 4.15447632 211.14294434 4.81447632 211.14294434 5.49447632 C214.44294434 5.49447632 217.74294434 5.49447632 221.14294434 5.49447632 C221.47294434 4.17447632 221.80294434 2.85447632 222.14294434 1.49447632 C224.86545287 0.58697347 226.47482527 0.36388913 229.2755127 0.34921265 C230.10324692 0.34283279 230.93098114 0.33645294 231.78379822 0.32987976 C232.67446487 0.32876694 233.56513153 0.32765411 234.48278809 0.32650757 C235.86054161 0.32151497 235.86054161 0.32151497 237.26612854 0.31642151 C239.20870462 0.31135904 241.1512894 0.30901297 243.09387207 0.30917358 C246.06545332 0.30698735 249.03666317 0.28882516 252.00817871 0.26986694 C253.89554723 0.26693284 255.78291752 0.26494816 257.67028809 0.26400757 C259.00325172 0.25322929 259.00325172 0.25322929 260.36314392 0.24223328 C261.1940303 0.24530991 262.02491669 0.24838654 262.88098145 0.2515564 C263.60917587 0.25013138 264.3373703 0.24870636 265.08763123 0.24723816 C267.52204539 0.54007922 269.09079983 1.15505851 271.14294434 2.49447632 C272.16211937 5.55200141 272.27350931 7.63149576 272.28338623 10.83282471 C272.28909637 11.94039124 272.29480652 13.04795776 272.3006897 14.18908691 C272.30180756 15.40474335 272.30292542 16.62039978 272.30407715 17.87289429 C272.30904205 19.15277222 272.31400696 20.43265015 272.31912231 21.75131226 C272.33223799 25.26375449 272.33868953 28.77617761 272.34313297 32.2886405 C272.34606477 34.48324306 272.35016976 36.6778404 272.35463715 38.87244034 C272.36830928 45.73939072 272.37797758 52.60632918 272.38183904 59.47329223 C272.38632062 67.39935822 272.40387424 75.32525183 272.43283963 83.25126541 C272.45445493 89.37874546 272.46454322 95.506177 272.46588016 101.63369477 C272.46692821 105.29308393 272.47283601 108.95231099 272.49069977 112.61166 C272.51023935 116.69363624 272.50589213 120.77525148 272.49938965 124.85726929 C272.50860443 126.06887726 272.51781921 127.28048523 272.52731323 128.52880859 C272.5189595 130.19861786 272.5189595 130.19861786 272.51043701 131.90216064 C272.51190357 132.86706861 272.51337013 133.83197659 272.51488113 134.82612419 C272.06942673 138.02190692 271.0582824 139.9157882 269.14294434 142.49447632 C266.75231934 143.12266541 266.75231934 143.12266541 263.89294434 143.12557983 C262.8217334 143.13811295 261.75052246 143.15064606 260.64685059 143.16355896 C259.49056152 143.15030075 258.33427246 143.13704254 257.14294434 143.12338257 C255.95571777 143.12579453 254.76849121 143.12820648 253.54528809 143.13069153 C251.03353538 143.12971141 248.52176152 143.11627889 246.01013184 143.09140015 C242.15782546 143.05710878 238.30781309 143.0707305 234.45544434 143.09017944 C232.01793453 143.0832811 229.58043068 143.07360882 227.14294434 143.06088257 C225.98665527 143.06584244 224.83036621 143.07080231 223.63903809 143.07591248 C222.56782715 143.06007614 221.49661621 143.04423981 220.39294434 143.02792358 C219.44935059 143.02172501 218.50575684 143.01552643 217.53356934 143.00914001 C215.14294434 142.49447632 215.14294434 142.49447632 213.3380127 140.69111633 C211.28786122 136.92275887 211.70738143 132.70766868 211.70349121 128.51400757 C211.56293456 123.36672607 210.42218895 120.44729551 207.14294434 116.49447632 C201.68824162 113.24263432 198.12692155 113.0467399 192.14294434 114.49447632 C188.61812534 116.71664482 186.62923744 118.62622003 185.14294434 122.49447632 C184.80816712 126.28720552 184.70149138 130.06038362 184.58435059 133.86557007 C184.09749945 137.8680896 183.86991263 139.53068078 181.14294434 142.49447632 C177.69743957 143.22108494 174.29448929 143.07410972 170.78747559 142.98275757 C169.77070236 142.97568283 168.75392914 142.96860809 167.7063446 142.96131897 C164.4552995 142.9333055 161.2059698 142.87055217 157.95544434 142.80697632 C155.75299523 142.78190253 153.55051916 142.75908777 151.34802246 142.73861694 C145.94574338 142.68345642 140.54446638 142.59976123 135.14294434 142.49447632 C135.1638916 143.78136353 135.18483887 145.06825073 135.2064209 146.39413452 C135.27875393 151.16306455 135.32471978 155.93194599 135.3626709 160.70126343 C135.38280164 162.7664505 135.41010878 164.83158048 135.44470215 166.89657593 C135.49315595 169.86294633 135.51589819 172.82856404 135.53356934 175.79525757 C135.55421448 176.72034622 135.57485962 177.64543488 135.59613037 178.59855652 C135.5983655 184.96581599 135.5983655 184.96581599 133.34851074 187.57748413 C129.449121 189.19870484 125.31980863 188.93007292 121.16247559 188.93392944 C116.01186388 189.07457703 113.11931533 190.24918699 109.14294434 193.49447632 C106.01318036 197.83576183 105.75423961 201.260447 106.58044434 206.38119507 C107.447986 209.64050089 108.59956584 211.27717199 111.14294434 213.49447632 C117.35103319 216.71348535 123.23327055 216.94092253 130.16638184 217.18588257 C133.14294434 217.49447632 133.14294434 217.49447632 135.14294434 219.49447632 C135.40364075 221.69564819 135.40364075 221.69564819 135.41760254 224.46322632 C135.42713455 225.49769897 135.43666656 226.53217163 135.44648743 227.59799194 C135.44512032 229.27925171 135.44512032 229.27925171 135.44372559 230.99447632 C135.44801071 232.14109741 135.45229584 233.28771851 135.45671082 234.46908569 C135.46246172 236.89681334 135.46294881 239.32455822 135.45861816 241.75228882 C135.45545734 245.47914826 135.47891197 249.20521508 135.50427246 252.93197632 C135.50654517 255.28614198 135.50724908 257.64030978 135.50622559 259.99447632 C135.51543533 261.11531616 135.52464508 262.23615601 135.53413391 263.39096069 C135.52790512 264.42543335 135.52167633 265.45990601 135.51525879 266.52572632 C135.51588821 267.4390271 135.51651764 268.35232788 135.51716614 269.29330444 C135.39367294 270.01969116 135.27017975 270.74607788 135.14294434 271.49447632 C131.71695342 273.77847026 130.4782791 273.74883142 126.44946289 273.76190186 C124.67018654 273.77469681 124.67018654 273.77469681 122.85496521 273.78775024 C121.55201004 273.78684387 120.24905487 273.7859375 118.90661621 273.78500366 C117.52189267 273.79098731 116.13717246 273.79779248 114.75245667 273.80535889 C110.99013837 273.82304007 107.22791102 273.82771507 103.46555519 273.82899046 C100.32670805 273.83088849 97.18788215 273.83824469 94.04904318 273.84533465 C86.64592508 273.86162328 79.24285564 273.86650307 71.83972168 273.86508179 C64.19666005 273.86387933 56.55388035 273.88500053 48.9108901 273.91656911 C42.35286168 273.94269354 35.79492558 273.95345074 29.23684549 273.95217097 C25.31815082 273.95166032 21.39970679 273.95740022 17.48106384 273.97852707 C13.79721468 273.99784597 10.11385694 273.99807816 6.42999077 273.9834938 C4.43027757 273.9803952 2.43056467 273.9971253 0.43092346 274.01437378 C-1.34835289 274.00179031 -1.34835289 274.00179031 -3.16357422 273.98895264 C-4.19669487 273.99004217 -5.22981552 273.99113171 -6.29424286 273.99225426 C-8.85705566 273.49447632 -8.85705566 273.49447632 -10.68950939 271.91234875 C-12.28869623 268.60059156 -12.23175275 265.99094031 -12.23127747 262.31404114 C-12.23525187 261.58995137 -12.23922628 260.8658616 -12.24332112 260.11982971 C-12.25294735 257.69299864 -12.24112443 255.26675005 -12.22937012 252.8399353 C-12.23179796 251.10039045 -12.2355172 249.36084698 -12.24043274 247.62130737 C-12.24984573 242.8962125 -12.24041324 238.17132462 -12.22710061 233.44624591 C-12.21579442 228.50554032 -12.21989293 223.56484505 -12.22184753 218.62413025 C-12.22273069 210.32770399 -12.21164491 202.0313594 -12.1932373 193.73495483 C-12.17206239 184.13620426 -12.16856116 174.5375733 -12.17479926 164.93880409 C-12.18048891 155.71237635 -12.17485243 146.48599082 -12.16362572 137.25956917 C-12.15897514 133.32939945 -12.15810785 129.39925551 -12.16021156 125.46908379 C-12.16209174 120.84389962 -12.15401144 116.21883764 -12.13815117 111.59368134 C-12.13389978 109.89369525 -12.13306348 108.19369679 -12.13584137 106.49370766 C-12.13905155 104.17831252 -12.1300111 101.86328516 -12.11775208 99.54792786 C-12.11569921 98.25062964 -12.11364634 96.95333143 -12.11153126 95.61672115 C-11.85705566 92.49447632 -11.85705566 92.49447632 -9.85705566 89.49447632 C-8.86705566 89.49447632 -7.87705566 89.49447632 -6.85705566 89.49447632 C-6.85705566 86.19447632 -6.85705566 82.89447632 -6.85705566 79.49447632 C-8.17705566 79.16447632 -9.49705566 78.83447632 -10.85705566 78.49447632 C-11.48205566 75.68197632 -11.48205566 75.68197632 -11.85705566 72.49447632 C-11.19705566 71.50447632 -10.53705566 70.51447632 -9.85705566 69.49447632 C-8.86705566 69.49447632 -7.87705566 69.49447632 -6.85705566 69.49447632 C-6.85705566 66.19447632 -6.85705566 62.89447632 -6.85705566 59.49447632 C-8.17705566 59.16447632 -9.49705566 58.83447632 -10.85705566 58.49447632 C-12.09577998 56.01702769 -12.00398527 54.32901196 -12.03405762 51.5574646 C-12.04689285 50.52944733 -12.05972809 49.50143005 -12.07295227 48.44226074 C-12.0803392 47.32769501 -12.08772614 46.21312927 -12.09533691 45.06478882 C-12.10340866 43.92291107 -12.11148041 42.78103333 -12.11979675 41.60455322 C-12.13364443 39.18522667 -12.14436351 36.76588052 -12.15222168 34.3465271 C-12.16945294 30.6415626 -12.21333651 26.93748594 -12.25744629 23.23275757 C-12.26757125 20.8851079 -12.27608797 18.53745062 -12.28283691 16.18978882 C-12.300345 15.07927155 -12.31785309 13.96875427 -12.33589172 12.82458496 C-12.33296616 11.79026337 -12.33004059 10.75594177 -12.32702637 9.6902771 C-12.33289261 8.78141754 -12.33875885 7.87255798 -12.34480286 6.93615723 C-11.00716063 0.23986963 -5.87103443 -0.08113879 0 0 Z " fill="#020302" transform="translate(55.8570556640625,46.505523681640625)"/>
<path d="M0 0 C4.68825412 4.13162194 8.98730776 8.6706735 10 15 C10.03418257 16.89815832 10.0424337 18.79687936 10.03125 20.6953125 C10.02673828 21.68805176 10.02222656 22.68079102 10.01757812 23.70361328 C10.00887695 24.84032471 10.00887695 24.84032471 10 26 C10.55710159 25.99555878 11.11420319 25.99111755 11.68818665 25.98654175 C17.47919147 25.94234265 23.27014849 25.91214786 29.0612793 25.89013672 C31.22340847 25.88007049 33.385524 25.86641646 35.54760742 25.84912109 C38.65286625 25.82490022 41.7579453 25.81352319 44.86328125 25.8046875 C45.83211746 25.79436493 46.80095367 25.78404236 47.79914856 25.77340698 C48.6998558 25.77325592 49.60056305 25.77310486 50.52856445 25.77294922 C51.32132278 25.768508 52.11408112 25.76406677 52.93086243 25.75949097 C55 26 55 26 58 28 C59.16434565 31.49303694 58.76745479 32.9099583 57.99926758 36.46850586 C53.94421076 57.23906406 50.20285834 83.5671539 61.57219696 102.63706207 C78.03010646 126.79709082 102.23286776 146.76014481 124.32597351 165.60865784 C125.10428874 166.27703454 125.88260397 166.94541124 126.68450451 167.63404179 C128.13480926 168.87434214 129.59400368 170.10435386 131.06356525 171.32177639 C135.75711977 175.33309753 135.75711977 175.33309753 137.00463867 178.75854492 C137 181 137 181 136 183.3125 C134 185 134 185 130.74595642 184.79112244 C126.05717897 185.05257246 124.18562128 186.81990173 121.06469727 190.02954102 C120.51747513 190.56449692 119.97025299 191.09945282 119.40644836 191.65061951 C117.60846051 193.41788197 115.83719909 195.20942553 114.06640625 197.00390625 C112.8218984 198.24369676 111.57635317 199.48244672 110.32981873 200.72019958 C107.72371717 203.31599032 105.13067266 205.92399564 102.54614258 208.54125977 C99.23512837 211.89215714 95.8936753 215.21064166 92.54179478 218.52060032 C89.96485439 221.07222362 87.40484729 223.64031359 84.84962273 226.21366692 C83.62397681 227.44397635 82.39312622 228.66912373 81.15701485 229.88891792 C79.430328 231.5977871 77.7277316 233.32756814 76.02954102 235.06469727 C75.51689697 235.56317169 75.00425293 236.06164612 74.47607422 236.57522583 C71.75575411 239.41200334 71.01346322 240.75855401 70.79112244 244.74595642 C70.86005203 245.8197908 70.92898163 246.89362518 71 248 C69.3125 250 69.3125 250 67 251 C63.28757955 250.94555496 61.43363435 249.70260931 58.86547852 247.20849609 C57.69390186 245.98909204 56.53224732 244.76010338 55.37890625 243.5234375 C54.10130608 242.20013972 52.82329886 240.87723485 51.54492188 239.5546875 C49.5460279 237.46250688 47.55315958 235.3650936 45.56811523 233.25976562 C43.64520979 231.22830332 41.70129147 229.21890371 39.75390625 227.2109375 C39.16621964 226.57457367 38.57853302 225.93820984 37.97303772 225.28256226 C36.37766333 223.64917258 34.92100969 222.23414852 33 221 C29.84123135 220.85678353 29.84123135 220.85678353 27 222 C26.266604 222.21922119 25.53320801 222.43844238 24.77758789 222.66430664 C24.09946045 222.91043701 23.42133301 223.15656738 22.72265625 223.41015625 C21.58086914 223.81137695 21.58086914 223.81137695 20.41601562 224.22070312 C18.84922265 224.78110792 17.28409955 225.34620392 15.72070312 225.91601562 C8.80217342 228.33136031 2.82350322 228.92985083 -4.07421875 226.1171875 C-8.63784611 223.46972822 -12.06021417 218.86275079 -14 214 C-14.68469154 207.61547373 -14.93619072 201.33290355 -11 196 C-7.63799496 192.56490789 -4.82378827 189.90114726 0 189 C-1.51761513 187.18313682 -3.06278156 185.40274945 -4.64735413 183.64355469 C-6.30247345 181.78377694 -7.91229141 179.8831794 -9.48728943 177.95507812 C-14.53826295 172.06050779 -18.38308643 168.29580692 -26.46508789 167.609375 C-29.22473574 167.55438182 -31.96520139 167.64460793 -34.72265625 167.75 C-36.20044665 167.76012805 -37.67828822 167.7643298 -39.15611267 167.76293945 C-43.00864817 167.77233469 -46.85652845 167.84955762 -50.70776367 167.94561768 C-56.89972642 168.08862024 -63.09309578 168.12800853 -69.28643608 168.16442871 C-71.44287593 168.18718573 -73.59694646 168.2401412 -75.75270081 168.29785156 C-77.70634804 168.32637207 -77.70634804 168.32637207 -79.69946289 168.35546875 C-81.42055016 168.39643677 -81.42055016 168.39643677 -83.17640686 168.43823242 C-86 168 -86 168 -87.87249756 166.24713135 C-89.09205578 163.81653128 -89.36497609 162.3906874 -89.34057617 159.69042969 C-89.34034958 158.84986023 -89.34012299 158.00929077 -89.33988953 157.14324951 C-89.32440567 156.24519592 -89.30892181 155.34714233 -89.29296875 154.421875 C-89.28872391 153.4953009 -89.28447906 152.56872681 -89.28010559 151.61407471 C-89.26333322 148.65908566 -89.22568355 145.70478239 -89.1875 142.75 C-89.1724513 140.74480153 -89.15876322 138.73959235 -89.14648438 136.734375 C-89.11343438 131.82265304 -89.06166182 126.91144274 -89 122 C-89.81621826 122.01740234 -90.63243652 122.03480469 -91.47338867 122.05273438 C-92.5482251 122.06626953 -93.62306152 122.07980469 -94.73046875 122.09375 C-95.79418701 122.11115234 -96.85790527 122.12855469 -97.95385742 122.14648438 C-104.40893717 121.83606938 -108.44454638 118.87155159 -112.8125 114.3125 C-117.38829443 108.68155663 -119.63860938 102.31436512 -119.27734375 95.03125 C-118.19907661 87.1340822 -115.0636729 81.22608385 -109 76 C-104.20135874 72.78581576 -99.9530683 71.80264742 -94.203125 71.90625 C-93.22504883 71.91978516 -92.24697266 71.93332031 -91.23925781 71.94726562 C-90.50030273 71.96466797 -89.76134766 71.98207031 -89 72 C-89.02094727 70.74864258 -89.04189453 69.49728516 -89.06347656 68.20800781 C-89.13589394 63.56391855 -89.18180618 58.91987917 -89.21972656 54.27539062 C-89.23983805 52.26553962 -89.26713115 50.25574709 -89.30175781 48.24609375 C-89.35029634 45.35662404 -89.37297322 42.46792809 -89.390625 39.578125 C-89.41127014 38.68007141 -89.43191528 37.78201782 -89.45318604 36.85675049 C-89.45450719 33.18102762 -89.37354056 30.69439556 -87.61523438 27.42578125 C-83.45244652 25.15630019 -79.42708484 25.50951093 -74.765625 25.609375 C-73.77246277 25.61503479 -72.77930054 25.62069458 -71.75604248 25.62652588 C-68.58686941 25.64889974 -65.4188308 25.69909894 -62.25 25.75 C-60.10027676 25.77006365 -57.95053577 25.78831466 -55.80078125 25.8046875 C-50.53346771 25.84876761 -45.26681491 25.91568967 -40 26 C-40.01740234 25.18378174 -40.03480469 24.36756348 -40.05273438 23.52661133 C-40.06626953 22.4517749 -40.07980469 21.37693848 -40.09375 20.26953125 C-40.11115234 19.20581299 -40.12855469 18.14209473 -40.14648438 17.04614258 C-39.83442126 10.55679015 -36.86169143 6.54500371 -32.25 2.1875 C-22.64801467 -5.57203796 -10.68174503 -6.52386708 0 0 Z " fill="#FA5C3D" transform="translate(331,214)"/>
<path d="M0 0 C41.58 0 83.16 0 126 0 C126.33 14.19 126.66 28.38 127 43 C129.17507832 45.17507832 134.7584093 44.3513289 137.83398438 44.4296875 C143.25607277 44.67000167 147.53426635 45.69825814 151.64453125 49.53515625 C155.76695595 54.92601931 156.82968785 58.24884137 156 65 C153.34641502 70.11762818 150.46882174 73.17705942 145 75 C141.57178555 75.22662908 138.14988056 75.39378179 134.71679688 75.51757812 C130.39612788 75.5807278 130.39612788 75.5807278 127 78 C126.6706462 79.9368613 126.6706462 79.9368613 126.68115234 82.17431641 C126.66128265 83.03505768 126.64141296 83.89579895 126.62094116 84.78262329 C126.60938995 85.71287323 126.59783875 86.64312317 126.5859375 87.6015625 C126.55688828 89.02896255 126.55688828 89.02896255 126.5272522 90.48519897 C126.46735868 93.53170747 126.42103205 96.57825354 126.375 99.625 C126.33682921 101.6875167 126.29777802 103.7500173 126.2578125 105.8125 C126.15998801 110.87491739 126.08049706 115.93715843 126 121 C113.46 121 100.92 121 88 121 C87.67 117.37 87.34 113.74 87 110 C84.87357825 103.13745709 81.0394751 97.89029252 75 94 C68.56818226 90.70930255 59.62207038 90.92748732 52.75 92.9375 C45.93322891 95.91805472 41.65850894 102.35372764 39 109 C38.505 114.94 38.505 114.94 38 121 C25.46 121 12.92 121 0 121 C-0.01417969 118.14730469 -0.02835938 115.29460937 -0.04296875 112.35546875 C-0.07357532 109.59517534 -0.11266755 106.83512372 -0.15258789 104.07495117 C-0.17579664 102.15544169 -0.19017035 100.23580434 -0.19555664 98.31616211 C-0.20482546 95.55761775 -0.245768 92.80109237 -0.29296875 90.04296875 C-0.2890361 89.18350143 -0.28510345 88.32403412 -0.28105164 87.43852234 C-0.33647423 85.17963608 -0.41670875 83.18348383 -1 81 C-3.39199342 79.02733664 -3.39199342 79.02733664 -6 78 C-6.48828125 75.51953125 -6.48828125 75.51953125 -6.3125 72.8125 C-6.24482422 71.46091797 -6.24482422 71.46091797 -6.17578125 70.08203125 C-6.11777344 69.39496094 -6.05976562 68.70789063 -6 68 C-7.32 67.67 -8.64 67.34 -10 67 C-10.625 64.1875 -10.625 64.1875 -11 61 C-10.34 60.01 -9.68 59.02 -9 58 C-8.01 58 -7.02 58 -6 58 C-6.05800781 57.31292969 -6.11601563 56.62585938 -6.17578125 55.91796875 C-6.22089844 55.01691406 -6.26601563 54.11585937 -6.3125 53.1875 C-6.39951172 51.84751953 -6.39951172 51.84751953 -6.48828125 50.48046875 C-6.24658203 49.25263672 -6.24658203 49.25263672 -6 48 C-4.35 47.01 -2.7 46.02 -1 45 C-0.67 30.15 -0.34 15.3 0 0 Z " fill="#EEBF20" transform="translate(55,58)"/>
<path d="M0 0 C4.73829769 1.66717882 7.2011938 3.85362045 10 8 C11.44347263 12.33041788 11.35422191 16.75305638 11.51757812 21.28320312 C11.5807278 25.60387212 11.5807278 25.60387212 14 29 C16.01833943 29.32977606 16.01833943 29.32977606 18.35791016 29.31884766 C19.25869293 29.33871735 20.15947571 29.35858704 21.08755493 29.37905884 C22.06155243 29.39061005 23.03554993 29.40216125 24.0390625 29.4140625 C25.03505463 29.43342865 26.03104675 29.4527948 27.05722046 29.4727478 C30.2463925 29.53264965 33.43560043 29.57897138 36.625 29.625 C38.78387013 29.66317001 40.94272488 29.70222116 43.1015625 29.7421875 C48.40096276 29.84002258 53.70019406 29.91950734 59 30 C59 41.55 59 53.1 59 65 C55.37 65.33 51.74 65.66 48 66 C41.21256423 68.10314911 35.79202187 71.95326243 32 78 C28.97643488 84.17181333 29.02947737 91.49807991 30.46484375 98.15625 C32.73997118 104.07965869 37.14804622 109.22091227 42.625 112.375 C48.10619625 114.63419076 48.10619625 114.63419076 59 115 C59 126.55 59 138.1 59 150 C17.42 150 -24.16 150 -67 150 C-67 110.4 -67 70.8 -67 30 C-44.725 29.505 -44.725 29.505 -22 29 C-18.73429956 25.73429956 -19.63981379 20.90911023 -19.609375 16.47265625 C-19.40568904 9.98865325 -17.21408176 6.47456196 -12.875 1.625 C-8.61067003 -0.78527346 -4.78820308 -0.63022898 0 0 Z " fill="#71C0E7" transform="translate(122,159)"/>
<path d="M0 0 C2.375 1.25 2.375 1.25 3.375 4.25 C6.675 4.25 9.975 4.25 13.375 4.25 C13.87 6.725 13.87 6.725 14.375 9.25 C33.68 9.745 33.68 9.745 53.375 10.25 C53.375 50.18 53.375 90.11 53.375 131.25 C40.835 131.25 28.295 131.25 15.375 131.25 C15.045 127.62 14.715 123.99 14.375 120.25 C11.79262689 112.12221213 7.52638558 107.70694249 0.3125 103.4375 C-5.78556219 101.09833202 -13.14745017 101.05682308 -19.2890625 103.1640625 C-26.65115588 106.98053231 -31.02279775 112.31328312 -33.625 120.25 C-33.955 123.88 -34.285 127.51 -34.625 131.25 C-47.165 131.25 -59.705 131.25 -72.625 131.25 C-72.625 119.37 -72.625 107.49 -72.625 95.25 C-67.18 94.755 -67.18 94.755 -61.625 94.25 C-54.34942181 91.93839224 -49.30706764 88.19983215 -45.6640625 81.4765625 C-42.93849756 75.35029268 -42.3243538 68.37570569 -44.3515625 61.9453125 C-47.84907063 54.41003075 -53.07064621 50.33558113 -60.625 47.25 C-64.585 46.59 -68.545 45.93 -72.625 45.25 C-72.625 33.7 -72.625 22.15 -72.625 10.25 C-68.83386719 10.23582031 -65.04273438 10.22164062 -61.13671875 10.20703125 C-57.47297182 10.17643507 -53.80940765 10.13733974 -50.14575195 10.09741211 C-47.59568728 10.07418689 -45.04552608 10.05982586 -42.49536133 10.05444336 C-38.83353187 10.04518733 -35.1732305 10.00426672 -31.51171875 9.95703125 C-29.79597908 9.96293022 -29.79597908 9.96293022 -28.045578 9.96894836 C-26.98470474 9.94930527 -25.92383148 9.92966217 -24.83081055 9.90942383 C-23.89593307 9.90276199 -22.9610556 9.89610016 -21.99784851 9.88923645 C-19.36657289 9.46026733 -19.36657289 9.46026733 -17.95466614 6.73930359 C-17.51587631 5.9178334 -17.07708649 5.09636322 -16.625 4.25 C-14.14453125 3.76171875 -14.14453125 3.76171875 -11.4375 3.9375 C-10.53644531 3.98261719 -9.63539063 4.02773438 -8.70703125 4.07421875 C-7.67642578 4.16123047 -7.67642578 4.16123047 -6.625 4.25 C-6.521875 3.610625 -6.41875 2.97125 -6.3125 2.3125 C-6.085625 1.631875 -5.85875 0.95125 -5.625 0.25 C-2.625 -0.75 -2.625 -0.75 0 0 Z " fill="#71C0E7" transform="translate(263.625,47.75)"/>
<path d="M0 0 C5.39113831 2.75882513 9.2823974 6.84567422 13.49121094 11.12982178 C14.36044693 11.99847366 15.22968292 12.86712555 16.1252594 13.76210022 C18.48952197 16.12866023 20.84459711 18.50369608 23.19592667 20.88306332 C25.66172374 23.37398753 28.13897121 25.85347239 30.61499023 28.33422852 C35.2941697 33.02580466 39.96306508 37.72747662 44.62828922 42.43292546 C49.94326695 47.79272421 55.26970503 53.14107193 60.59710312 58.4885211 C71.54850284 69.48165015 82.48552985 80.48896444 93.41308594 91.50579834 C89.7513888 95.86916045 85.99451209 100.04774152 81.95849609 104.07391357 C81.45043427 104.58212143 80.94237244 105.09032928 80.41891479 105.61393738 C78.76568925 107.26647514 77.10896786 108.91545824 75.45214844 110.56439209 C74.29465168 111.72002063 73.13737783 112.87587248 71.98031616 114.03193665 C68.95438376 117.05407572 65.92545897 120.07319787 62.89587402 123.0916748 C59.79691298 126.18035281 56.70082881 129.27191169 53.60449219 132.36322021 C47.54348199 138.41354932 41.47930347 144.46069027 35.41308594 150.50579834 C30.77005007 146.64501747 26.43550656 142.6198058 22.25292969 138.26751709 C21.11876237 137.10612521 19.98397871 135.94533496 18.84863281 134.78509521 C17.08943844 132.98251872 15.33445924 131.17650985 13.58959961 129.36004639 C11.88466083 127.58846195 10.16418592 125.83327176 8.44042969 124.08001709 C7.92463852 123.53528244 7.40884735 122.99054779 6.87742615 122.42930603 C3.53634182 119.06400874 1.19032055 117.58426308 -3.58691406 117.50579834 C-6.19642077 118.06808469 -6.19642077 118.06808469 -8.70410156 119.15814209 C-9.64125 119.52230225 -10.57839844 119.8864624 -11.54394531 120.26165771 C-12.506875 120.65159912 -13.46980469 121.04154053 -14.46191406 121.44329834 C-26.5861166 126.34370139 -26.5861166 126.34370139 -33.58691406 125.50579834 C-36.84623831 122.65388962 -38.32636902 120.75641453 -39.21191406 116.50579834 C-38.35462095 112.39079141 -36.92670737 109.96600252 -33.58691406 107.50579834 C-30.22342873 105.97432154 -26.84417216 104.69581264 -23.35253906 103.48626709 C-20.71056764 102.77284836 -20.71056764 102.77284836 -19.58691406 101.50579834 C-19.26273577 98.6016465 -19.20754296 97.05363627 -20.89546204 94.61616516 C-21.50818466 94.02359421 -22.12090729 93.43102325 -22.75219727 92.82049561 C-23.78876213 91.79902184 -23.78876213 91.79902184 -24.8462677 90.75691223 C-25.60243881 90.03595871 -26.35860992 89.31500519 -27.13769531 88.57220459 C-27.90744186 87.8166478 -28.67718842 87.061091 -29.47026062 86.28263855 C-31.93509445 83.86568374 -34.41577896 81.46591802 -36.89941406 79.06829834 C-39.37062205 76.67263892 -41.83795818 74.27339762 -44.2964325 71.8646698 C-45.82670523 70.36629167 -47.36452741 68.87557483 -48.91072083 67.39363098 C-53.65449484 62.76068086 -57.1608152 58.88387941 -58.02050781 52.06829834 C-58.03235922 41.25981202 -58.03235922 41.25981202 -55.83691406 37.69329834 C-53.53528905 35.45560736 -52.70582073 34.78771896 -49.58691406 34.50579834 C-47.92469788 35.60038757 -47.92469788 35.60038757 -46.2746582 37.32977295 C-45.65043472 37.97051254 -45.02621124 38.61125214 -44.3830719 39.27140808 C-43.71944138 39.9765303 -43.05581085 40.68165253 -42.37207031 41.40814209 C-41.67931503 42.11983047 -40.98655975 42.83151886 -40.27281189 43.56477356 C-37.30155341 46.61799606 -34.36040894 49.69965692 -31.41625977 52.7789917 C-29.26587403 55.01963995 -27.10078251 57.24530863 -24.93457031 59.47064209 C-24.27296402 60.17374008 -23.61135773 60.87683807 -22.92970276 61.60124207 C-22.30232712 62.24513382 -21.67495148 62.88902557 -21.02856445 63.5524292 C-20.48325577 64.12392197 -19.93794708 64.69541473 -19.37611389 65.28422546 C-17.00294426 66.90450265 -15.39998025 66.80189998 -12.58691406 66.50579834 C-11.32093588 65.42653973 -11.32093588 65.42653973 -11.08691406 62.91741943 C-11.84247695 57.76203084 -14.91676452 55.42763541 -18.58691406 51.91986084 C-19.65232422 50.86718521 -19.65232422 50.86718521 -20.73925781 49.79324341 C-23.00810676 47.55794497 -25.29692906 45.34441849 -27.58691406 43.13079834 C-29.12994435 41.61786491 -30.67162838 40.10355715 -32.21191406 38.58782959 C-35.98811189 34.87773804 -39.78091912 31.18530284 -43.58691406 27.50579834 C-41.74999018 23.50205403 -39.0957349 20.786219 -35.96191406 17.75579834 C-35.44628906 17.24919678 -34.93066406 16.74259521 -34.39941406 16.22064209 C-33.13308068 14.97775932 -31.86059966 13.74114558 -30.58691406 12.50579834 C-25.84847345 16.44045271 -21.44282423 20.56279806 -17.17285156 24.99798584 C-15.98855077 26.20950529 -14.80363726 27.42042606 -13.61816406 28.63079834 C-11.77771255 30.51469399 -9.94146289 32.40204982 -8.11523438 34.29974365 C-6.33329827 36.14813449 -4.53597157 37.98031596 -2.73535156 39.81048584 C-2.19252533 40.38225555 -1.6496991 40.95402527 -1.09042358 41.54312134 C1.31273021 43.96301468 2.80191089 45.4151638 6.23486328 45.92425537 C8.3831555 45.72273093 8.3831555 45.72273093 9.41308594 44.50579834 C10.08579483 41.78790038 10.08579483 41.78790038 9.41308594 38.50579834 C7.40708381 35.64899427 4.93048628 33.32588621 2.41308594 30.91986084 C1.7028125 30.21807709 0.99253906 29.51629333 0.26074219 28.79324341 C-2.00810676 26.55794497 -4.29692906 24.34441849 -6.58691406 22.13079834 C-8.12994435 20.61786491 -9.67162838 19.10355715 -11.21191406 17.58782959 C-14.98811189 13.87773804 -18.78091912 10.18530284 -22.58691406 6.50579834 C-20.66035817 2.38561846 -18.96741093 1.14121463 -14.86425781 -0.72857666 C-9.42427453 -2.55745612 -5.26611518 -2.19370688 0 0 Z " fill="#FDB49E" transform="translate(365.5869140625,305.49420166015625)"/>
<path d="M0 0 C4.68825412 4.13162194 8.98730776 8.6706735 10 15 C10.03418257 16.89815832 10.0424337 18.79687936 10.03125 20.6953125 C10.02673828 21.68805176 10.02222656 22.68079102 10.01757812 23.70361328 C10.00887695 24.84032471 10.00887695 24.84032471 10 26 C10.55710159 25.99555878 11.11420319 25.99111755 11.68818665 25.98654175 C17.47919147 25.94234265 23.27014849 25.91214786 29.0612793 25.89013672 C31.22340847 25.88007049 33.385524 25.86641646 35.54760742 25.84912109 C38.65286625 25.82490022 41.7579453 25.81352319 44.86328125 25.8046875 C45.83211746 25.79436493 46.80095367 25.78404236 47.79914856 25.77340698 C48.6998558 25.77325592 49.60056305 25.77310486 50.52856445 25.77294922 C51.32132278 25.768508 52.11408112 25.76406677 52.93086243 25.75949097 C55 26 55 26 58 28 C59.16434565 31.49303694 58.76745479 32.9099583 57.99926758 36.46850586 C53.94421076 57.23906406 50.20285834 83.5671539 61.57219696 102.63706207 C78.03010646 126.79709082 102.23286776 146.76014481 124.32597351 165.60865784 C125.10428874 166.27703454 125.88260397 166.94541124 126.68450451 167.63404179 C128.13480926 168.87434214 129.59400368 170.10435386 131.06356525 171.32177639 C135.75436781 175.33074558 135.75436781 175.33074558 137.01245117 178.75854492 C137 181 137 181 135.875 183.3125 C134 185 134 185 131.63336754 185.32012653 C128.2990578 184.91478964 127.33069545 183.93994505 124.99111938 181.56547546 C124.22867416 180.80412292 123.46622894 180.04277039 122.68067932 179.25834656 C121.85873581 178.41214249 121.0367923 177.56593842 120.18994141 176.6940918 C119.3128804 175.81133575 118.4358194 174.92857971 117.53218079 174.01907349 C115.62644314 172.09763816 113.72589332 170.17232633 111.83247757 168.23886681 C108.83580937 165.17932537 105.82067004 162.1384447 102.80258179 159.10005188 C96.93965109 153.19266816 91.09512557 147.26727156 85.25304413 141.33927917 C77.82543129 133.80338012 70.39180964 126.27353401 62.93726671 118.7642644 C59.94161253 115.74531539 56.95637094 112.71654711 53.97891641 109.67965162 C51.68348264 107.34328827 49.37505998 105.01980884 47.06884766 102.6940918 C46.25095261 101.85396042 45.43305756 101.01382904 44.59037781 100.14823914 C39.33005545 94.87608824 34.41796599 90.57734965 26.5625 90.5625 C21.61357445 90.70705624 18.23480197 92.53611522 14 95 C13.60777669 98.7943146 13.60777669 98.7943146 15.17687988 100.61752319 C15.72759155 101.14125519 16.27830322 101.66498718 16.84570312 102.20458984 C17.46634644 102.80556488 18.08698975 103.40653992 18.72644043 104.02572632 C19.40452759 104.66434601 20.08261475 105.3029657 20.78125 105.9609375 C22.19424694 107.33308981 23.60699984 108.70549346 25.01953125 110.078125 C27.2598938 112.23146886 29.50490883 114.37967396 31.75537109 116.52246094 C33.92269599 118.59323833 36.07129725 120.68208807 38.21875 122.7734375 C38.89683716 123.40800873 39.57492432 124.04257996 40.27355957 124.69638062 C44.86642508 129.19035062 44.86642508 129.19035062 45.54882812 133.32666016 C45 136 45 136 43 138 C40.11088126 138.37836125 38.58785172 138.39721319 36.1459198 136.74719238 C35.2832122 135.8678302 35.2832122 135.8678302 34.40307617 134.97070312 C33.74276901 134.31001831 33.08246185 133.6493335 32.40214539 132.96862793 C31.7061171 132.24679321 31.01008881 131.5249585 30.29296875 130.78125 C29.56757401 130.04878052 28.84217926 129.31631104 28.09480286 128.56164551 C25.78037927 126.21923133 23.48393892 123.86003556 21.1875 121.5 C19.62159639 119.90901993 18.05455227 118.31916152 16.48632812 116.73046875 C12.64422268 112.83323183 8.8167406 108.9220725 5 105 C3.87434093 105.9597721 2.74939642 106.9203823 1.62475586 107.88134766 C0.99822617 108.41619781 0.37169647 108.95104797 -0.27381897 109.50210571 C-2.99873286 111.86665084 -5.48104048 114.41960244 -8 117 C-6.6918049 119.90267901 -5.31479679 121.91494301 -3.01904297 124.11279297 C-2.41857147 124.69374725 -1.81809998 125.27470154 -1.19943237 125.8732605 C-0.55354156 126.49000641 0.09234924 127.10675232 0.7578125 127.7421875 C2.11906716 129.06841785 3.47972631 130.39525965 4.83984375 131.72265625 C6.98434366 133.80516786 9.13303484 135.88269093 11.29248047 137.94970703 C13.3778252 139.95040151 15.44381848 141.96950543 17.5078125 143.9921875 C18.48272141 144.91123367 18.48272141 144.91123367 19.47732544 145.84884644 C23.87036157 150.19080335 23.87036157 150.19080335 24.53076172 154.31298828 C24 157 24 157 22 159 C19.15277226 159.36576695 17.61167569 159.41762045 15.21080017 157.77842712 C14.66549149 157.20693436 14.1201828 156.63544159 13.55834961 156.04663086 C12.93097397 155.40273911 12.30359833 154.75884735 11.6572113 154.09544373 C10.99560501 153.39234573 10.33399872 152.68924774 9.65234375 151.96484375 C8.95863174 151.25219864 8.26491974 150.53955353 7.55018616 149.80531311 C5.33360755 147.52761719 3.13384956 145.23469867 0.9375 142.9375 C-1.95584598 139.91161991 -4.86498809 136.90232055 -7.78515625 133.90234375 C-8.44878677 133.19722153 -9.1124173 132.4920993 -9.79615784 131.76560974 C-10.42038132 131.12487015 -11.0446048 130.48413055 -11.68774414 129.82397461 C-12.23225723 129.25327744 -12.77677032 128.68258026 -13.33778381 128.09458923 C-14.96309154 126.77687092 -14.96309154 126.77687092 -17.09959412 127.18995667 C-20.03662381 128.44185835 -20.71482718 130.1279522 -22 133 C-22.54769981 136.3035997 -22.54769981 136.3035997 -22.5 139.8125 C-22.5309375 140.97394531 -22.561875 142.13539063 -22.59375 143.33203125 C-21.25138119 151.62469121 -15.15248603 157.22709892 -9.29296875 162.82421875 C-7.80510249 164.27905551 -6.31747926 165.73414084 -4.83007812 167.18945312 C-2.49912539 169.45181214 -0.16423857 171.70990106 2.17553711 173.96313477 C4.44676566 176.15610234 6.70251294 178.3640948 8.95703125 180.57421875 C9.66318069 181.2451506 10.36933014 181.91608246 11.09687805 182.60734558 C12.06369759 183.55907402 12.06369759 183.55907402 13.05004883 184.5300293 C13.62120926 185.08103806 14.19236969 185.63204681 14.78083801 186.19975281 C16.4051492 188.59825414 16.34195538 190.16222526 16 193 C13.26489147 195.79961581 10.18018241 196.73252579 6.5 197.875 C2.03848171 199.44755117 -0.79113905 200.5822781 -3 205 C-3.6277457 208.7664742 -3.26739304 210.48749667 -1.5 213.875 C1.36346324 216.30894375 2.92792955 216.42781256 6.61035156 216.32910156 C12.35471537 215.53798975 17.70381493 212.91796651 23.04296875 210.75585938 C23.98011719 210.39169922 24.91726563 210.02753906 25.8828125 209.65234375 C26.72215332 209.31195068 27.56149414 208.97155762 28.42626953 208.62084961 C31.85591078 207.79353243 33.62015789 207.87906182 37 209 C39.76253505 211.10764517 42.11520204 213.55724137 44.515625 216.0625 C45.56118561 217.12223022 45.56118561 217.12223022 46.62786865 218.20336914 C48.84735673 220.45739573 51.04904254 222.72788883 53.25 225 C55.46862417 227.26854561 57.69073869 229.53359121 59.91497803 231.79663086 C61.29683207 233.20494397 62.67476174 234.61712035 64.04840088 236.03344727 C64.66954773 236.67080811 65.29069458 237.30816895 65.93066406 237.96484375 C66.74957123 238.80970337 66.74957123 238.80970337 67.58502197 239.67163086 C68.98238907 241.11041736 68.98238907 241.11041736 71 242 C71.25 244.8125 71.25 244.8125 71 248 C69.3125 249.9375 69.3125 249.9375 67 251 C63.28759474 250.95205606 61.43284203 249.70145103 58.86547852 247.20849609 C57.69390186 245.98909204 56.53224732 244.76010338 55.37890625 243.5234375 C54.10130608 242.20013972 52.82329886 240.87723485 51.54492188 239.5546875 C49.5460279 237.46250688 47.55315958 235.3650936 45.56811523 233.25976562 C43.64520979 231.22830332 41.70129147 229.21890371 39.75390625 227.2109375 C39.16621964 226.57457367 38.57853302 225.93820984 37.97303772 225.28256226 C36.37766333 223.64917258 34.92100969 222.23414852 33 221 C29.84123135 220.85678353 29.84123135 220.85678353 27 222 C26.266604 222.21922119 25.53320801 222.43844238 24.77758789 222.66430664 C24.09946045 222.91043701 23.42133301 223.15656738 22.72265625 223.41015625 C21.58086914 223.81137695 21.58086914 223.81137695 20.41601562 224.22070312 C18.84922265 224.78110792 17.28409955 225.34620392 15.72070312 225.91601562 C8.80217342 228.33136031 2.82350322 228.92985083 -4.07421875 226.1171875 C-8.63784611 223.46972822 -12.06021417 218.86275079 -14 214 C-14.68469154 207.61547373 -14.93619072 201.33290355 -11 196 C-7.63799496 192.56490789 -4.82378827 189.90114726 0 189 C-1.51761513 187.18313682 -3.06278156 185.40274945 -4.64735413 183.64355469 C-6.30247345 181.78377694 -7.91229141 179.8831794 -9.48728943 177.95507812 C-14.53826295 172.06050779 -18.38308643 168.29580692 -26.46508789 167.609375 C-29.22473574 167.55438182 -31.96520139 167.64460793 -34.72265625 167.75 C-36.20044665 167.76012805 -37.67828822 167.7643298 -39.15611267 167.76293945 C-43.00864817 167.77233469 -46.85652845 167.84955762 -50.70776367 167.94561768 C-56.89972642 168.08862024 -63.09309578 168.12800853 -69.28643608 168.16442871 C-71.44287593 168.18718573 -73.59694646 168.2401412 -75.75270081 168.29785156 C-77.70634804 168.32637207 -77.70634804 168.32637207 -79.69946289 168.35546875 C-81.42055016 168.39643677 -81.42055016 168.39643677 -83.17640686 168.43823242 C-86 168 -86 168 -87.87249756 166.24713135 C-89.09205578 163.81653128 -89.36497609 162.3906874 -89.34057617 159.69042969 C-89.34034958 158.84986023 -89.34012299 158.00929077 -89.33988953 157.14324951 C-89.32440567 156.24519592 -89.30892181 155.34714233 -89.29296875 154.421875 C-89.28872391 153.4953009 -89.28447906 152.56872681 -89.28010559 151.61407471 C-89.26333322 148.65908566 -89.22568355 145.70478239 -89.1875 142.75 C-89.1724513 140.74480153 -89.15876322 138.73959235 -89.14648438 136.734375 C-89.11343438 131.82265304 -89.06166182 126.91144274 -89 122 C-89.81621826 122.01740234 -90.63243652 122.03480469 -91.47338867 122.05273438 C-92.5482251 122.06626953 -93.62306152 122.07980469 -94.73046875 122.09375 C-95.79418701 122.11115234 -96.85790527 122.12855469 -97.95385742 122.14648438 C-104.40893717 121.83606938 -108.44454638 118.87155159 -112.8125 114.3125 C-117.38829443 108.68155663 -119.63860938 102.31436512 -119.27734375 95.03125 C-118.19907661 87.1340822 -115.0636729 81.22608385 -109 76 C-104.20135874 72.78581576 -99.9530683 71.80264742 -94.203125 71.90625 C-93.22504883 71.91978516 -92.24697266 71.93332031 -91.23925781 71.94726562 C-90.50030273 71.96466797 -89.76134766 71.98207031 -89 72 C-89.02094727 70.74864258 -89.04189453 69.49728516 -89.06347656 68.20800781 C-89.13589394 63.56391855 -89.18180618 58.91987917 -89.21972656 54.27539062 C-89.23983805 52.26553962 -89.26713115 50.25574709 -89.30175781 48.24609375 C-89.35029634 45.35662404 -89.37297322 42.46792809 -89.390625 39.578125 C-89.41127014 38.68007141 -89.43191528 37.78201782 -89.45318604 36.85675049 C-89.45450719 33.18102762 -89.37354056 30.69439556 -87.61523438 27.42578125 C-83.45244652 25.15630019 -79.42708484 25.50951093 -74.765625 25.609375 C-73.77246277 25.61503479 -72.77930054 25.62069458 -71.75604248 25.62652588 C-68.58686941 25.64889974 -65.4188308 25.69909894 -62.25 25.75 C-60.10027676 25.77006365 -57.95053577 25.78831466 -55.80078125 25.8046875 C-50.53346771 25.84876761 -45.26681491 25.91568967 -40 26 C-40.01740234 25.18378174 -40.03480469 24.36756348 -40.05273438 23.52661133 C-40.06626953 22.4517749 -40.07980469 21.37693848 -40.09375 20.26953125 C-40.11115234 19.20581299 -40.12855469 18.14209473 -40.14648438 17.04614258 C-39.83442126 10.55679015 -36.86169143 6.54500371 -32.25 2.1875 C-22.64801467 -5.57203796 -10.68174503 -6.52386708 0 0 Z M-29.1484375 14.6640625 C-30.70159245 18.92455177 -30.43947657 23.48175844 -30.56640625 27.9765625 C-30.79889523 33.79889523 -30.79889523 33.79889523 -33 36 C-34.94888306 36.2784729 -34.94888306 36.2784729 -37.35791016 36.31884766 C-38.70908432 36.34865219 -38.70908432 36.34865219 -40.08755493 36.37905884 C-41.06155243 36.39061005 -42.03554993 36.40216125 -43.0390625 36.4140625 C-44.03505463 36.43342865 -45.03104675 36.4527948 -46.05722046 36.4727478 C-49.2463925 36.53264965 -52.43560043 36.57897138 -55.625 36.625 C-57.78387013 36.66317001 -59.94272488 36.70222116 -62.1015625 36.7421875 C-67.40096276 36.84002258 -72.70019406 36.91950734 -78 37 C-78.33 51.52 -78.66 66.04 -79 81 C-84.94 81.33 -90.88 81.66 -97 82 C-104.15308399 85.8028321 -104.15308399 85.8028321 -108 92 C-108.89285822 97.65138668 -108.24594068 102.18705347 -105 107 C-99.21051182 112.22466006 -94.61327479 112.26537827 -87.12109375 112.51757812 C-81.21391369 112.78608631 -81.21391369 112.78608631 -79 115 C-78.7215271 116.83499146 -78.7215271 116.83499146 -78.68115234 119.08251953 C-78.65106079 120.36122925 -78.65106079 120.36122925 -78.62036133 121.66577148 C-78.60332153 123.01070679 -78.60332153 123.01070679 -78.5859375 124.3828125 C-78.56829346 125.20644287 -78.55064941 126.03007324 -78.5324707 126.87866211 C-78.46932024 129.96057475 -78.42319122 133.04281715 -78.375 136.125 C-78.25125 143.01375 -78.1275 149.9025 -78 157 C-61.83 157 -45.66 157 -29 157 C-30.32 153.04 -31.64 149.08 -33 145 C-34.02253685 135.91078358 -31.67637987 127.95648039 -26.17391968 120.53808594 C-24.09140467 118.22535314 -21.93425749 116.0405476 -19.69921875 113.875 C-18.90401321 113.0802124 -18.10880768 112.2854248 -17.289505 111.46655273 C-15.61937727 109.80474346 -13.94078804 108.15139786 -12.25415039 106.50634766 C-9.68507397 103.99763097 -7.14682534 101.46057369 -4.61132812 98.91796875 C-2.97568783 97.29773136 -1.33837375 95.67918155 0.30078125 94.0625 C1.05313553 93.31145996 1.80548981 92.56041992 2.5806427 91.78662109 C10.56458374 84.0484944 17.90420301 80.61067012 29.05078125 80.71484375 C36.45147123 81.43040715 41.9008416 84.9338944 48 89 C48 71.84 48 54.68 48 37 C33.28068478 36.75031792 33.28068478 36.75031792 18.56103516 36.52197266 C16.72036261 36.48677845 14.87970373 36.45085852 13.0390625 36.4140625 C12.07766357 36.40270264 11.11626465 36.39134277 10.12573242 36.37963867 C9.21235107 36.35957764 8.29896973 36.3395166 7.35791016 36.31884766 C6.56293121 36.30552399 5.76795227 36.29220032 4.94888306 36.2784729 C3 36 3 36 1 34 C0.70726982 30.69474278 0.58523808 27.43237992 0.52148438 24.1171875 C0.28635351 17.94643589 -1.38304192 13.90718133 -5.4375 9.125 C-9.27311448 6.18116589 -13.39921146 6.24943972 -18.08203125 6.44140625 C-23.3272341 7.445508 -26.20082675 10.39303467 -29.1484375 14.6640625 Z " fill="#040201" transform="translate(331,214)"/>
<path d="M0 0 C0.90270126 -0.00525696 1.80540253 -0.01051392 2.73545837 -0.01593018 C5.72420471 -0.02915156 8.71241997 -0.02038448 11.70117188 -0.01025391 C13.77478132 -0.01227402 15.84839007 -0.01518494 17.92199707 -0.01895142 C22.26984413 -0.02337767 26.61750642 -0.01693395 30.96533203 -0.00292969 C36.54433143 0.01416227 42.1228979 0.00432272 47.70188141 -0.01364708 C51.98434727 -0.02447672 56.26671014 -0.02104233 60.54917908 -0.0132637 C62.60652212 -0.01125943 64.66387446 -0.0137289 66.72120667 -0.02070236 C69.59433844 -0.0283033 72.46676466 -0.01673162 75.33984375 0 C76.19396347 -0.00607269 77.04808319 -0.01214539 77.92808533 -0.0184021 C83.72770027 0.04431218 83.72770027 0.04431218 85.92359161 1.75183678 C87.16992188 3.38818359 87.16992188 3.38818359 86.98242188 5.95068359 C86.16992188 8.38818359 86.16992188 8.38818359 84.16992188 10.38818359 C81.42887419 10.57624956 78.78967901 10.63996764 76.04833984 10.61523438 C75.20924072 10.61552643 74.3701416 10.61581848 73.50561523 10.61611938 C70.72434243 10.61472292 67.94333554 10.59914695 65.16210938 10.58349609 C63.23682807 10.57976709 61.31154487 10.57691959 59.38626099 10.57492065 C54.31287418 10.56727536 49.23960143 10.54761919 44.16625977 10.5255127 C38.99171492 10.50507355 33.81715168 10.49592308 28.64257812 10.48583984 C18.48497586 10.46437413 8.32745834 10.4302274 -1.83007812 10.38818359 C-1.82341629 11.08309402 -1.81675446 11.77800446 -1.80989075 12.49397278 C-1.74978875 19.04167869 -1.70410853 25.58930767 -1.67464161 32.13722706 C-1.65898302 35.50363237 -1.63774192 38.86980982 -1.60375977 42.23608398 C-1.56746063 46.10585609 -1.55037063 49.97530385 -1.53710938 53.84521484 C-1.52162552 55.05466263 -1.50614166 56.26411041 -1.4901886 57.51020813 C-1.48984871 59.1916114 -1.48984871 59.1916114 -1.48950195 60.90698242 C-1.48284012 61.89515457 -1.47617828 62.88332672 -1.46931458 63.90144348 C-1.83007812 66.38818359 -1.83007812 66.38818359 -3.19120789 68.23857117 C-4.83007812 69.38818359 -4.83007812 69.38818359 -7.39257812 69.26318359 C-9.83007812 68.38818359 -9.83007812 68.38818359 -11.83007812 65.38818359 C-12.09077454 62.69384766 -12.09077454 62.69384766 -12.10473633 59.40380859 C-12.11426834 58.17243164 -12.12380035 56.94105469 -12.13362122 55.67236328 C-12.13335981 54.32763643 -12.13242289 52.98290956 -12.13085938 51.63818359 C-12.13474634 50.25960155 -12.13908102 48.8810207 -12.1438446 47.50244141 C-12.1513047 44.61405554 -12.15101681 41.72579192 -12.14575195 38.83740234 C-12.13995283 35.13491744 -12.15689937 31.43293207 -12.18009663 27.73052979 C-12.19482252 24.8840848 -12.19570735 22.03776051 -12.1925869 19.19128418 C-12.19310054 17.82612111 -12.19834635 16.46095135 -12.20839882 15.0958252 C-12.22072431 13.18810843 -12.21204264 11.28029077 -12.20239258 9.37255859 C-12.20333672 7.74398926 -12.20333672 7.74398926 -12.20429993 6.08251953 C-11.2515777 -0.77692513 -5.73122892 -0.04074838 0 0 Z " fill="#F8E4AB" transform="translate(77.830078125,69.61181640625)"/>
<path d="M0 0 C2.875 0.75 2.875 0.75 3.875 1.75 C3.96853163 3.43801985 3.99244791 5.12995207 3.98852539 6.82055664 C3.98844986 7.90160172 3.98837433 8.98264679 3.98829651 10.09645081 C3.98313522 11.2724736 3.97797394 12.4484964 3.97265625 13.66015625 C3.9712413 14.85732773 3.96982635 16.05449921 3.96836853 17.28794861 C3.96274979 21.12949066 3.95019411 24.97097543 3.9375 28.8125 C3.93248741 31.40950437 3.92792409 34.00650965 3.92382812 36.60351562 C3.91277427 42.98569679 3.89601792 49.3678443 3.875 55.75 C5.52204422 55.74333817 5.52204422 55.74333817 7.20236206 55.73654175 C17.53246009 55.69606032 27.8625421 55.66604676 38.19270134 55.64637566 C43.50398938 55.63592271 48.81521356 55.62173603 54.12646484 55.59912109 C59.24872595 55.57744648 64.3709255 55.56544277 69.49322891 55.56024551 C71.4509287 55.55654006 73.40862498 55.54930459 75.36629868 55.53853989 C78.10088221 55.52409643 80.8352089 55.52201904 83.56982422 55.52294922 C84.38549866 55.51575867 85.2011731 55.50856812 86.04156494 55.50115967 C91.64689568 55.52189568 91.64689568 55.52189568 93.875 57.75 C94.125 60.75 94.125 60.75 93.875 63.75 C91.21929384 66.40570616 89.24385026 66.00007718 85.63066101 66.03216553 C84.75424454 66.02968811 83.87782806 66.02721069 82.97485352 66.0246582 C82.05279114 66.02976913 81.13072876 66.03488007 80.1807251 66.04014587 C77.12172012 66.05408718 74.06293929 66.05308169 71.00390625 66.05078125 C68.88402726 66.05466572 66.76414904 66.05899987 64.64427185 66.06376648 C60.19633463 66.07123849 55.74847677 66.07093034 51.30053711 66.06567383 C45.59261722 66.05987826 39.88502172 66.07680768 34.17715549 66.1000185 C29.79776603 66.11473041 25.41845513 66.115631 21.03904533 66.11250877 C18.93424779 66.11302328 16.829446 66.1182851 14.72467232 66.12832069 C11.78441244 66.14061837 8.84479023 66.13393352 5.90454102 66.12231445 C5.03014877 66.12995819 4.15575653 66.13760193 3.25486755 66.14547729 C-2.68979018 66.09339284 -2.68979018 66.09339284 -4.84830761 64.39026165 C-6.74621328 61.9518811 -6.50623195 60.00794032 -6.51318359 56.94921875 C-6.52264008 55.7578833 -6.53209656 54.56654785 -6.5418396 53.33911133 C-6.53576691 52.05157959 -6.52969421 50.76404785 -6.5234375 49.4375 C-6.52545855 48.10375815 -6.52837026 46.77001737 -6.53213501 45.4362793 C-6.53655696 42.64198274 -6.5301319 39.84797402 -6.51611328 37.05371094 C-6.49902094 33.47225535 -6.50886289 29.89147418 -6.52683067 26.31004333 C-6.53767231 23.55622274 -6.53422054 20.80256199 -6.5264473 18.04873657 C-6.52347329 16.08611615 -6.53258292 14.12348952 -6.5418396 12.16088867 C-6.52765488 10.3738855 -6.52765488 10.3738855 -6.51318359 8.55078125 C-6.51079681 7.50059814 -6.50841003 6.45041504 -6.50595093 5.3684082 C-6.125 2.75 -6.125 2.75 -4.79605103 0.87182617 C-3.125 -0.25 -3.125 -0.25 0 0 Z " fill="#C3E4FE" transform="translate(72.125,230.25)"/>
<path d="M0 0 C1.25139771 -0.00945648 2.50279541 -0.01891296 3.79211426 -0.02865601 C5.15893876 -0.02328631 6.52576038 -0.01713336 7.89257812 -0.01025391 C9.29358064 -0.01227483 10.69458214 -0.01518643 12.09558105 -0.01895142 C15.03110779 -0.02337394 17.96636058 -0.01694637 20.90185547 -0.00292969 C24.66490229 0.01416258 28.42730724 0.00432096 32.19033051 -0.01364708 C35.08311806 -0.0244871 37.9757534 -0.02103767 40.86854553 -0.0132637 C42.25602799 -0.01126228 43.64352427 -0.01371898 45.0309906 -0.02070236 C46.96987647 -0.02831946 48.90881078 -0.01465134 50.84765625 0 C51.95113403 0.00238678 53.05461182 0.00477356 54.19152832 0.00723267 C56.92382812 0.38818359 56.92382812 0.38818359 58.78405762 1.75228882 C60.39200928 4.06015668 60.27593422 5.64175604 59.92382812 8.38818359 C57.92382812 10.38818359 57.92382812 10.38818359 55.51937866 10.62869263 C54.00714218 10.62203079 54.00714218 10.62203079 52.46435547 10.61523438 C51.32332367 10.61508331 50.18229187 10.61493225 49.00668335 10.61477661 C47.15195908 10.59929276 47.15195908 10.59929276 45.25976562 10.58349609 C43.99742096 10.5806662 42.73507629 10.5778363 41.43447876 10.57492065 C38.07735869 10.56560491 34.72050901 10.54763195 31.36346436 10.5255127 C27.9382969 10.5050591 24.51310154 10.49591999 21.08789062 10.48583984 C14.36646142 10.46374817 7.64516039 10.43024736 0.92382812 10.38818359 C0.93048996 11.43388016 0.93715179 12.47957672 0.9440155 13.55696106 C1.00477261 23.4010941 1.04977476 33.24518921 1.07926464 43.08946705 C1.09493526 48.15078851 1.11619899 53.21195887 1.15014648 58.27319336 C1.18269016 63.15556516 1.20067062 68.03779142 1.20845985 72.92026329 C1.21401235 74.78504414 1.22485475 76.64981684 1.2410183 78.5145359 C1.26272635 81.12209041 1.26579785 83.72903992 1.2644043 86.33666992 C1.28058304 87.49868423 1.28058304 87.49868423 1.29708862 88.68417358 C1.26702509 93.86666433 1.26702509 93.86666433 -0.40214539 96.40312195 C-2.07617188 97.38818359 -2.07617188 97.38818359 -5.20117188 97.20068359 C-6.14992188 96.93255859 -7.09867187 96.66443359 -8.07617188 96.38818359 C-9.71762879 93.10526977 -9.2324965 89.46402643 -9.23730469 85.85522461 C-9.24226959 84.97217651 -9.2472345 84.08912842 -9.25234985 83.17932129 C-9.26698774 80.2502363 -9.27377563 77.32120544 -9.27929688 74.39208984 C-9.2850463 72.36189268 -9.29080405 70.33169553 -9.29656982 68.30149841 C-9.30708397 64.04189805 -9.31292416 59.7823166 -9.31640625 55.52270508 C-9.32189662 50.05693903 -9.34593453 44.5914214 -9.3743782 39.12573338 C-9.39297347 34.93164838 -9.39820849 30.73762364 -9.39974213 26.5435009 C-9.40277544 24.52801083 -9.41082667 22.51252199 -9.42392731 20.49707222 C-9.4409254 17.68136635 -9.43912308 14.86627304 -9.43261719 12.05053711 C-9.44183197 11.21354782 -9.45104675 10.37655853 -9.46054077 9.51420593 C-9.41921269 3.8229634 -9.41921269 3.8229634 -7.72397232 1.67436695 C-5.22273708 -0.27796116 -3.1359126 0.00678286 0 0 Z " fill="#FEC9C0" transform="translate(274.076171875,260.61181640625)"/>
<path d="M0 0 C2.99879592 0.44981939 3.68403925 0.99460752 5.5 3.375 C5.88095093 5.68969727 5.88095093 5.68969727 5.88818359 8.44140625 C5.89764008 9.47257568 5.90709656 10.50374512 5.9168396 11.56616211 C5.91076691 12.67870361 5.90469421 13.79124512 5.8984375 14.9375 C5.90130768 16.08033447 5.90417786 17.22316895 5.90713501 18.40063477 C5.90917757 20.81820165 5.90363438 23.23578499 5.89111328 25.65332031 C5.87506321 29.36040085 5.89095641 33.066391 5.91015625 36.7734375 C5.90817385 39.11979408 5.90433025 41.46614998 5.8984375 43.8125 C5.90754654 45.48131226 5.90754654 45.48131226 5.9168396 47.18383789 C5.90738312 48.21500732 5.89792664 49.24617676 5.88818359 50.30859375 C5.88579681 51.21665771 5.88341003 52.12472168 5.88095093 53.06030273 C5.5 55.375 5.5 55.375 4.29238892 57.16738892 C1.89789759 58.78066282 0.3123441 58.75561701 -2.56640625 58.76318359 C-3.59757568 58.77264008 -4.62874512 58.78209656 -5.69116211 58.7918396 C-6.80370361 58.78576691 -7.91624512 58.77969421 -9.0625 58.7734375 C-10.20533447 58.77630768 -11.34816895 58.77917786 -12.52563477 58.78213501 C-14.94320165 58.78417757 -17.36078499 58.77863438 -19.77832031 58.76611328 C-23.48540085 58.75006321 -27.191391 58.76595641 -30.8984375 58.78515625 C-33.24479408 58.78317385 -35.59114998 58.77933025 -37.9375 58.7734375 C-39.60631226 58.78254654 -39.60631226 58.78254654 -41.30883789 58.7918396 C-42.34000732 58.78238312 -43.37117676 58.77292664 -44.43359375 58.76318359 C-45.7956897 58.75960342 -45.7956897 58.75960342 -47.18530273 58.75595093 C-49.5 58.375 -49.5 58.375 -51.32836914 57.07730103 C-52.5 55.375 -52.5 55.375 -52.3125 51.75 C-52.044375 50.63625 -51.77625 49.5225 -51.5 48.375 C-49.1699002 47.2099501 -47.82752923 47.2540642 -45.23388672 47.26147461 C-43.91274368 47.26158791 -43.91274368 47.26158791 -42.56491089 47.26170349 C-41.61278717 47.26686478 -40.66066345 47.27202606 -39.6796875 47.27734375 C-38.21899338 47.27946617 -38.21899338 47.27946617 -36.72879028 47.28163147 C-33.61082927 47.28724027 -30.4929394 47.29979427 -27.375 47.3125 C-25.26432395 47.31751387 -23.15364678 47.32207697 -21.04296875 47.32617188 C-15.86195479 47.33721255 -10.68098248 47.35395927 -5.5 47.375 C-5.51571045 46.05781982 -5.5314209 44.74063965 -5.54760742 43.38354492 C-5.60185386 38.50274761 -5.6363309 33.621977 -5.66479492 28.7409668 C-5.6798936 26.62731446 -5.70037426 24.51369352 -5.72631836 22.40014648 C-5.76265397 19.36434185 -5.77971544 16.32895094 -5.79296875 13.29296875 C-5.80845261 12.34600632 -5.82393646 11.39904388 -5.83988953 10.42338562 C-5.84011612 9.54269913 -5.84034271 8.66201263 -5.84057617 7.75463867 C-5.84723801 6.97964523 -5.85389984 6.20465179 -5.86076355 5.40617371 C-5.22968866 1.85309103 -3.47618582 0.52142787 0 0 Z " fill="#000000" transform="translate(494.5,441.625)"/>
<path d="M0 0 C1.670625 0.4021875 1.670625 0.4021875 3.375 0.8125 C4.5400499 3.1425998 4.4959358 4.48497077 4.48852539 7.07861328 C4.48844986 7.95937531 4.48837433 8.84013733 4.48829651 9.74758911 C4.48313522 10.69971283 4.47797394 11.65183655 4.47265625 12.6328125 C4.4712413 13.60660858 4.46982635 14.58040466 4.46836853 15.58370972 C4.46275973 18.70167073 4.45020573 21.8195606 4.4375 24.9375 C4.43248613 27.04817605 4.42792303 29.15885322 4.42382812 31.26953125 C4.41278745 36.45054521 4.39604073 41.63151752 4.375 46.8125 C6.35077026 46.78893433 6.35077026 46.78893433 8.36645508 46.76489258 C13.24725239 46.71064614 18.128023 46.6761691 23.0090332 46.64770508 C25.12268554 46.6326064 27.23630648 46.61212574 29.34985352 46.58618164 C32.38565815 46.54984603 35.42104906 46.53278456 38.45703125 46.51953125 C39.8774749 46.49630547 39.8774749 46.49630547 41.32661438 46.47261047 C42.64764412 46.47227058 42.64764412 46.47227058 43.99536133 46.47192383 C44.77035477 46.46526199 45.54534821 46.45860016 46.34382629 46.45173645 C48.92315495 46.90985963 49.80090272 47.75314847 51.375 49.8125 C51.75 52.3125 51.75 52.3125 51.375 54.8125 C49.72228631 57.04753363 48.83019278 57.73758476 46.06030273 58.19345093 C45.15223877 58.19583771 44.2441748 58.19822449 43.30859375 58.20068359 C42.27742432 58.21014008 41.24625488 58.21959656 40.18383789 58.2293396 C39.07129639 58.22326691 37.95875488 58.21719421 36.8125 58.2109375 C35.66966553 58.21380768 34.52683105 58.21667786 33.34936523 58.21963501 C30.93179835 58.22167757 28.51421501 58.21613438 26.09667969 58.20361328 C22.38959915 58.18756321 18.683609 58.20345641 14.9765625 58.22265625 C12.63020592 58.22067385 10.28385002 58.21683025 7.9375 58.2109375 C6.26868774 58.22004654 6.26868774 58.22004654 4.56616211 58.2293396 C3.53499268 58.21988312 2.50382324 58.21042664 1.44140625 58.20068359 C0.0793103 58.19710342 0.0793103 58.19710342 -1.31030273 58.19345093 C-3.625 57.8125 -3.625 57.8125 -5.41738892 56.60488892 C-7.03066282 54.21039759 -7.00561701 52.6248441 -7.01318359 49.74609375 C-7.02264008 48.71492432 -7.03209656 47.68375488 -7.0418396 46.62133789 C-7.03576691 45.50879639 -7.02969421 44.39625488 -7.0234375 43.25 C-7.02630768 42.10716553 -7.02917786 40.96433105 -7.03213501 39.78686523 C-7.03417757 37.36929835 -7.02863438 34.95171501 -7.01611328 32.53417969 C-7.00006321 28.82709915 -7.01595641 25.121109 -7.03515625 21.4140625 C-7.03317385 19.06770592 -7.02933025 16.72135002 -7.0234375 14.375 C-7.02951019 13.2624585 -7.03558289 12.14991699 -7.0418396 11.00366211 C-7.03238312 9.97249268 -7.02292664 8.94132324 -7.01318359 7.87890625 C-7.01079681 6.97084229 -7.00841003 6.06277832 -7.00595093 5.12719727 C-6.625 2.8125 -6.625 2.8125 -5.32730103 0.98413086 C-3.625 -0.1875 -3.625 -0.1875 0 0 Z " fill="#000000" transform="translate(18.625,442.1875)"/>
<path d="M0 0 C1.54675415 -0.01418472 1.54675415 -0.01418472 3.12475586 -0.02865601 C4.23729736 -0.02258331 5.34983887 -0.01651062 6.49609375 -0.01025391 C7.63892822 -0.01312408 8.7817627 -0.01599426 9.95922852 -0.01895142 C12.3767954 -0.02099398 14.79437874 -0.01545079 17.21191406 -0.00292969 C20.9189946 0.01312039 24.62498475 -0.00277281 28.33203125 -0.02197266 C30.67838783 -0.01999026 33.02474373 -0.01614666 35.37109375 -0.01025391 C37.03990601 -0.01936295 37.03990601 -0.01936295 38.74243164 -0.02865601 C39.77360107 -0.01919952 40.80477051 -0.00974304 41.8671875 0 C43.22928345 0.00358017 43.22928345 0.00358017 44.61889648 0.00723267 C46.93359375 0.38818359 46.93359375 0.38818359 48.72598267 1.59579468 C50.33925657 3.990286 50.31421076 5.57583949 50.32177734 8.45458984 C50.33123383 9.48575928 50.34069031 10.51692871 50.35043335 11.5793457 C50.34436066 12.69188721 50.33828796 13.80442871 50.33203125 14.95068359 C50.33490143 16.09351807 50.33777161 17.23635254 50.34072876 18.41381836 C50.34277132 20.83138524 50.33722813 23.24896858 50.32470703 25.66650391 C50.30865696 29.37358444 50.32455016 33.0795746 50.34375 36.78662109 C50.3417676 39.13297767 50.337924 41.47933358 50.33203125 43.82568359 C50.34114029 45.49449585 50.34114029 45.49449585 50.35043335 47.19702148 C50.34097687 48.22819092 50.33152039 49.25936035 50.32177734 50.32177734 C50.31939056 51.22984131 50.31700378 52.13790527 50.31454468 53.07348633 C49.93359375 55.38818359 49.93359375 55.38818359 48.63589478 57.21655273 C46.93359375 58.38818359 46.93359375 58.38818359 43.30859375 58.20068359 C42.19484375 57.93255859 41.08109375 57.66443359 39.93359375 57.38818359 C38.76854385 55.0580838 38.81265795 53.71571282 38.82006836 51.12207031 C38.82014389 50.24130829 38.82021942 49.36054626 38.82029724 48.45309448 C38.82545853 47.50097076 38.83061981 46.54884705 38.8359375 45.56787109 C38.83735245 44.59407501 38.8387674 43.62027893 38.84022522 42.61697388 C38.84583402 39.49901286 38.85838802 36.381123 38.87109375 33.26318359 C38.87610762 31.15250755 38.88067072 29.04183037 38.88476562 26.93115234 C38.8958063 21.75013838 38.91255302 16.56916607 38.93359375 11.38818359 C37.61641357 11.40389404 36.2992334 11.41960449 34.94213867 11.43579102 C30.06134136 11.49003746 25.18057075 11.5245145 20.29956055 11.55297852 C18.18590821 11.56807719 16.07228727 11.58855785 13.95874023 11.61450195 C10.9229356 11.65083756 7.88754469 11.66789904 4.8515625 11.68115234 C3.43111885 11.70437813 3.43111885 11.70437813 1.98197937 11.72807312 C0.66094963 11.72841301 0.66094963 11.72841301 -0.68676758 11.72875977 C-1.46176102 11.7354216 -2.23675446 11.74208344 -3.03523254 11.74894714 C-5.6145612 11.29082396 -6.49230897 10.44753513 -8.06640625 8.38818359 C-8.44140625 5.88818359 -8.44140625 5.88818359 -8.06640625 3.38818359 C-5.71167307 0.20377973 -3.85372147 0.01012923 0 0 Z " fill="#000000" transform="translate(450.06640625,11.61181640625)"/>
<path d="M0 0 C1.54675415 -0.01418472 1.54675415 -0.01418472 3.12475586 -0.02865601 C4.23729736 -0.02258331 5.34983887 -0.01651062 6.49609375 -0.01025391 C7.63892822 -0.01312408 8.7817627 -0.01599426 9.95922852 -0.01895142 C12.3767954 -0.02099398 14.79437874 -0.01545079 17.21191406 -0.00292969 C20.9189946 0.01312039 24.62498475 -0.00277281 28.33203125 -0.02197266 C30.67838783 -0.01999026 33.02474373 -0.01614666 35.37109375 -0.01025391 C37.03990601 -0.01936295 37.03990601 -0.01936295 38.74243164 -0.02865601 C39.77360107 -0.01919952 40.80477051 -0.00974304 41.8671875 0 C43.22928345 0.00358017 43.22928345 0.00358017 44.61889648 0.00723267 C46.93359375 0.38818359 46.93359375 0.38818359 48.76196289 1.68588257 C49.93359375 3.38818359 49.93359375 3.38818359 49.74609375 7.01318359 C49.47796875 8.12693359 49.20984375 9.24068359 48.93359375 10.38818359 C46.60349395 11.55323349 45.26112298 11.50911939 42.66748047 11.50170898 C41.34633743 11.50159569 41.34633743 11.50159569 39.99850464 11.5014801 C39.04638092 11.49631882 38.0942572 11.49115753 37.11328125 11.48583984 C36.13948517 11.4844249 35.16568909 11.48300995 34.16238403 11.48155212 C31.04442302 11.47594333 27.92653315 11.46338933 24.80859375 11.45068359 C22.6979177 11.44566973 20.58724053 11.44110662 18.4765625 11.43701172 C13.29554854 11.42597104 8.11457623 11.40922433 2.93359375 11.38818359 C2.95715942 13.36395386 2.95715942 13.36395386 2.98120117 15.37963867 C3.03544761 20.26043599 3.06992465 25.14120659 3.09838867 30.0222168 C3.11348735 32.13586913 3.13396801 34.24949008 3.15991211 36.36303711 C3.19624772 39.39884175 3.21330919 42.43423266 3.2265625 45.47021484 C3.24204636 46.41717728 3.25753021 47.36413971 3.27348328 48.33979797 C3.27382317 49.66082771 3.27382317 49.66082771 3.27416992 51.00854492 C3.28083176 51.78353836 3.28749359 52.5585318 3.2943573 53.35700989 C2.83623412 55.93633854 1.99294528 56.81408631 -0.06640625 58.38818359 C-2.56640625 58.76318359 -2.56640625 58.76318359 -5.06640625 58.38818359 C-7.30143988 56.73546991 -7.99149101 55.84337637 -8.44735718 53.07348633 C-8.44974396 52.16542236 -8.45213074 51.2573584 -8.45458984 50.32177734 C-8.46404633 49.29060791 -8.47350281 48.25943848 -8.48324585 47.19702148 C-8.47717316 46.08447998 -8.47110046 44.97193848 -8.46484375 43.82568359 C-8.46771393 42.68284912 -8.47058411 41.54001465 -8.47354126 40.36254883 C-8.47558382 37.94498194 -8.47004063 35.5273986 -8.45751953 33.10986328 C-8.44146946 29.40278275 -8.45736266 25.69679259 -8.4765625 21.98974609 C-8.4745801 19.64338951 -8.4707365 17.29703361 -8.46484375 14.95068359 C-8.47091644 13.83814209 -8.47698914 12.72560059 -8.48324585 11.5793457 C-8.47378937 10.54817627 -8.46433289 9.51700684 -8.45458984 8.45458984 C-8.45220306 7.54652588 -8.44981628 6.63846191 -8.44735718 5.70288086 C-8.06640625 3.38818359 -8.06640625 3.38818359 -6.85879517 1.59579468 C-4.46430384 -0.01747923 -2.87875035 0.00756658 0 0 Z " fill="#000000" transform="translate(20.06640625,11.61181640625)"/>
<path d="M0 0 C2.5625 0.3125 2.5625 0.3125 4.19839478 1.52685547 C5.98714964 3.86837596 5.94266868 5.26530447 5.95068359 8.1953125 C5.96014008 9.18644043 5.96959656 10.17756836 5.9793396 11.19873047 C5.97326691 12.26752441 5.96719421 13.33631836 5.9609375 14.4375 C5.96524277 16.08516357 5.96524277 16.08516357 5.96963501 17.76611328 C5.97167736 20.08952347 5.96613563 22.41295078 5.95361328 24.73632812 C5.93756278 28.29856712 5.95345698 31.85967142 5.97265625 35.421875 C5.97067385 37.67708585 5.96683024 39.93229598 5.9609375 42.1875 C5.97004654 43.79069092 5.97004654 43.79069092 5.9793396 45.42626953 C5.96988312 46.41739746 5.96042664 47.40852539 5.95068359 48.4296875 C5.94829681 49.30222168 5.94591003 50.17475586 5.94345093 51.07373047 C5.48103557 53.79124954 4.75517101 54.68483906 2.5625 56.3125 C0 56.625 0 56.625 -2.4375 56.3125 C-4.98023722 53.76976278 -4.6901488 52.86810561 -4.69628906 49.34375 C-4.70259338 48.30927734 -4.70889771 47.27480469 -4.71539307 46.20898438 C-4.7113446 45.08814453 -4.70729614 43.96730469 -4.703125 42.8125 C-4.70503845 41.66587891 -4.7069519 40.51925781 -4.70892334 39.33789062 C-4.71028622 36.91015402 -4.70658267 34.48241016 -4.69824219 32.0546875 C-4.68754438 28.32795927 -4.69813431 24.60171314 -4.7109375 20.875 C-4.70961592 18.52083226 -4.70705357 16.16666483 -4.703125 13.8125 C-4.70717346 12.69166016 -4.71122192 11.57082031 -4.71539307 10.41601562 C-4.70908875 9.38154297 -4.70278442 8.34707031 -4.69628906 7.28125 C-4.69469788 6.36794922 -4.69310669 5.45464844 -4.69146729 4.51367188 C-4.31259145 1.22989916 -3.22574487 0.41355704 0 0 Z " fill="#C0E3FD" transform="translate(296.4375,73.6875)"/>
<path d="M0 0 C1.8871875 0.00773437 1.8871875 0.00773437 3.8125 0.015625 C5.070625 0.01046875 6.32875 0.0053125 7.625 0 C10.8125 0.265625 10.8125 0.265625 12.8125 2.265625 C13.0625 5.265625 13.0625 5.265625 12.8125 8.265625 C10.32961164 10.74851336 8.80063844 10.55145667 5.40234375 10.58789062 C4.36787109 10.58305664 4.36787109 10.58305664 3.3125 10.578125 C2.62285156 10.59423828 1.93320312 10.61035156 1.22265625 10.62695312 C-0.78125 10.62890625 -0.78125 10.62890625 -4.1875 10.265625 C-6.1875 7.265625 -6.1875 7.265625 -5.9375 4.703125 C-4.78574999 0.95993747 -3.91963234 0.32663603 0 0 Z " fill="#FEC6BD" transform="translate(350.1875,260.734375)"/>
<path d="M0 0 C2.5625 0.3125 2.5625 0.3125 4.203125 1.45703125 C6.1384209 4.09859893 5.92660582 6.07324263 5.875 9.3125 C5.87113281 10.364375 5.86726563 11.41625 5.86328125 12.5 C5.5625 15.3125 5.5625 15.3125 3.5625 18.3125 C-0.0625 18.5 -0.0625 18.5 -3.4375 18.3125 C-4.92270725 15.34208551 -4.6080822 12.61485553 -4.625 9.3125 C-4.63917969 8.054375 -4.65335937 6.79625 -4.66796875 5.5 C-4.3905586 1.66327663 -3.90507149 0.50065019 0 0 Z " fill="#BFE2FD" transform="translate(296.4375,139.6875)"/>
<path d="M0 0 C3 -0.3125 3 -0.3125 6 0 C8.77809395 2.77809395 8.29955703 4.56755203 8.3125 8.4375 C8.32925781 9.59121094 8.34601563 10.74492187 8.36328125 11.93359375 C8 15 8 15 6.640625 16.91796875 C5 18 5 18 2.4375 17.875 C0 17 0 17 -2 14 C-2.265625 11.40625 -2.265625 11.40625 -2.25 8.5 C-2.25515625 7.5409375 -2.2603125 6.581875 -2.265625 5.59375 C-2 3 -2 3 0 0 Z " fill="#F8E3A7" transform="translate(68,149)"/>
<path d="M0 0 C3 -0.3125 3 -0.3125 6 0 C8 2 8 2 8.265625 4.75 C8.26046875 5.8225 8.2553125 6.895 8.25 8 C8.25515625 9.0725 8.2603125 10.145 8.265625 11.25 C8 14 8 14 6 16 C2.4375 15.75 2.4375 15.75 -1 15 C-2.23184766 12.53630468 -2.16732342 10.8105499 -2.1875 8.0625 C-2.20167969 7.18722656 -2.21585937 6.31195313 -2.23046875 5.41015625 C-2 3 -2 3 0 0 Z " fill="#C1E3FE" transform="translate(68,204)"/>
<path d="M0 0 C3.125 0.25 3.125 0.25 5.0625 1.4375 C6.125 3.25 6.125 3.25 5.9375 5.8125 C5.125 8.25 5.125 8.25 3.125 10.25 C0.125 10.5625 0.125 10.5625 -2.875 10.25 C-4.875 7.25 -4.875 7.25 -4.5625 4.125 C-3.65202703 0.31756757 -3.65202703 0.31756757 0 0 Z " fill="#070500" transform="translate(48.875,115.75)"/>
<path d="M0 0 C2.3125 1.1875 2.3125 1.1875 3.3125 2.1875 C3.6107732 5.02109542 3.66852594 6.62535378 2.125 9.0625 C0.3125 10.1875 0.3125 10.1875 -2.25 10 C-4.6875 9.1875 -4.6875 9.1875 -6.6875 7.1875 C-6.8125 4.0625 -6.8125 4.0625 -6.6875 1.1875 C-4.01153344 -0.5964777 -3.15846846 -0.95488581 0 0 Z " fill="#020405" transform="translate(263.6875,47.8125)"/>
</svg>
