<?xml version="1.0" encoding="UTF-8"?>
<svg version="1.1" xmlns="http://www.w3.org/2000/svg" width="286" height="364">
<path d="M0 0 C3.9998593 -0.08783475 7.99946704 -0.14067102 12 -0.1875 C13.12535156 -0.21263672 14.25070313 -0.23777344 15.41015625 -0.26367188 C24.91727216 -0.34706763 32.01576873 1.04627554 39.1171875 7.7578125 C51.07170538 21.99410558 52.72436103 45.77478234 51.81640625 63.60546875 C50.24440836 77.68862512 45.81558075 94.20008757 34.9375 103.9375 C29.5119861 107.74690338 25.06907527 108.28678614 18.5378418 108.22705078 C17.6983046 108.22734283 16.8587674 108.22763489 15.99378967 108.22793579 C13.22882624 108.22654647 10.4641349 108.21100402 7.69921875 108.1953125 C5.77822517 108.19158096 3.85722969 108.18873465 1.93623352 108.18673706 C-3.11244997 108.17911175 -8.16101785 108.15947269 -13.20965576 108.1373291 C-18.36436397 108.11684695 -23.51909092 108.10773027 -28.67382812 108.09765625 C-38.7826028 108.07622579 -48.89129177 108.04210311 -59 108 C-59 109.98 -59 111.96 -59 114 C-41.51 114 -24.02 114 -6 114 C-5.9175 118.29 -5.835 122.58 -5.75 127 C-5.71358398 128.33675781 -5.67716797 129.67351562 -5.63964844 131.05078125 C-5.56307979 139.30043595 -6.46323712 144.77596224 -11.7890625 151.13671875 C-27.12852495 164.09366895 -48.39150192 167.49906111 -68 166 C-82.93227016 164.07261638 -98.37039883 161.03010924 -108.63671875 149.09765625 C-112.17075639 144.307972 -113.12398957 140.86396333 -113.17700195 135.01904297 C-113.18983719 133.78701141 -113.20267242 132.55497986 -113.21589661 131.28561401 C-113.2240673 129.93780929 -113.2315104 128.58999998 -113.23828125 127.2421875 C-113.24235678 126.56112064 -113.2464323 125.88005379 -113.25063133 125.17834854 C-113.27148168 121.56942297 -113.28578459 117.96053524 -113.29516602 114.3515625 C-113.30619387 110.64286388 -113.3405536 106.93477132 -113.38033772 103.22628593 C-113.40662531 100.35902882 -113.41486878 97.49191304 -113.41844749 94.62454605 C-113.42328675 93.25872863 -113.43482398 91.89291637 -113.45348549 90.52721786 C-113.58053826 80.60803962 -112.3421814 73.96552665 -106.8125 65.75 C-100.39902406 59.47904575 -93.68328514 56.88621318 -84.82958984 56.8581543 C-83.58084076 56.85111984 -82.33209167 56.84408539 -81.04550171 56.83683777 C-80.04792406 56.83411393 -80.04792406 56.83411393 -79.03019333 56.83133507 C-76.93511908 56.82412996 -74.84027372 56.80843122 -72.74526978 56.78999329 C-66.78968557 56.73773141 -60.83422628 56.6896303 -54.87841797 56.67407227 C-51.22956533 56.66391827 -47.58128999 56.63440665 -43.93266678 56.59275246 C-42.5510154 56.58053957 -41.16928211 56.57530322 -39.78757858 56.57755089 C-28.67290518 56.59117568 -19.65270941 54.89437291 -10.8203125 47.83203125 C-3.7750346 40.74139749 -0.84821063 31.80789845 -0.5859375 21.97265625 C-0.54726562 20.68681641 -0.50859375 19.40097656 -0.46875 18.07617188 C-0.43730501 16.73828582 -0.40605741 15.40039511 -0.375 14.0625 C-0.33675658 12.69724244 -0.2977013 11.33200736 -0.2578125 9.96679688 C-0.16390063 6.6446646 -0.07822213 3.32253259 0 0 Z " fill="#EFCD50" transform="translate(200,105)"/>
<path d="M0 0 C0.72759521 -0.00570007 1.45519043 -0.01140015 2.20483398 -0.01727295 C3.73761576 -0.02665515 5.27041708 -0.03322967 6.80322266 -0.03710938 C9.09185264 -0.04673558 11.3795516 -0.0777902 13.66796875 -0.109375 C29.32643112 -0.221476 45.2604841 0.87790528 57.125 12.203125 C61.54336169 17.97154166 63.36827903 23.20243811 63.3996582 30.44873047 C63.40919022 31.66374237 63.41872223 32.87875427 63.42854309 34.13058472 C63.42717598 36.08074997 63.42717598 36.08074997 63.42578125 38.0703125 C63.42967402 39.43262867 63.43400988 40.79494365 63.43876648 42.15725708 C63.44620768 45.00673361 63.44595304 47.8560862 63.44067383 50.70556641 C63.43488601 54.33909549 63.45180319 57.97211368 63.4750185 61.6055584 C63.48982354 64.41788652 63.49061834 67.23009357 63.48750877 70.04245377 C63.48826497 72.02758279 63.50208371 74.01269316 63.51618958 75.99777222 C63.47050515 84.95539039 62.67185229 91.96371987 56.5625 98.953125 C55.96308594 99.66984375 55.36367187 100.3865625 54.74609375 101.125 C46.61670849 107.57035463 37.72341924 107.77024312 27.71875 107.70703125 C26.34451002 107.71441841 24.97028019 107.72397729 23.59606934 107.73558044 C20.00290912 107.76208824 16.41008089 107.76788369 12.8168335 107.76647949 C7.06831713 107.76423842 1.32021159 107.77876341 -4.42814636 107.82206535 C-6.41647213 107.83177594 -8.40486147 107.82282465 -10.39318848 107.81336975 C-21.55304878 107.87591087 -31.31119313 109.62257003 -39.875 117.203125 C-46.30263831 124.6366151 -49.03464857 131.56947799 -49.2890625 141.44921875 C-49.30842865 142.10519547 -49.3277948 142.76117218 -49.3477478 143.43702698 C-49.40688909 145.50476628 -49.45366229 147.57256329 -49.5 149.640625 C-49.53824033 151.05405894 -49.57729545 152.46747109 -49.6171875 153.88085938 C-49.71253452 157.32141352 -49.79680287 160.76213339 -49.875 164.203125 C-53.99961681 164.35001306 -58.12354924 164.43772544 -62.25 164.515625 C-63.98443359 164.5784668 -63.98443359 164.5784668 -65.75390625 164.64257812 C-74.54917521 164.76680509 -81.18421336 163.24207649 -87.95166016 157.41503906 C-99.62131969 145.90622716 -101.15385883 126.44980135 -101.3125 110.953125 C-101.24622583 95.18342245 -99.72923817 77.45926328 -88.5625 65.328125 C-81.08770824 58.437048 -71.87140943 55.87486776 -61.82836914 55.97607422 C-61.05681488 55.97578217 -60.28526062 55.97549011 -59.49032593 55.97518921 C-56.96348459 55.97657229 -54.43694549 55.99208482 -51.91015625 56.0078125 C-50.14896302 56.01154627 -48.38776771 56.01439152 -46.62657166 56.01638794 C-42.00863838 56.02399573 -37.39083245 56.04361951 -32.77294922 56.0657959 C-28.05372846 56.08631602 -23.33448696 56.09540281 -18.61523438 56.10546875 C-9.36843387 56.12686825 -0.12172756 56.1609695 9.125 56.203125 C9.125 54.223125 9.125 52.243125 9.125 50.203125 C-8.365 50.203125 -25.855 50.203125 -43.875 50.203125 C-43.9575 45.43875 -44.04 40.674375 -44.125 35.765625 C-44.16141602 34.2813501 -44.19783203 32.7970752 -44.23535156 31.26782227 C-44.30671968 22.72609477 -43.91008136 15.72000712 -38.04296875 9.15234375 C-26.81241474 1.99757265 -13.11143062 0.0826614 0 0 Z " fill="#457BA8" transform="translate(130.875,48.796875)"/>
<path d="M0 0 C4.273311 4.15435374 6.69957122 7.29614102 7.375 13.375 C7 17 7 17 4.75 19.875 C0.9463708 22.81416802 -1.96209524 23.14021869 -6.6875 23.125 C-7.47511719 23.12757812 -8.26273437 23.13015625 -9.07421875 23.1328125 C-12.24366949 22.9889389 -15.35462273 22.64445305 -18.50463867 22.27636719 C-21.11143496 21.98765831 -23.71855581 21.7549306 -26.33203125 21.53515625 C-27.23244141 21.45716797 -28.13285156 21.37917969 -29.06054688 21.29882812 C-30.91424584 21.13963893 -32.76843811 20.98610467 -34.62304688 20.83789062 C-35.96399414 20.71897461 -35.96399414 20.71897461 -37.33203125 20.59765625 C-38.13358643 20.53070557 -38.9351416 20.46375488 -39.76098633 20.39477539 C-42.17221693 19.96963529 -43.85823734 19.1638412 -46 18 C-47.093125 17.5875 -48.18625 17.175 -49.3125 16.75 C-52.18329623 15.54770072 -54.24431419 14.07200678 -56.5625 12 C-60.41211363 8.59228462 -63.412655 5.95699704 -68.8203125 6.046875 C-71.56430788 6.28548329 -74.27560645 6.59764295 -77 7 C-77 7.66 -77 8.32 -77 9 C-78.25 10.625 -78.25 10.625 -80 12 C-81.32 12 -82.64 12 -84 12 C-84.29788892 8.20191623 -84.3804772 5.71132693 -82.5625 2.3125 C-79.07971822 -0.8304982 -75.33800628 -2.32478341 -71 -4 C-70.18917969 -4.34417969 -69.37835938 -4.68835937 -68.54296875 -5.04296875 C-51.27627233 -11.54118783 -14.93718082 -12.61062218 0 0 Z " fill="#73ADDE" transform="translate(179,58)"/>
<path d="M0 0 C0.71621521 -0.00335861 1.43243042 -0.00671722 2.17034912 -0.01017761 C4.52097337 -0.01962204 6.87152597 -0.02162697 9.22216797 -0.02270508 C10.86310861 -0.02592058 12.50404897 -0.02928487 14.14498901 -0.03279114 C17.5761583 -0.03876493 21.00730245 -0.04063268 24.43847656 -0.04003906 C28.83454968 -0.03993717 33.23046227 -0.0536251 37.62649727 -0.07081127 C41.01167543 -0.08192484 44.39681458 -0.08395852 47.78200912 -0.08342934 C49.40312125 -0.08460905 51.0242344 -0.08903032 52.64532852 -0.0967617 C54.90950096 -0.10655506 57.17332195 -0.10368702 59.4375 -0.09765625 C60.72512238 -0.09908127 62.01274475 -0.10050629 63.33938599 -0.10197449 C66.37378168 0.12886411 68.05313803 0.53695923 70.58935547 2.14526367 C70.25935547 3.13526367 69.92935547 4.12526367 69.58935547 5.14526367 C53.55308253 8.3087468 53.55308253 8.3087468 45.55810547 8.96166992 C43.45626897 9.12024206 43.45626897 9.12024206 40.90185547 9.70776367 C38.58935547 10.14526367 38.58935547 10.14526367 35.40185547 10.08276367 C32.41262932 10.13176738 30.18398864 10.36451262 27.31982422 10.98510742 C20.95448667 12.3014916 14.55324513 13.38212164 8.13964844 14.43237305 C6.77220751 14.65772887 5.40533715 14.88657448 4.0390625 15.11889648 C-15.34049342 18.41300343 -15.34049342 18.41300343 -23.41064453 16.14526367 C-23.83304133 11.83681628 -23.97333905 9.85265107 -21.22314453 6.39526367 C-14.26866296 0.83167841 -8.83435517 0.0261204 0 0 Z " fill="#A1C5E4" transform="translate(74.41064453125,107.854736328125)"/>
<path d="M0 0 C0.75 1.5625 0.75 1.5625 1 4 C-1.01218155 8.69509028 -3.07777533 11.99092993 -7.78515625 14.421875 C-12.4552995 15.64088946 -17.29256573 14.71113949 -22 14 C-22 13.34 -22 12.68 -22 12 C-23.19625 12.33 -24.3925 12.66 -25.625 13 C-29.15791497 13.89265823 -32.34079109 14.18296045 -36 14 C-36 14.66 -36 15.32 -36 16 C-36.71542969 16.08040527 -37.43085938 16.16081055 -38.16796875 16.24365234 C-41.44596656 16.61523651 -44.72296135 16.99505349 -48 17.375 C-49.12535156 17.50132812 -50.25070313 17.62765625 -51.41015625 17.7578125 C-57.43818418 18.46284501 -63.13884662 19.44376272 -69 21 C-71.33293334 21.04320247 -73.6670134 21.04022391 -76 21 C-77.54332857 21.1505019 -79.08498847 21.31867606 -80.625 21.5 C-86.74744183 22.1708231 -92.84869831 22.08677385 -99 22 C-98.265625 17.265625 -98.265625 17.265625 -95.875 14.875 C-88.26243578 9.9102842 -82.40481263 9.60297435 -73.4453125 9.69921875 C-70.94791404 9.6915697 -68.45051804 9.68307862 -65.953125 9.67382812 C-62.05220999 9.67602569 -58.15179617 9.68730918 -54.25097656 9.71508789 C-37.4721833 9.80797126 -23.7873936 9.14851121 -8.77001953 1.31518555 C-5.6216021 -0.17966063 -3.44306166 -0.24593298 0 0 Z " fill="#F6E7A8" transform="translate(202,155)"/>
<path d="M0 0 C0.99 1.485 0.99 1.485 2 3 C-3.8497797 5.39990962 -9.52692878 5.72692188 -15.6875 4.4375 C-18.03244725 3.84828483 -18.03244725 3.84828483 -20.5078125 4.47265625 C-25.09261449 5.16499212 -29.55991162 5.06701793 -34.1875 5 C-35.97259541 4.97448041 -37.7577622 4.95345121 -39.54296875 4.9375 C-40.32696045 4.92589844 -41.11095215 4.91429687 -41.91870117 4.90234375 C-44.19702278 4.9148875 -44.19702278 4.9148875 -47 6 C-48.33798094 5.68584095 -49.67091466 5.34988718 -51 5 C-52.7285893 4.95531918 -54.45877347 4.96098784 -56.1875 5 C-64.14924403 5.07892683 -72.06012608 4.52681628 -80 4 C-80 2.68 -80 1.36 -80 0 C-78.60470871 -0.62620916 -77.20873879 -1.25090631 -75.8125 -1.875 C-74.64654297 -2.39707031 -74.64654297 -2.39707031 -73.45703125 -2.9296875 C-55.10014757 -10.92616783 -16.46352204 -14.09930869 0 0 Z " fill="#ACCBE7" transform="translate(179,58)"/>
<path d="M0 0 C0.99 0.495 0.99 0.495 2 1 C-2.30201951 7.34928282 -6.53485872 12.48924205 -14 15 C-17.25 14.8125 -17.25 14.8125 -21 14 C-27.78403147 13.73311551 -34.28944907 13.96760755 -41 15 C-43.29933192 15.03155172 -45.58818873 15.00282235 -47.88671875 14.9375 C-50.07099121 15.00209956 -51.88848191 15.46586104 -54 16 C-57.9375 16 -57.9375 16 -59.90234375 15.9375 C-62.05270266 15.93792193 -62.05270266 15.93792193 -64.31518555 16.5 C-66.97824778 16.99594903 -69.3505764 17.09936726 -72.0546875 17.0625 C-72.99957031 17.05476563 -73.94445312 17.04703125 -74.91796875 17.0390625 C-76.88151178 17.01312402 -78.84505347 16.98708318 -80.80859375 16.9609375 C-85.99726705 16.91858098 -90.88834453 17.08872994 -96 18 C-95.67 15.36 -95.34 12.72 -95 10 C-94.41508789 10.00523682 -93.83017578 10.01047363 -93.22753906 10.01586914 C-90.56837037 10.03670158 -87.90921889 10.04968007 -85.25 10.0625 C-84.32960938 10.07087891 -83.40921875 10.07925781 -82.4609375 10.08789062 C-81.57148437 10.09111328 -80.68203125 10.09433594 -79.765625 10.09765625 C-78.54020996 10.10551147 -78.54020996 10.10551147 -77.29003906 10.11352539 C-75.05161139 10.00255856 -73.16422618 9.54650251 -71 9 C-67.1875 9.0625 -67.1875 9.0625 -65.29296875 9.16015625 C-62.81366096 9.06861609 -62.81366096 9.06861609 -59.80078125 8.06640625 C-55.52310647 6.86619534 -51.40695561 6.32604747 -47 5.875 C-46.23171875 5.78863281 -45.4634375 5.70226562 -44.671875 5.61328125 C-40.08636996 5.12197714 -35.61099217 4.91415706 -31 5 C-31 4.34 -31 3.68 -31 3 C-24.07 2.01 -24.07 2.01 -17 1 C-17 1.66 -17 2.32 -17 3 C-15.10489301 3.08160748 -13.20875496 3.13946459 -11.3125 3.1875 C-9.72888672 3.23970703 -9.72888672 3.23970703 -8.11328125 3.29296875 C-4.63539584 2.9656897 -2.89966565 1.8535516 0 0 Z " fill="#FADD60" transform="translate(197,166)"/>
<path d="M0 0 C4.08327357 -0.0580772 8.16644083 -0.09362249 12.25 -0.125 C13.98830078 -0.15013672 13.98830078 -0.15013672 15.76171875 -0.17578125 C16.87675781 -0.18222656 17.99179688 -0.18867187 19.140625 -0.1953125 C20.68024902 -0.21102295 20.68024902 -0.21102295 22.25097656 -0.22705078 C25.01984288 0.00163889 26.64418792 0.5756701 29 2 C28.67 2.99 28.34 3.98 28 5 C11.96372706 8.16348312 11.96372706 8.16348312 3.96875 8.81640625 C1.8669135 8.97497839 1.8669135 8.97497839 -0.6875 9.5625 C-3 10 -3 10 -6.1875 9.9375 C-9.17672615 9.98650371 -11.40536683 10.21924895 -14.26953125 10.83984375 C-20.6348688 12.15622793 -27.03611034 13.23685797 -33.44970703 14.28710938 C-34.81714796 14.5124652 -36.18401832 14.74131081 -37.55029297 14.97363281 C-56.92984889 18.26773976 -56.92984889 18.26773976 -65 16 C-65 13.69 -65 11.38 -65 9 C-64.67 10.32 -64.34 11.64 -64 13 C-63.14059814 12.86424561 -62.28119629 12.72849121 -61.39575195 12.58862305 C-58.10478403 12.06952838 -54.81364733 11.55153673 -51.52233887 11.03460693 C-50.05054251 10.80342686 -48.57878134 10.57202267 -47.10705566 10.34039307 C-38.16483665 8.93442569 -29.22012165 7.59274764 -20.25 6.375 C-13.01013584 5.38410421 -6.02679694 4.05130097 1 2 C0.505 1.01 0.505 1.01 0 0 Z " fill="#88BCE7" transform="translate(116,108)"/>
<path d="M0 0 C1.40897804 0.00333092 1.40897804 0.00333092 2.84642029 0.00672913 C3.90744461 0.00680466 4.96846893 0.00688019 6.06164551 0.00695801 C7.21579453 0.01211929 8.36994354 0.01728058 9.55906677 0.02259827 C10.73404221 0.02401321 11.90901764 0.02542816 13.11959839 0.02688599 C16.88981116 0.0325046 20.65996556 0.04506026 24.43016052 0.05775452 C26.97898779 0.06276712 29.52781599 0.06733044 32.0766449 0.07142639 C38.34033685 0.08248007 44.60399452 0.0992363 50.86766052 0.12025452 C50.95360414 4.6806376 50.87591304 7.97823369 48.86766052 12.12025452 C47.05472963 11.97987931 45.24231622 11.83280563 43.43016052 11.68275452 C41.91615662 11.56093811 41.91615662 11.56093811 40.37156677 11.43666077 C37.86766052 11.12025452 37.86766052 11.12025452 36.86766052 10.12025452 C35.19430182 9.97441822 33.51524604 9.8929384 31.83641052 9.83900452 C30.27793396 9.7829303 30.27793396 9.7829303 28.68797302 9.72572327 C27.5922699 9.69091858 26.49656677 9.65611389 25.36766052 9.62025452 C3.47410666 8.90460566 3.47410666 8.90460566 -2.13233948 5.12025452 C-3.06983948 2.99525452 -3.06983948 2.99525452 -3.13233948 1.12025452 C-2.13233948 0.12025452 -2.13233948 0.12025452 0 0 Z " fill="#F8DA7E" transform="translate(141.13233947753906,221.87974548339844)"/>
<path d="M0 0 C1.09139282 -0.00855011 1.09139282 -0.00855011 2.20483398 -0.01727295 C3.73761576 -0.02665515 5.27041708 -0.03322967 6.80322266 -0.03710938 C9.09185264 -0.04673558 11.3795516 -0.0777902 13.66796875 -0.109375 C25.32704346 -0.19300443 37.29644694 0.45403102 48.125 5.203125 C48.125 6.193125 48.125 7.183125 48.125 8.203125 C45.07196342 7.72608803 42.61135661 6.98435096 39.75 5.765625 C20.45801728 -1.48219171 -8.62653189 -0.62007455 -27.33203125 7.85546875 C-30.5925861 9.58341256 -32.76722371 11.15048348 -34.875 14.203125 C-35.76027109 17.88754004 -35.76027109 17.88754004 -35.875 21.203125 C-34.555 21.203125 -33.235 21.203125 -31.875 21.203125 C-31.545 20.213125 -31.215 19.223125 -30.875 18.203125 C-29.225 17.873125 -27.575 17.543125 -25.875 17.203125 C-26.35582031 17.88761719 -26.83664063 18.57210937 -27.33203125 19.27734375 C-29.13202122 22.69048928 -29.36878405 25.18004923 -29.5625 29.015625 C-29.62824219 30.17707031 -29.69398437 31.33851562 -29.76171875 32.53515625 C-29.79910156 33.41558594 -29.83648437 34.29601562 -29.875 35.203125 C-30.926875 35.14125 -31.97875 35.079375 -33.0625 35.015625 C-37.07777018 35.2130973 -38.63639751 35.982369 -41.875 38.203125 C-42.535 38.203125 -43.195 38.203125 -43.875 38.203125 C-44.69395984 17.11490907 -44.69395984 17.11490907 -39.875 11.203125 C-30.02745339 1.46597689 -13.16420618 0.08299413 0 0 Z " fill="#266AA2" transform="translate(130.875,48.796875)"/>
<path d="M0 0 C0.33 0 0.66 0 1 0 C1.1875 2.375 1.1875 2.375 1 5 C-2.45058686 7.30039124 -4.94095502 7.4738275 -9 8 C-9.33 8.33 -9.66 8.66 -10 9 C-11.67764071 9.35558587 -13.36654689 9.65839949 -15.05859375 9.9375 C-16.08404297 10.11023438 -17.10949219 10.28296875 -18.16601562 10.4609375 C-19.24560547 10.63882813 -20.32519531 10.81671875 -21.4375 11 C-23.5616786 11.35127219 -25.68540344 11.70530289 -27.80859375 12.0625 C-28.75532959 12.21847656 -29.70206543 12.37445313 -30.67749023 12.53515625 C-33.01234469 12.89659698 -33.01234469 12.89659698 -35 14 C-36.54010026 14.1174206 -38.08466989 14.17883647 -39.62890625 14.2109375 C-40.57386963 14.23728271 -41.51883301 14.26362793 -42.49243164 14.29077148 C-43.5055542 14.31856689 -44.51867676 14.3463623 -45.5625 14.375 C-56.52018519 14.75916496 -67.66254913 15.47429455 -78.109375 19.0703125 C-82.71492208 20.55155602 -87.22416189 20.7641341 -92 20 C-94.25 17.6875 -94.25 17.6875 -95 15 C-94.67 14.01 -94.34 13.02 -94 12 C-94 12.66 -94 13.32 -94 14 C-83.58576099 14.34935456 -73.92149659 13.34128269 -63.6875 11.625 C-62.28595756 11.40010322 -60.8842647 11.17614174 -59.48242188 10.953125 C-53.90839075 10.05519978 -48.35782197 9.13147893 -42.859375 7.83984375 C-39.57454575 7.12502767 -36.89477062 6.80420918 -33.5625 6.9375 C-30.14426985 7.12496533 -30.14426985 7.12496533 -27 6 C-24.6924479 5.65284614 -22.37860936 5.34701699 -20.0625 5.0625 C-15.23814924 4.44330709 -10.42334626 3.80077526 -5.625 3 C-4.75101562 2.855625 -3.87703125 2.71125 -2.9765625 2.5625 C-2.32429688 2.376875 -1.67203125 2.19125 -1 2 C-0.67 1.34 -0.34 0.68 0 0 Z " fill="#64A5DB" transform="translate(145,110)"/>
<path d="M0 0 C3.52038915 -0.14636388 7.03998695 -0.23442023 10.5625 -0.3125 C12.0484668 -0.3753418 12.0484668 -0.3753418 13.56445312 -0.43945312 C20.4282204 -0.55346919 23.91301277 0.30006615 29 5 C30.4375 7.8125 30.4375 7.8125 31 10 C25.37101513 13.65980074 20.19011331 13.35268672 13.625 13.1875 C12.09166016 13.16719727 12.09166016 13.16719727 10.52734375 13.14648438 C8.01767951 13.11130217 5.5091191 13.06207539 3 13 C3 12.34 3 11.68 3 11 C2.34 11 1.68 11 1 11 C-0.17683626 7.32238669 -0.03578346 3.83330292 0 0 Z " fill="#F6E496" transform="translate(205,109)"/>
<path d="M0 0 C0.99 0.495 0.99 0.495 2 1 C-1.46095128 6.13560513 -3.95204743 7.74663141 -10.01171875 8.96875 C-10.66785156 8.9790625 -11.32398438 8.989375 -12 9 C-12.99 8.01 -12.99 8.01 -14 7 C-16.16873157 6.89244202 -16.16873157 6.89244202 -18.75 7.9375 C-24.46511438 9.6169945 -33.59466504 11.72223837 -39.0390625 8.96875 C-41.94109988 7.53507416 -44.04185445 8.19378071 -47.1875 8.75 C-48.3425 8.94851562 -49.4975 9.14703125 -50.6875 9.3515625 C-53.37821605 9.87828286 -56.02657323 10.46927162 -58.6875 11.125 C-61.92788174 11.90388075 -64.79526627 12.04264949 -68.125 11.9375 C-71.71660806 11.83299686 -72.96135748 11.98104329 -76.3125 13.625 C-81.91969062 15.71581684 -87.29804527 14.56183977 -93 13 C-93.33 12.34 -93.66 11.68 -94 11 C-93.44538086 10.97494385 -92.89076172 10.9498877 -92.31933594 10.92407227 C-89.79601157 10.80772073 -87.27302464 10.68517246 -84.75 10.5625 C-83.87730469 10.52318359 -83.00460938 10.48386719 -82.10546875 10.44335938 C-81.26113281 10.40146484 -80.41679688 10.35957031 -79.546875 10.31640625 C-78.77182617 10.27974854 -77.99677734 10.24309082 -77.19824219 10.20532227 C-75.00602477 10.05851272 -75.00602477 10.05851272 -72.95410156 9.47631836 C-70.3815971 8.84926236 -67.92122568 9.02467909 -65.29296875 9.16015625 C-62.81366096 9.06861609 -62.81366096 9.06861609 -59.80078125 8.06640625 C-55.52310647 6.86619534 -51.40695561 6.32604747 -47 5.875 C-46.23171875 5.78863281 -45.4634375 5.70226562 -44.671875 5.61328125 C-40.08636996 5.12197714 -35.61099217 4.91415706 -31 5 C-31 4.34 -31 3.68 -31 3 C-24.07 2.01 -24.07 2.01 -17 1 C-17 1.66 -17 2.32 -17 3 C-15.10489301 3.08160748 -13.20875496 3.13946459 -11.3125 3.1875 C-9.72888672 3.23970703 -9.72888672 3.23970703 -8.11328125 3.29296875 C-4.63539584 2.9656897 -2.89966565 1.8535516 0 0 Z " fill="#F8E286" transform="translate(197,166)"/>
<path d="M0 0 C1.35254883 -0.00386719 1.35254883 -0.00386719 2.73242188 -0.0078125 C3.67279297 -0.00007812 4.61316406 0.00765625 5.58203125 0.015625 C6.50306641 0.00789062 7.42410156 0.00015625 8.37304688 -0.0078125 C14.0543969 0.00831624 18.94528461 0.65198205 24.39453125 2.265625 C22.39453125 4.265625 22.39453125 4.265625 19.33203125 4.453125 C16.49228762 4.31789911 13.82374999 4.07636602 11.01953125 3.703125 C6.43655571 3.15285349 1.90167121 3.16980873 -2.60546875 4.265625 C-4.8562192 6.09674348 -4.8562192 6.09674348 -4.87109375 8.796875 C-4.8659375 9.7765625 -4.86078125 10.75625 -4.85546875 11.765625 C-4.860625 12.7453125 -4.86578125 13.725 -4.87109375 14.734375 C-4.8562192 17.43450652 -4.8562192 17.43450652 -2.60546875 19.265625 C3.20422977 21.98810704 9.02886565 22.62762927 15.36328125 23.01953125 C18.2358224 23.25274013 20.94673516 23.69691461 23.76953125 24.265625 C28.069268 25.11310934 32.26969808 25.50664967 36.64453125 25.765625 C41.54612556 26.06187521 45.77638496 26.61628704 50.39453125 28.265625 C50.39453125 28.595625 50.39453125 28.925625 50.39453125 29.265625 C32.61354592 32.09494091 12.67057911 30.46981173 -3.60546875 22.265625 C-4.80171875 21.770625 -5.99796875 21.275625 -7.23046875 20.765625 C-10.16308247 17.67866319 -10.01437595 16.43565112 -10.10546875 12.265625 C-9.990458 8.43193318 -9.74464246 5.50329332 -7.60546875 2.265625 C-4.43645747 0.15295081 -3.62964615 0.01006936 0 0 Z " fill="#EECD6D" transform="translate(105.60546875,240.734375)"/>
<path d="M0 0 C2.86262257 2.00992648 4.64014872 3.43748788 5.4453125 6.93359375 C5.66317186 10.77518043 5.2331958 12.63465991 3.125 15.9375 C0.43129792 18.55197555 -0.48486535 18.94056139 -4.25 19.375 C-9.13275687 18.88672431 -10.85859952 17.75435667 -14 14 C-14.8022085 10.83127643 -14.78700567 8.17100095 -14 5 C-9.58491896 -0.57694447 -6.89565639 -1.63625745 0 0 Z " fill="#FCFCFD" transform="translate(115,66)"/>
<path d="M0 0 C2.86262257 2.00992648 4.64014872 3.43748788 5.4453125 6.93359375 C5.66317186 10.77518043 5.2331958 12.63465991 3.125 15.9375 C0.43129792 18.55197555 -0.48486535 18.94056139 -4.25 19.375 C-9.13275687 18.88672431 -10.85859952 17.75435667 -14 14 C-14.8022085 10.83127643 -14.78700567 8.17100095 -14 5 C-9.58491896 -0.57694447 -6.89565639 -1.63625745 0 0 Z " fill="#FEFEFC" transform="translate(175,234)"/>
<path d="M0 0 C1.27617187 0.00515625 2.55234375 0.0103125 3.8671875 0.015625 C10.52683103 0.07066338 17.02452591 0.35843269 23.625 1.25 C21.5625 3.75 21.5625 3.75 18.625 6.25 C15.125 6.4375 15.125 6.4375 11.625 6.25 C10.325625 6.7759375 10.325625 6.7759375 9 7.3125 C6.12309981 8.4481185 4.55171993 8.08620569 1.625 7.25 C1.625 7.58 1.625 7.91 1.625 8.25 C-1.25026069 8.1083467 -4.12513536 7.96181468 -7 7.8125 C-7.80824219 7.77318359 -8.61648437 7.73386719 -9.44921875 7.69335938 C-13.82650865 7.46203918 -18.06047281 7.08079083 -22.375 6.25 C-21.375 3.25 -21.375 3.25 -18.7109375 1.578125 C-12.77540715 -0.74039425 -6.26136488 -0.10058417 0 0 Z " fill="#F7ECB0" transform="translate(130.375,164.75)"/>
<path d="M0 0 C1.48337608 0.00848969 1.48337608 0.00848969 2.99671936 0.01715088 C6.13503768 0.03942485 9.27218682 0.08960502 12.41015625 0.140625 C14.54620739 0.16070158 16.68227655 0.17895032 18.81835938 0.1953125 C24.03685285 0.23925989 29.25467099 0.3060813 34.47265625 0.390625 C34.47265625 0.720625 34.47265625 1.050625 34.47265625 1.390625 C33.43367188 1.58398438 32.3946875 1.77734375 31.32421875 1.9765625 C29.91535832 2.23954978 28.50650461 2.50257309 27.09765625 2.765625 C26.36393799 2.90210449 25.63021973 3.03858398 24.87426758 3.17919922 C20.9581227 3.91113251 17.05618379 4.68211506 13.16015625 5.515625 C8.79007976 6.4131828 4.44323976 6.76272234 0 7.10546875 C-2.74617481 7.3419825 -2.74617481 7.3419825 -6.15234375 8.453125 C-10.35991827 9.6218957 -14.1930503 9.56753494 -18.52734375 9.390625 C-18.46484375 7.140625 -18.46484375 7.140625 -17.52734375 4.390625 C-11.73292859 0.1007777 -7.06288625 -0.15378154 0 0 Z " fill="#C5D7E7" transform="translate(71.52734375,108.609375)"/>
<path d="M0 0 C4.08327357 -0.0580772 8.16644083 -0.09362249 12.25 -0.125 C13.98830078 -0.15013672 13.98830078 -0.15013672 15.76171875 -0.17578125 C16.87675781 -0.18222656 17.99179688 -0.18867187 19.140625 -0.1953125 C20.68024902 -0.21102295 20.68024902 -0.21102295 22.25097656 -0.22705078 C25.01984288 0.00163889 26.64418792 0.5756701 29 2 C28.67 2.99 28.34 3.98 28 5 C11.96372706 8.16348312 11.96372706 8.16348312 3.96875 8.81640625 C1.8669135 8.97497839 1.8669135 8.97497839 -0.6875 9.5625 C-3 10 -3 10 -6.1875 9.9375 C-9.17672615 9.98650371 -11.40536683 10.21924895 -14.26953125 10.83984375 C-20.6348688 12.15622793 -27.03611034 13.23685797 -33.44970703 14.28710938 C-34.81714796 14.5124652 -36.18401832 14.74131081 -37.55029297 14.97363281 C-45.39256122 16.30664944 -53.02224482 17.40552798 -61 17 C-57.01804167 14.84319712 -53.19426602 14.35487052 -48.75 13.8125 C-35.83804774 12.10907936 -23.03698019 9.78382537 -10.21582031 7.51293945 C-8.9568544 7.28996437 -8.9568544 7.28996437 -7.67245483 7.06248474 C-6.0318803 6.77153447 -4.391435 6.47985441 -2.75112915 6.18739319 C2.80972869 5.19877941 8.37851769 4.27567861 13.96069336 3.41430664 C15.98573937 3.1983175 15.98573937 3.1983175 17 2 C11.39 1.67 5.78 1.34 0 1 C0 0.67 0 0.34 0 0 Z " fill="#6EAFE5" transform="translate(116,108)"/>
<path d="M0 0 C17.49 0 34.98 0 53 0 C53 1.65 53 3.3 53 5 C47.63576892 6.93112319 45.27064804 6.86022872 40 5 C38.59347791 4.94609947 37.18428918 4.95078453 35.77734375 4.9921875 C28.62142581 5.07428216 21.50770453 4.50548061 14.375 4 C12.97528195 3.90333349 11.57554245 3.80697712 10.17578125 3.7109375 C6.78363137 3.47699613 3.39172983 3.23994175 0 3 C0 2.01 0 1.02 0 0 Z " fill="#F7E098" transform="translate(139,222)"/>
<path d="M0 0 C0.99 0.495 0.99 0.495 2 1 C-2.16575386 7.0403431 -6.97134218 9.36039073 -14 11 C-18.38226046 11.3875113 -22.73242561 11.35073339 -27.12890625 11.29296875 C-28.35915024 11.28872391 -29.58939423 11.28447906 -30.85691833 11.28010559 C-34.75900816 11.26340766 -38.66056812 11.22577075 -42.5625 11.1875 C-45.21939348 11.17073803 -47.87628198 11.15875539 -50.53320312 11.14648438 C-57.02231405 11.11353318 -63.51111915 11.06342238 -70 11 C-70 10.67 -70 10.34 -70 10 C-72.64 9.67 -75.28 9.34 -78 9 C-78 8.67 -78 8.34 -78 8 C-76.83061386 7.99453156 -76.83061386 7.99453156 -75.63760376 7.98895264 C-68.25294042 7.95092096 -60.86877316 7.89389842 -53.48443031 7.81609726 C-49.68898538 7.77676352 -45.89376755 7.74450672 -42.09814453 7.72900391 C-38.427935 7.71374324 -34.75835041 7.67913464 -31.08842087 7.63169098 C-29.69561605 7.61697323 -28.30272195 7.60896456 -26.90983963 7.60811615 C-16.55098894 7.59547302 -8.28175993 6.53619437 0 0 Z " fill="#CFB947" transform="translate(187,154)"/>
<path d="M0 0 C7.81499434 0.59965142 15.59098171 0.67932714 23.42626953 0.65771484 C25.77122263 0.65228557 28.11598964 0.65773401 30.4609375 0.6640625 C31.97265667 0.66340269 33.48437572 0.66212355 34.99609375 0.66015625 C36.03213745 0.6631926 36.03213745 0.6631926 37.08911133 0.66629028 C41.07633298 0.64710445 44.83340574 0.29211022 48.74609375 -0.47265625 C48.74609375 0.18734375 48.74609375 0.84734375 48.74609375 1.52734375 C44.95117226 2.79231758 41.27765254 2.85182246 37.31640625 3.02734375 C36.07538651 3.08825195 36.07538651 3.08825195 34.80929565 3.15039062 C32.16340379 3.28005606 29.51730068 3.40428672 26.87109375 3.52734375 C24.23203816 3.65056064 21.59308423 3.77508096 18.95431519 3.90429688 C17.31282277 3.98467405 15.67115913 4.06164669 14.02932739 4.13476562 C10.97327679 4.28431922 8.07879662 4.46023149 5.07495117 5.06616211 C2.23695146 5.62816876 -0.32240331 5.53956696 -3.2109375 5.40625 C-4.87866211 5.33374023 -4.87866211 5.33374023 -6.58007812 5.25976562 C-7.73056641 5.20369141 -8.88105469 5.14761719 -10.06640625 5.08984375 C-11.23623047 5.03763672 -12.40605469 4.98542969 -13.61132812 4.93164062 C-16.49247899 4.80228283 -19.3732554 4.6673291 -22.25390625 4.52734375 C-22.25390625 3.86734375 -22.25390625 3.20734375 -22.25390625 2.52734375 C-15.01218594 -0.63526138 -7.7913569 -0.69621385 0 0 Z " fill="#F7D875" transform="translate(168.25390625,207.47265625)"/>
<path d="M0 0 C1.3242287 0.36784131 2.65613912 0.71202981 4 1 C0.90105592 4.09894408 -2.80537751 3.88460461 -7 4 C-10.56766148 3.76082716 -14.11332202 3.44557549 -17.66796875 3.05859375 C-21.28682838 2.99495612 -23.62484715 3.75978635 -27 5 C-29.1375245 5.40127761 -31.28449419 5.75492774 -33.4375 6.0625 C-34.57960938 6.2275 -35.72171875 6.3925 -36.8984375 6.5625 C-37.92195313 6.706875 -38.94546875 6.85125 -40 7 C-41.7634375 7.2784375 -41.7634375 7.2784375 -43.5625 7.5625 C-48.69342962 8.21552741 -53.84380545 8.60206709 -59 9 C-58.67 6.36 -58.34 3.72 -58 1 C-57.34 1.66 -56.68 2.32 -56 3 C-48.84559171 4.94000454 -42.91899853 5.59502393 -36.0390625 2.73046875 C-33.3750888 1.77613334 -30.88345428 1.90349598 -28.08203125 2.01953125 C-23.97814797 1.98103328 -19.99706352 0.85896781 -16 0 C-13.87862594 -0.43475073 -11.75343334 -0.85124241 -9.625 -1.25 C-8.64789063 -1.44078125 -7.67078125 -1.6315625 -6.6640625 -1.828125 C-3.697628 -2.01950787 -2.49806238 -1.51629114 0 0 Z " fill="#FAE472" transform="translate(160,175)"/>
<path d="M0 0 C0.99 0.33 1.98 0.66 3 1 C3.495 2.485 3.495 2.485 4 4 C2.96875 3.9175 1.9375 3.835 0.875 3.75 C-3.71900207 4.04638723 -5.27752266 5.39426586 -9 8 C-14.80371501 10.72512355 -19.99637054 11.23987532 -26.3515625 11.03515625 C-28.7960262 11.00270762 -31.02509529 11.19929409 -33.4375 11.5625 C-36.72565692 11.96630874 -37.96058912 11.77149797 -41 11 C-43.06188136 10.96744703 -43.06188136 10.96744703 -45.1875 11.15625 C-45.96867187 11.20910156 -46.74984375 11.26195312 -47.5546875 11.31640625 C-48.36164063 11.37699219 -49.16859375 11.43757812 -50 11.5 C-51.60373994 11.62040859 -53.20791453 11.73518894 -54.8125 11.84375 C-55.52019531 11.89724609 -56.22789062 11.95074219 -56.95703125 12.00585938 C-59.12642795 11.9996374 -60.92478023 11.60857569 -63 11 C-56.47183532 8.82394511 -48.67467689 6.7751077 -42 9 C-42 8.34 -42 7.68 -42 7 C-40.68 6.34 -39.36 5.68 -38 5 C-38 5.66 -38 6.32 -38 7 C-37.01 6.67 -36.02 6.34 -35 6 C-30.9844957 5.86614986 -27.51670641 5.90605338 -23.5625 6.625 C-15.62411332 7.46061965 -8.12628145 4.26621233 -1 1 C-0.67 0.67 -0.34 0.34 0 0 Z " fill="#F7D674" transform="translate(219,190)"/>
<path d="M0 0 C0.97453125 0.31582031 1.9490625 0.63164062 2.953125 0.95703125 C7.20313053 2.16933142 11.35129556 2.47639289 15.75 2.6875 C16.50410156 2.73455078 17.25820312 2.78160156 18.03515625 2.83007812 C21.34118705 3.00917926 23.83089562 3.05636813 27 2 C27.598125 2.185625 28.19625 2.37125 28.8125 2.5625 C31.16965963 3.22815189 31.16965963 3.22815189 34 1.9375 C37 1 37 1 39.375 1.875 C39.91125 2.24625 40.4475 2.6175 41 3 C37.16587435 5.39632853 33.41121475 5.50986503 29 6 C28.01 6.33 27.02 6.66 26 7 C23.66666667 7 21.33333333 7 19 7 C17.45680629 7.15187847 15.91513081 7.319692 14.375 7.5 C8.25255817 8.1708231 2.15130169 8.08677385 -4 8 C-3.3791378 4.31702134 -2.93325018 2.42311971 0 0 Z " fill="#F9EB98" transform="translate(107,169)"/>
<path d="M0 0 C1.47523473 2.34301986 2.0434163 3.58686677 1.75 6.37890625 C0.32257871 11.36744627 -2.64380328 14.29004042 -7 17 C-11.36617385 18.06880297 -15.62510541 18.08190054 -20.09033203 18.03076172 C-23.70506302 17.9925459 -27.31883961 18.0149736 -30.93359375 18.03515625 C-38.62277903 18.06998622 -46.3108502 18.04707938 -54 18 C-50.20947199 15.47298133 -47.04259695 15.6235892 -42.640625 15.5078125 C-40.95050111 15.44191004 -39.26039745 15.37548719 -37.5703125 15.30859375 C-34.91323333 15.2140131 -32.25622854 15.12518468 -29.59863281 15.04638672 C-27.0284193 14.96645643 -24.45989168 14.86347986 -21.890625 14.7578125 C-20.71212982 14.73257004 -20.71212982 14.73257004 -19.50982666 14.70681763 C-12.91560233 14.41439966 -8.84728055 12.30860585 -3.6875 8.125 C-1.65074451 5.56019679 -0.85641642 3.14019353 0 0 Z " fill="#F1CD68" transform="translate(227,195)"/>
<path d="M0 0 C0.33 0 0.66 0 1 0 C1 1.98 1 3.96 1 6 C18.49 6 35.98 6 54 6 C54 14.91 54 23.82 54 33 C53.67 33 53.34 33 53 33 C52.90912109 31.66195312 52.90912109 31.66195312 52.81640625 30.296875 C52.73261719 29.12640625 52.64882812 27.9559375 52.5625 26.75 C52.48128906 25.58984375 52.40007812 24.4296875 52.31640625 23.234375 C52.12220618 20.18374247 52.12220618 20.18374247 51.42163086 18.06347656 C50.69107293 14.48809983 52.01850909 11.46408555 53 8 C52.02614098 8.00333092 52.02614098 8.00333092 51.03260803 8.00672913 C44.30112252 8.02878002 37.56964719 8.04390577 30.83813477 8.05493164 C28.32283105 8.05997363 25.80753028 8.06680703 23.29223633 8.07543945 C19.68570225 8.08751094 16.07920677 8.09322949 12.47265625 8.09765625 C10.77424339 8.10539818 10.77424339 8.10539818 9.04151917 8.11329651 C8.00051559 8.11337204 6.95951202 8.11344757 5.88696289 8.11352539 C4.96540909 8.115746 4.04385529 8.11796661 3.09437561 8.12025452 C1 8 1 8 0 7 C-0.04092937 4.66702567 -0.04241723 2.33294775 0 0 Z " fill="#D2AE3D" transform="translate(140,213)"/>
<path d="M0 0 C0.72759521 -0.00570007 1.45519043 -0.01140015 2.20483398 -0.01727295 C3.73761576 -0.02665515 5.27041708 -0.03322967 6.80322266 -0.03710938 C9.09185264 -0.04673558 11.3795516 -0.0777902 13.66796875 -0.109375 C25.32704346 -0.19300443 37.29644694 0.45403102 48.125 5.203125 C48.125 6.193125 48.125 7.183125 48.125 8.203125 C45.07196342 7.72608803 42.61135661 6.98435096 39.75 5.765625 C18.80224825 -2.10424859 -9.33417361 0.57896241 -29.875 8.203125 C-30.205 7.213125 -30.535 6.223125 -30.875 5.203125 C-28.54340696 4.55040039 -26.21002204 3.90587298 -23.875 3.265625 C-23.22660156 3.08322266 -22.57820313 2.90082031 -21.91015625 2.71289062 C-21.25917969 2.53564453 -20.60820313 2.35839844 -19.9375 2.17578125 C-19.35097656 2.01343994 -18.76445313 1.85109863 -18.16015625 1.68383789 C-12.13825933 0.4170521 -6.13955326 0.038707 0 0 Z " fill="#3A6F9C" transform="translate(130.875,48.796875)"/>
<path d="M0 0 C0.66 0.33 1.32 0.66 2 1 C2 2.32 2 3.64 2 5 C-1.59642452 7.26441544 -4.50062062 7.1776507 -8.6875 7.0625 C-14.24609476 6.97537469 -19.49788068 7.24108699 -25 8 C-26.32 6.02 -27.64 4.04 -29 2 C-28.34 1.67 -27.68 1.34 -27 1 C-27 1.66 -27 2.32 -27 3 C-23.24940197 2.89000392 -19.49979656 2.75940131 -15.75 2.625 C-14.15478516 2.57859375 -14.15478516 2.57859375 -12.52734375 2.53125 C-11.50253906 2.49257812 -10.47773438 2.45390625 -9.421875 2.4140625 C-8.47924805 2.3826416 -7.53662109 2.3512207 -6.56542969 2.31884766 C-3.9418963 1.99277851 -2.32442453 1.18635883 0 0 Z " fill="#F8DC68" transform="translate(235,119)"/>
<path d="M0 0 C1.65 0 3.3 0 5 0 C3.9375 1.5 3.9375 1.5 2 3 C-1.6875 3.1875 -1.6875 3.1875 -5 3 C-5 2.67 -5 2.34 -5 2 C-3.35 2 -1.7 2 0 2 C0 1.34 0 0.68 0 0 Z M-5 3 C-5.33 3.66 -5.66 4.32 -6 5 C-8.19311523 5.57836914 -8.19311523 5.57836914 -11.05859375 6.03515625 C-12.08404297 6.20466797 -13.10949219 6.37417969 -14.16601562 6.54882812 C-15.24560547 6.71833984 -16.32519531 6.88785156 -17.4375 7.0625 C-19.56163422 7.40485596 -21.68535643 7.74978121 -23.80859375 8.09765625 C-24.75532959 8.24726807 -25.70206543 8.39687988 -26.67749023 8.55102539 C-29.01327454 8.89441988 -29.01327454 8.89441988 -31 10 C-33.0307477 10.15411106 -35.06606421 10.24982453 -37.1015625 10.31640625 C-38.91914062 10.37924805 -38.91914062 10.37924805 -40.7734375 10.44335938 C-42.67996094 10.50233398 -42.67996094 10.50233398 -44.625 10.5625 C-45.90375 10.60568359 -47.1825 10.64886719 -48.5 10.69335938 C-51.66655348 10.79969886 -54.83318753 10.90172833 -58 11 C-55.46491159 8.46491159 -54.17735157 8.5875147 -50.65234375 8.21875 C-49.57146484 8.09886719 -48.49058594 7.97898437 -47.37695312 7.85546875 C-46.24193359 7.73816406 -45.10691406 7.62085937 -43.9375 7.5 C-37.16238687 6.78268145 -30.5369507 6.02059577 -23.90600586 4.43261719 C-17.79126821 3.04471977 -11.24848986 2.8311219 -5 3 Z " fill="#518DC0" transform="translate(141,114)"/>
<path d="M0 0 C0.495 1.98 0.495 1.98 1 4 C-0.65 4 -2.3 4 -4 4 C-4 4.66 -4 5.32 -4 6 C-11.44597162 7.54167694 -18.88955026 8.49864196 -26.45263672 9.21435547 C-31.47103877 9.71984582 -36.12118752 10.72014363 -41 12 C-47.30648637 13.08874195 -53.61660683 13.11993849 -60 13 C-60 12.67 -60 12.34 -60 12 C-58.9941687 11.87939209 -58.9941687 11.87939209 -57.96801758 11.75634766 C-54.91527749 11.38627056 -51.86392751 11.00574201 -48.8125 10.625 C-47.75740234 10.49867187 -46.70230469 10.37234375 -45.61523438 10.2421875 C-44.08286133 10.04882812 -44.08286133 10.04882812 -42.51953125 9.8515625 C-41.58214111 9.73635254 -40.64475098 9.62114258 -39.67895508 9.50244141 C-36.9137311 8.98382016 -34.59074277 8.07759647 -32 7 C-29.73813983 6.62807415 -27.46504505 6.32159234 -25.1875 6.0625 C-19.46931147 5.34702222 -13.79685896 4.52115284 -8.125 3.5 C-7.42914795 3.38148682 -6.7332959 3.26297363 -6.01635742 3.14086914 C-4.33008947 2.82925545 -2.66186257 2.42286579 -1 2 C-0.67 1.34 -0.34 0.68 0 0 Z " fill="#5E9ACD" transform="translate(145,110)"/>
<path d="M0 0 C0 0.33 0 0.66 0 1 C-1.03898437 1.19335938 -2.07796875 1.38671875 -3.1484375 1.5859375 C-4.55729793 1.84892478 -5.96615164 2.11194809 -7.375 2.375 C-8.10871826 2.51147949 -8.84243652 2.64795898 -9.59838867 2.78857422 C-13.51453355 3.52050751 -17.41647246 4.29149006 -21.3125 5.125 C-25.68257649 6.0225578 -30.02941649 6.37209734 -34.47265625 6.71484375 C-37.21883106 6.9513575 -37.21883106 6.9513575 -40.625 8.0625 C-44.83257452 9.2312707 -48.66570655 9.17690994 -53 9 C-49.05882119 5.05882119 -43.97843874 4.75924643 -38.625 4.5 C-33.46373751 4.17155602 -28.97025151 3.37110386 -24 2 C-16.05200399 0.675334 -8.05958537 -0.17520838 0 0 Z " fill="#B6D1E8" transform="translate(106,109)"/>
<path d="M0 0 C7.26 0 14.52 0 22 0 C22 0.99 22 1.98 22 3 C19.23504535 4.8433031 17.11270084 5.11548056 13.875 5.0625 C10.2050965 4.70512683 10.2050965 4.70512683 8 6 C5.6670134 6.04022391 3.33293334 6.04320247 1 6 C0.67 4.02 0.34 2.04 0 0 Z " fill="#F4E8B2" transform="translate(205,109)"/>
<path d="M0 0 C5.81681631 0.4066072 11.63345632 0.81562656 17.44995117 1.22680664 C19.42549132 1.36612928 21.40107672 1.50481191 23.37670898 1.64282227 C26.22912767 1.84219647 29.0813715 2.04393111 31.93359375 2.24609375 C32.80584091 2.3065538 33.67808807 2.36701385 34.57676697 2.42930603 C40.07056333 2.82154367 45.52938438 3.35995005 51 4 C50.67 4.99 50.34 5.98 50 7 C48.18706911 6.85962479 46.3746557 6.71255111 44.5625 6.5625 C43.04849609 6.44068359 43.04849609 6.44068359 41.50390625 6.31640625 C39 6 39 6 38 5 C36.3266413 4.85416371 34.64758552 4.77268388 32.96875 4.71875 C31.41027344 4.66267578 31.41027344 4.66267578 29.8203125 4.60546875 C28.72460938 4.57066406 27.62890625 4.53585938 26.5 4.5 C5.8374881 3.82459102 5.8374881 3.82459102 0 1 C0 0.67 0 0.34 0 0 Z " fill="#F8D363" transform="translate(140,227)"/>
<path d="M0 0 C0.61875 0.495 1.2375 0.99 1.875 1.5 C6.19051643 3.57144789 10.27751329 3.61632454 15 3 C15.99 2.34 16.98 1.68 18 1 C17 3 16 5 15 7 C20.445 6.01 20.445 6.01 26 5 C23.46241955 8.80637067 22.44016128 9.00479144 18 10 C7.88127741 11.3029588 7.88127741 11.3029588 3.890625 8.5390625 C1.28598362 5.59953866 0 4.00480348 0 0 Z " fill="#5085B2" transform="translate(102,81)"/>
<path d="M0 0 C1.35254883 -0.00386719 1.35254883 -0.00386719 2.73242188 -0.0078125 C3.67279297 -0.00007812 4.61316406 0.00765625 5.58203125 0.015625 C6.50306641 0.00789062 7.42410156 0.00015625 8.37304688 -0.0078125 C14.0543969 0.00831624 18.94528461 0.65198205 24.39453125 2.265625 C22.39453125 4.265625 22.39453125 4.265625 19.33203125 4.453125 C16.49228762 4.31789911 13.82374999 4.07636602 11.01953125 3.703125 C6.43655571 3.15285349 1.90167121 3.16980873 -2.60546875 4.265625 C-4.74401725 6.4041735 -5.03201938 7.39837814 -5.60546875 10.265625 C-6.26546875 10.265625 -6.92546875 10.265625 -7.60546875 10.265625 C-7.60546875 12.575625 -7.60546875 14.885625 -7.60546875 17.265625 C-7.93546875 17.265625 -8.26546875 17.265625 -8.60546875 17.265625 C-8.82851316 15.51743909 -9.03333325 13.76692177 -9.23046875 12.015625 C-9.34648438 11.04109375 -9.4625 10.0665625 -9.58203125 9.0625 C-9.60711605 6.06904735 -9.28366042 4.71253672 -7.60546875 2.265625 C-4.43645747 0.15295081 -3.62964615 0.01006936 0 0 Z " fill="#F8DE7B" transform="translate(105.60546875,240.734375)"/>
<path d="M0 0 C0.66 0 1.32 0 2 0 C1.75 2.375 1.75 2.375 1 5 C-1 6.1875 -1 6.1875 -3 7 C-3.33 7.66 -3.66 8.32 -4 9 C-3.401875 8.67 -2.80375 8.34 -2.1875 8 C0 7 0 7 3 7 C3 7.66 3 8.32 3 9 C-1.27720165 12.44935617 -5.71876659 12.6663273 -11 13 C-11.99 11.02 -12.98 9.04 -14 7 C-12.68 7 -11.36 7 -10 7 C-10.66 6.34 -11.32 5.68 -12 5 C-11.07767578 4.83564453 -11.07767578 4.83564453 -10.13671875 4.66796875 C-9.32847656 4.50941406 -8.52023438 4.35085937 -7.6875 4.1875 C-6.88699219 4.03667969 -6.08648437 3.88585937 -5.26171875 3.73046875 C-2.74569185 2.91786593 -1.77405234 1.89891233 0 0 Z " fill="#E6B840" transform="translate(179,248)"/>
<path d="M0 0 C0.66 0 1.32 0 2 0 C2.12375 1.11375 2.2475 2.2275 2.375 3.375 C2.6465813 7.03103677 2.6465813 7.03103677 5 9 C10.85868408 11.74543716 16.72590549 12.35743401 23.11328125 12.75 C26.91380501 13.07913873 30.34088448 13.94448591 34 15 C34 15.33 34 15.66 34 16 C21.77572432 16.71286273 7.89087605 15.78643434 -2 8 C-1.34 7.67 -0.68 7.34 0 7 C0 4.69 0 2.38 0 0 Z " fill="#EACF71" transform="translate(98,251)"/>
<path d="M0 0 C0.99 1.32 1.98 2.64 3 4 C2 6 2 6 -0.23120117 7.11279297 C-3.10674946 8.03420576 -5.29263692 8.23049547 -8.30078125 8.1953125 C-9.76547852 8.18564453 -9.76547852 8.18564453 -11.25976562 8.17578125 C-12.26716797 8.15902344 -13.27457031 8.14226562 -14.3125 8.125 C-15.33923828 8.11597656 -16.36597656 8.10695313 -17.42382812 8.09765625 C-19.94945899 8.07416201 -22.4746081 8.04131131 -25 8 C-25 7.34 -25 6.68 -25 6 C-25.66 5.67 -26.32 5.34 -27 5 C-24.50312671 4.93064241 -22.39760351 4.8757489 -20 5.625 C-17.90553481 6.2040602 -17.90553481 6.2040602 -15.6875 5.0625 C-12.32510111 3.73317951 -9.59811048 3.93687525 -6 4 C-3.9935269 3.70814937 -1.99005807 3.38830401 0 3 C0 2.01 0 1.02 0 0 Z " fill="#F7E080" transform="translate(233,114)"/>
<path d="M0 0 C13.2 0 26.4 0 40 0 C39.67 1.32 39.34 2.64 39 4 C33.6653558 4.18395325 28.71636954 3.87882003 23.4375 3.0625 C15.64108719 1.86108557 7.86978739 1.38837912 0 1 C0 0.67 0 0.34 0 0 Z " fill="#F7E4AE" transform="translate(152,222)"/>
<path d="M0 0 C0.79921875 0.00902344 1.5984375 0.01804688 2.421875 0.02734375 C3.02515625 0.03894531 3.6284375 0.05054688 4.25 0.0625 C3.92 1.0525 3.59 2.0425 3.25 3.0625 C2.60933594 3.02769531 1.96867187 2.99289063 1.30859375 2.95703125 C-4.56756598 2.76511532 -4.56756598 2.76511532 -10.0625 4.6875 C-15.66969062 6.77831684 -21.04804527 5.62433977 -26.75 4.0625 C-27.08 3.4025 -27.41 2.7425 -27.75 2.0625 C-27.19538086 2.03744385 -26.64076172 2.0123877 -26.06933594 1.98657227 C-23.54601157 1.87022073 -21.02302464 1.74767246 -18.5 1.625 C-17.62730469 1.58568359 -16.75460938 1.54636719 -15.85546875 1.50585938 C-15.01113281 1.46396484 -14.16679688 1.42207031 -13.296875 1.37890625 C-12.52182617 1.34224854 -11.74677734 1.30559082 -10.94824219 1.26782227 C-7.16976379 0.91490131 -3.8476752 -0.05658346 0 0 Z " fill="#FAE880" transform="translate(130.75,174.9375)"/>
<path d="M0 0 C8.25 0 16.5 0 25 0 C25 0.99 25 1.98 25 3 C21.93758873 3.64625456 18.87505533 4.29192853 15.8125 4.9375 C14.94818359 5.11990234 14.08386719 5.30230469 13.19335938 5.49023438 C11.52217221 5.84240025 9.85071257 6.19327614 8.17895508 6.54272461 C6.49283843 6.89657295 4.80852429 7.25901646 3.125 7.625 C0.07745906 8.16280134 -2.91421217 8.06050564 -6 8 C-3.21968378 6.4763726 -0.83760682 5.65243397 2.29296875 5.18359375 C3.08767578 5.05919922 3.88238281 4.93480469 4.70117188 4.80664062 C5.9319043 4.62391602 5.9319043 4.62391602 7.1875 4.4375 C12.52072254 4.08387788 12.52072254 4.08387788 17 2 C11.39 1.67 5.78 1.34 0 1 C0 0.67 0 0.34 0 0 Z " fill="#78AFDD" transform="translate(116,108)"/>
<path d="M0 0 C0.9075 0.144375 1.815 0.28875 2.75 0.4375 C8.14026126 1.21547585 13.57239588 1.58112086 19 2 C19 2.33 19 2.66 19 3 C14.38 3.66 9.76 4.32 5 5 C5 5.66 5 6.32 5 7 C3.75 8.625 3.75 8.625 2 10 C0.68 10 -0.64 10 -2 10 C-2.25 3.375 -2.25 3.375 0 0 Z " fill="#8DBDE6" transform="translate(97,60)"/>
<path d="M0 0 C0 0.33 0 0.66 0 1 C-0.95366455 1.14622803 -1.9073291 1.29245605 -2.88989258 1.44311523 C-6.42936453 1.9865391 -9.96829831 2.53340001 -13.50708008 3.08129883 C-15.03851094 3.31791406 -16.570086 3.55359801 -18.10180664 3.78833008 C-20.30393463 4.12596591 -22.50552168 4.46695177 -24.70703125 4.80859375 C-25.73374687 4.96490517 -25.73374687 4.96490517 -26.78120422 5.12437439 C-29.63383282 5.56991888 -32.25376532 6.08458844 -35 7 C-36.39439664 7.06665376 -37.79169875 7.08538199 -39.1875 7.0625 C-41.0746875 7.0315625 -41.0746875 7.0315625 -43 7 C-43 6.67 -43 6.34 -43 6 C-41.02 6 -39.04 6 -37 6 C-37 5.34 -37 4.68 -37 4 C-32.71019217 3.32099863 -28.4179103 2.65907752 -24.125 2 C-22.92101562 1.80921875 -21.71703125 1.6184375 -20.4765625 1.421875 C-13.58970487 0.37387493 -6.96713537 -0.28971051 0 0 Z " fill="#7DB7E9" transform="translate(104,116)"/>
<path d="M0 0 C0.66 0.66 1.32 1.32 2 2 C5.50444514 3.3767463 8.37876628 2.7407069 12 2 C11 4 11 4 8.5859375 5.1171875 C3.87067017 6.27802673 -0.5416344 6.21463445 -5.375 6.125 C-6.76525391 6.11146484 -6.76525391 6.11146484 -8.18359375 6.09765625 C-10.45600077 6.07422937 -12.7278618 6.04142748 -15 6 C-15 5.34 -15 4.68 -15 4 C-13.989375 3.87625 -12.97875 3.7525 -11.9375 3.625 C-5.52246451 2.85599178 -5.52246451 2.85599178 0 0 Z " fill="#FADD71" transform="translate(182,171)"/>
<path d="M0 0 C-0.33 0.99 -0.66 1.98 -1 3 C-16.98875084 6.15410842 -16.98875084 6.15410842 -25.00390625 6.81640625 C-27.37918158 7.0348758 -29.67793902 7.45818577 -32 8 C-32.33 7.34 -32.66 6.68 -33 6 C-32.410979 5.89453857 -31.82195801 5.78907715 -31.21508789 5.68041992 C-28.49627729 5.18960124 -25.77943169 4.68861081 -23.0625 4.1875 C-22.13630859 4.02185547 -21.21011719 3.85621094 -20.25585938 3.68554688 C-14.92134759 2.69351486 -9.94004199 1.43645405 -4.87280273 -0.51831055 C-3 -1 -3 -1 0 0 Z " fill="#6BA6D9" transform="translate(145,110)"/>
<path d="M0 0 C0.99 0.33 1.98 0.66 3 1 C2 3 2 3 0 3.75 C-2.36247285 4.90165132 -2.36247285 4.90165132 -2.75 8.125 C-2.8325 9.07375 -2.915 10.0225 -3 11 C-1.80375 10.67 -0.6075 10.34 0.625 10 C4.15791497 9.10734177 7.34079109 8.81703955 11 9 C11 9.99 11 10.98 11 12 C5.39 12 -0.22 12 -6 12 C-6 6 -6 6 -4.6875 4.1015625 C-2.34375 2.05078125 -2.34375 2.05078125 0 0 Z " fill="#5187B3" transform="translate(96,87)"/>
<path d="M0 0 C0.33 0.33 0.66 0.66 1 1 C2.51469448 1.23192865 4.03754562 1.41215238 5.5625 1.5625 C6.38878906 1.64628906 7.21507812 1.73007813 8.06640625 1.81640625 C8.70449219 1.87699219 9.34257812 1.93757812 10 2 C10 2.33 10 2.66 10 3 C2.47817411 4.12827388 2.47817411 4.12827388 0.12792969 3.49780273 C-2.12889917 2.96984564 -3.88303728 2.98205109 -6.1875 3.15625 C-6.96867187 3.20910156 -7.74984375 3.26195312 -8.5546875 3.31640625 C-9.76511719 3.40728516 -9.76511719 3.40728516 -11 3.5 C-12.60373994 3.62040859 -14.20791453 3.73518894 -15.8125 3.84375 C-16.52019531 3.89724609 -17.22789062 3.95074219 -17.95703125 4.00585938 C-20.12642795 3.9996374 -21.92478023 3.60857569 -24 3 C-16.19752384 0.45571429 -8.19229067 -0.34860811 0 0 Z " fill="#F9DD7E" transform="translate(180,198)"/>
<path d="M0 0 C2.475 0.99 2.475 0.99 5 2 C5 2.99 5 3.98 5 5 C2.54256214 5.36173964 0.08441207 5.71468169 -2.375 6.0625 C-3.07367188 6.16626953 -3.77234375 6.27003906 -4.4921875 6.37695312 C-9.7734375 7.11328125 -9.7734375 7.11328125 -12 6 C-12 5.01 -12 4.02 -12 3 C-10.14375 3.0309375 -10.14375 3.0309375 -8.25 3.0625 C-5.3359175 3.06766681 -2.79046673 2.93015558 0 2 C0 1.34 0 0.68 0 0 Z " fill="#F6E7A6" transform="translate(227,110)"/>
<path d="M0 0 C-7.60980918 5.07320612 -17.10602988 5.47271101 -26 5 C-26.33 4.34 -26.66 3.68 -27 3 C-23.43826523 2.4944461 -19.87550181 1.99653886 -16.3125 1.5 C-14.80139648 1.28537109 -14.80139648 1.28537109 -13.25976562 1.06640625 C-11.79506836 0.86337891 -11.79506836 0.86337891 -10.30078125 0.65625 C-9.40528564 0.53056641 -8.50979004 0.40488281 -7.5871582 0.27539062 C-5.03602639 0.00383484 -2.5633257 -0.04847897 0 0 Z " fill="#5395CD" transform="translate(79,125)"/>
<path d="M0 0 C0 3.10551666 -0.5393715 4.35261084 -2 7 C-1.01 7.33 -0.02 7.66 1 8 C-5.32229282 11.41672846 -10.85117349 11.3590498 -17.9375 11.1875 C-19.00291016 11.17396484 -20.06832031 11.16042969 -21.16601562 11.14648438 C-23.77787588 11.11134724 -26.38866634 11.06215184 -29 11 C-29 10.67 -29 10.34 -29 10 C-28.40574219 10.01683838 -27.81148437 10.03367676 -27.19921875 10.05102539 C-15.49448279 10.66986803 -15.49448279 10.66986803 -4.82421875 6.9296875 C-2.91343094 4.70101726 -1.35926147 2.59781633 0 0 Z " fill="#E0B851" transform="translate(233,202)"/>
<path d="M0 0 C15.51 0 31.02 0 47 0 C47 0.33 47 0.66 47 1 C31.49 1 15.98 1 0 1 C0 0.67 0 0.34 0 0 Z " fill="#FFFFFF" transform="translate(152,215)"/>
<path d="M0 0 C0 0.33 0 0.66 0 1 C-1.2375 1.061875 -2.475 1.12375 -3.75 1.1875 C-6.97336709 1.61117525 -7.9264275 1.94078311 -10.5625 4.0625 C-12.57819822 8.18153549 -11.90463417 10.55221534 -11 15 C-11.99 15 -12.98 15 -14 15 C-14 11.04 -14 7.08 -14 3 C-8.8269357 -0.48390045 -6.32765881 -1.54963073 0 0 Z " fill="#3776AA" transform="translate(101,84)"/>
<path d="M0 0 C7.89723556 -0.48350422 15.33532703 1.32335279 23 3 C23 3.33 23 3.66 23 4 C15.10042938 4.27990605 7.7527507 3.51537186 0 2 C0 1.34 0 0.68 0 0 Z " fill="#F4D77C" transform="translate(109,263)"/>
<path d="M0 0 C0 0.66 0 1.32 0 2 C-6.93 2 -13.86 2 -21 2 C-21 1.67 -21 1.34 -21 1 C-13.89699758 -1.06632798 -7.23015081 -2.03551543 0 0 Z " fill="#5284AD" transform="translate(133,97)"/>
<path d="M0 0 C0.66 0.33 1.32 0.66 2 1 C-1.04194569 5.41082125 -3.3030647 7.61965243 -8.625 8.8125 C-9.73875 8.874375 -10.8525 8.93625 -12 9 C-12.66 8.34 -13.32 7.68 -14 7 C-13.32453125 6.74605469 -12.6490625 6.49210938 -11.953125 6.23046875 C-11.06109375 5.88628906 -10.1690625 5.54210937 -9.25 5.1875 C-8.36828125 4.85105469 -7.4865625 4.51460937 -6.578125 4.16796875 C-4.06960192 3.03153178 -2.12720995 1.73457073 0 0 Z " fill="#C9AD39" transform="translate(187,154)"/>
<path d="M0 0 C0.66 0 1.32 0 2 0 C1.73398598 3.28083961 1.37218909 4.65036782 -1.0625 6.9375 C-5.31501692 8.47564442 -7.74056042 7.37168393 -12 6 C-12 5.67 -12 5.34 -12 5 C-11.07767578 4.83564453 -11.07767578 4.83564453 -10.13671875 4.66796875 C-9.32847656 4.50941406 -8.52023438 4.35085937 -7.6875 4.1875 C-6.88699219 4.03667969 -6.08648437 3.88585937 -5.26171875 3.73046875 C-2.74569185 2.91786593 -1.77405234 1.89891233 0 0 Z " fill="#E6BE52" transform="translate(179,248)"/>
<path d="M0 0 C0.33 0 0.66 0 1 0 C1 8.58 1 17.16 1 26 C0.67 26 0.34 26 0 26 C-0.06058594 25.10796875 -0.12117187 24.2159375 -0.18359375 23.296875 C-0.26738281 22.12640625 -0.35117188 20.9559375 -0.4375 19.75 C-0.51871094 18.58984375 -0.59992188 17.4296875 -0.68359375 16.234375 C-0.89004623 13.15567046 -0.89004623 13.15567046 -1.59375 10.875 C-2.12549688 8.42078361 -1.6682395 6.67295799 -1.0625 4.25 C-0.86785156 3.45078125 -0.67320312 2.6515625 -0.47265625 1.828125 C-0.31667969 1.22484375 -0.16070312 0.6215625 0 0 Z " fill="#D2A837" transform="translate(193,220)"/>
<path d="M0 0 C5.28 0 10.56 0 16 0 C13.44140949 2.55859051 12.1165285 2.37012943 8.5625 2.625 C7.11037109 2.73714844 7.11037109 2.73714844 5.62890625 2.8515625 C3.75493674 2.95737356 1.87695437 3 0 3 C0 2.01 0 1.02 0 0 Z " fill="#F5ECBE" transform="translate(205,110)"/>
<path d="M0 0 C2.375 -0.125 2.375 -0.125 5 0 C5.66 0.66 6.32 1.32 7 2 C9.22329971 2.46240343 9.22329971 2.46240343 11.7890625 2.6328125 C12.73007813 2.71660156 13.67109375 2.80039063 14.640625 2.88671875 C15.62546875 2.96535156 16.6103125 3.04398437 17.625 3.125 C18.61757812 3.21136719 19.61015625 3.29773438 20.6328125 3.38671875 C23.08797111 3.5991844 25.54353974 3.80325544 28 4 C28 4.33 28 4.66 28 5 C5.97931034 5.48103448 5.97931034 5.48103448 0 0 Z " fill="#4C8CC2" transform="translate(130,75)"/>
<path d="M0 0 C0.33 0.66 0.66 1.32 1 2 C-2.34939881 4.02558881 -4.86962551 4.21738987 -8.75 4.125 C-9.73484375 4.10695313 -10.7196875 4.08890625 -11.734375 4.0703125 C-12.85585937 4.03550781 -12.85585937 4.03550781 -14 4 C-12.18182999 1.68540132 -11.24384457 1.04622813 -8.30078125 0.48828125 C-7.31464844 0.43027344 -6.32851562 0.37226562 -5.3125 0.3125 C-4.31863281 0.24675781 -3.32476562 0.18101563 -2.30078125 0.11328125 C-1.54152344 0.07589844 -0.78226563 0.03851563 0 0 Z " fill="#F8D759" transform="translate(236,122)"/>
<path d="M0 0 C4.875 2.75 4.875 2.75 6 5 C8.64 5 11.28 5 14 5 C13.67 5.66 13.34 6.32 13 7 C4.88277512 7.62440191 4.88277512 7.62440191 1.4375 5.1875 C0 3 0 3 0 0 Z " fill="#85ABCA" transform="translate(102,81)"/>
<path d="M0 0 C-4.48074195 3.36055646 -7.60550707 3.27429625 -13 3 C-13.33 2.34 -13.66 1.68 -14 1 C-12.04310963 0.63794536 -10.08442332 0.28558579 -8.125 -0.0625 C-7.03445312 -0.25972656 -5.94390625 -0.45695313 -4.8203125 -0.66015625 C-2 -1 -2 -1 0 0 Z " fill="#F6E396" transform="translate(180,168)"/>
<path d="M0 0 C0.66 0.33 1.32 0.66 2 1 C-2 5 -6 9 -10 13 C-8.16490101 7.32787586 -4.97304587 3.31536392 0 0 Z " fill="#C6B647" transform="translate(99,166)"/>
<path d="M0 0 C0.89203125 0.00902344 1.7840625 0.01804688 2.703125 0.02734375 C3.37859375 0.03894531 4.0540625 0.05054688 4.75 0.0625 C2.97555028 2.30856427 2.16647515 3.01331002 -0.73046875 3.35546875 C-1.62378906 3.32066406 -2.51710938 3.28585938 -3.4375 3.25 C-4.33855469 3.22292969 -5.23960938 3.19585937 -6.16796875 3.16796875 C-7.19857422 3.11576172 -7.19857422 3.11576172 -8.25 3.0625 C-8.58 2.4025 -8.91 1.7425 -9.25 1.0625 C-6.09493858 0.12630187 -3.28413498 -0.0432123 0 0 Z " fill="#4386BD" transform="translate(63.25,128.9375)"/>
<path d="M0 0 C2.97 0.495 2.97 0.495 6 1 C6 1.66 6 2.32 6 3 C1.56923077 5.09230769 1.56923077 5.09230769 -1.3125 4.625 C-1.869375 4.41875 -2.42625 4.2125 -3 4 C-2.01 2.68 -1.02 1.36 0 0 Z " fill="#3A76A7" transform="translate(119,84)"/>
<path d="M0 0 C2.1640625 -0.29296875 2.1640625 -0.29296875 4.625 -0.1875 C5.44226563 -0.16042969 6.25953125 -0.13335937 7.1015625 -0.10546875 C8.04128906 -0.05326172 8.04128906 -0.05326172 9 0 C9 0.66 9 1.32 9 2 C5.32589215 3.17571451 1.83070817 3.07366746 -2 3 C-1.34 2.01 -0.68 1.02 0 0 Z " fill="#81B7E6" transform="translate(175,65)"/>
<path d="M0 0 C1.93833996 0.08715017 3.8757429 0.19532964 5.8125 0.3125 C7.43091797 0.39951172 7.43091797 0.39951172 9.08203125 0.48828125 C12.17497517 1.03068507 13.13022903 1.55289624 15 4 C9.76119922 3.44854729 5.02649303 2.57077907 0 1 C0 0.67 0 0.34 0 0 Z " fill="#E1C56D" transform="translate(109,265)"/>
<path d="M0 0 C2.5 1.375 2.5 1.375 5 3 C5 3.66 5 4.32 5 5 C7.97 5.495 7.97 5.495 11 6 C11 6.33 11 6.66 11 7 C4.23076923 7.30769231 4.23076923 7.30769231 1 5 C-0.25 2.875 -0.25 2.875 -1 1 C-0.67 0.67 -0.34 0.34 0 0 Z " fill="#EFCE76" transform="translate(162,249)"/>
<path d="M0 0 C-3.28463659 2.18975773 -6.20696275 2.99806563 -10 4 C-10.33 3.01 -10.66 2.02 -11 1 C-6.87831311 -0.62950412 -4.29299643 -1.26264601 0 0 Z " fill="#3D76A5" transform="translate(111,53)"/>
<path d="M0 0 C0.80824219 0.19464844 1.61648437 0.38929688 2.44921875 0.58984375 C3.06410156 0.74582031 3.67898437 0.90179688 4.3125 1.0625 C4.3125 1.3925 4.3125 1.7225 4.3125 2.0625 C0.0225 2.0625 -4.2675 2.0625 -8.6875 2.0625 C-6.72473198 -1.86303604 -3.63700055 -0.8960726 0 0 Z " fill="#F5CF67" transform="translate(151.6875,267.9375)"/>
<path d="M0 0 C3.63 0.33 7.26 0.66 11 1 C9.515 2.485 9.515 2.485 8 4 C3.88198782 3.79409939 3.02948198 3.02948198 0 0 Z " fill="#F3C13B" transform="translate(179,234)"/>
<path d="M0 0 C0.33 0.99 0.66 1.98 1 3 C2.98 3 4.96 3 7 3 C5.75 5 5.75 5 4 7 C2.68 7 1.36 7 0 7 C0 4.69 0 2.38 0 0 Z " fill="#68A6DA" transform="translate(95,63)"/>
<path d="M0 0 C0.66 0.33 1.32 0.66 2 1 C-0.64 3.64 -3.28 6.28 -6 9 C-6 6 -6 6 -3.5625 3.375 C-2.716875 2.59125 -1.87125 1.8075 -1 1 C-0.67 0.67 -0.34 0.34 0 0 Z " fill="#376E9C" transform="translate(96,56)"/>
<path d="M0 0 C0.33 0.66 0.66 1.32 1 2 C4.02934491 2.65772428 4.02934491 2.65772428 7 3 C5 5 5 5 2.375 5.125 C1.59125 5.08375 0.8075 5.0425 0 5 C0 3.35 0 1.7 0 0 Z " fill="#F9E462" transform="translate(101,179)"/>
<path d="M0 0 C-0.33 0.66 -0.66 1.32 -1 2 C-3.3140622 2.73075648 -5.64828869 3.40138258 -8 4 C-8 3.01 -8 2.02 -8 1 C-5.29120665 -0.35439668 -2.99066732 -0.06501451 0 0 Z " fill="#FBDF7C" transform="translate(195,171)"/>
<path d="M0 0 C0 0.33 0 0.66 0 1 C-1.65 1 -3.3 1 -5 1 C-5 1.66 -5 2.32 -5 3 C-5.99 3.33 -6.98 3.66 -8 4 C-8.99 3.34 -9.98 2.68 -11 2 C-7.17010894 0.19769832 -4.21878192 -0.19622241 0 0 Z " fill="#4885B8" transform="translate(113,63)"/>
</svg>
